<mxfile host="app.diagrams.net" modified="2022-01-20T13:34:44.901Z" agent="5.0 (Macintosh; Intel Mac OS X 10_15_7) AppleWebKit/605.1.15 (KHTML, like Gecko) Version/15.2 Safari/605.1.15" etag="Szy9v54Kavzs0QQBfrGp" version="16.4.3" type="github">
  <diagram id="PICyhEVZM8wHfpuF_pZs" name="Consul / Nomad Demo">
    <mxGraphModel dx="1426" dy="828" grid="1" gridSize="10" guides="1" tooltips="1" connect="1" arrows="1" fold="1" page="1" pageScale="1" pageWidth="1169" pageHeight="827" math="0" shadow="0">
      <root>
        <mxCell id="0" />
        <mxCell id="1" parent="0" />
        <mxCell id="YPGmA1i3TQfYnXC-d4_O-2" value="" style="rounded=0;whiteSpace=wrap;html=1;fillColor=#d5e8d4;strokeColor=#597A46;strokeWidth=1;shadow=0;gradientColor=#ffffff;" parent="1" vertex="1">
          <mxGeometry x="63" y="180" width="1030" height="250" as="geometry" />
        </mxCell>
        <mxCell id="YPGmA1i3TQfYnXC-d4_O-5" style="edgeStyle=orthogonalEdgeStyle;rounded=0;orthogonalLoop=1;jettySize=auto;html=1;entryX=0.5;entryY=0;entryDx=0;entryDy=0;strokeWidth=8;" parent="1" target="r-mIFkiKNKntOMGs5Eci-4" edge="1">
          <mxGeometry relative="1" as="geometry">
            <mxPoint x="579" y="430" as="sourcePoint" />
          </mxGeometry>
        </mxCell>
        <mxCell id="YPGmA1i3TQfYnXC-d4_O-4" value="" style="rounded=0;whiteSpace=wrap;html=1;fillColor=#dae8fc;strokeColor=#4F688C;strokeWidth=1;shadow=0;gradientColor=#ffffff;" parent="1" vertex="1">
          <mxGeometry x="65" y="490" width="1030" height="250" as="geometry" />
        </mxCell>
        <mxCell id="4tljcvQNYpZQ7Z10ZAVo-9" style="edgeStyle=orthogonalEdgeStyle;rounded=0;orthogonalLoop=1;jettySize=auto;html=1;startArrow=classic;startFill=1;strokeWidth=3;" parent="1" source="YPGmA1i3TQfYnXC-d4_O-7" target="YPGmA1i3TQfYnXC-d4_O-8" edge="1">
          <mxGeometry relative="1" as="geometry" />
        </mxCell>
        <mxCell id="YPGmA1i3TQfYnXC-d4_O-7" value="" style="rounded=1;whiteSpace=wrap;html=1;shadow=1;" parent="1" vertex="1">
          <mxGeometry x="155" y="230" width="170" height="180" as="geometry" />
        </mxCell>
        <mxCell id="4tljcvQNYpZQ7Z10ZAVo-11" style="edgeStyle=orthogonalEdgeStyle;rounded=0;orthogonalLoop=1;jettySize=auto;html=1;entryX=0;entryY=0.5;entryDx=0;entryDy=0;startArrow=classic;startFill=1;strokeWidth=3;" parent="1" source="YPGmA1i3TQfYnXC-d4_O-8" target="YPGmA1i3TQfYnXC-d4_O-9" edge="1">
          <mxGeometry relative="1" as="geometry" />
        </mxCell>
        <mxCell id="YPGmA1i3TQfYnXC-d4_O-8" value="" style="rounded=1;whiteSpace=wrap;html=1;shadow=1;" parent="1" vertex="1">
          <mxGeometry x="495" y="230" width="170" height="180" as="geometry" />
        </mxCell>
        <mxCell id="YPGmA1i3TQfYnXC-d4_O-9" value="" style="rounded=1;whiteSpace=wrap;html=1;gradientColor=#ffffff;shadow=1;" parent="1" vertex="1">
          <mxGeometry x="835" y="230" width="170" height="180" as="geometry" />
        </mxCell>
        <mxCell id="-90S4f6siQnCm0qcvdD3-1" value="" style="shape=image;verticalLabelPosition=bottom;verticalAlign=top;imageAspect=0;image=data:image/png,iVBORw0KGgoAAAANSUhEUgAAAH8AAAB7CAYAAABdLF8FAAAAAXNSR0IArs4c6QAAGc5JREFUeAHtXQlgFFWarveqOokcBlEYBhEIJOnuBHAUQVFRYOfQ9VhHV0SQEcYDvFiXQSAQxuySA8RrvRAPEBQcYVwWFXRVJDooHuABJt0dkEwQ5BgQkSNHd9Wb73XottOp7qrqru6uxC7oVNV7/3v///7/nf/7319EaCcXY4zUFpT1bmTMjiLhR/FjvfE7VRBIZ4R1wq8zE1hnwoQOjAgNRCD1jAknCBHqAXcUWezGcx3g/D+JijtzSf8qUjW6CWHt7iJttUS1hQ/0aJCbRkKQo5ggDEU58iDYU8wuDypIIyrGVtw/w30zyRA32bfNcpuNJxX5tRnhfzd4UYcjxw9dBgGMYkwZBWY5U8EwjhMVoRZ/1hKRrc3s1qsyp3JiQ6poiQevpYXPShj1rCodwWTyB7Tq6wTm77rjKa/5aQmGDUbWEokttl9f/DYpIYr5SBKToyWF77bPtzPinYDxeBxa+lmJKbr5uYKZuxklL0iSuCR/W9FO8zGYm6OlhF/tLDuXMGW2wMjv0dItRZsRtmNYYPi/mhFaVuCa/bmRtMmEtQSD3YXlFyk+CF1glyez8MnBRd6kEi1zVM36MDn49GNJqfCbWzp7CMu0EfpJbpuQhJC3Rcl2b/7XM1xWKUFKhF/7q0e6NDScKBWYcgeWadQqzEg4HUTwgeGPS9nZJXmfTPkx4fg0ECRd+B5n6XiZCQsExn6hQVv7jSZkPxg/w+kuXprKQiZN+O5Bc3NYk7AEM/hLU1lga+Ema8ROWbfat0w7mAq6kiJ8l6P8Wsbk51HALqkopKVxEmEfFYWJjqo5byWbzoQKnxWuzHDL2x+ERu6eZBYMS616LBT3oHC7MZmEvp7sZoTtpoq4n+CPwoQs6OkyBUHJJIzimWUivivCCjEcFWAe0iuZ9HJchNBpTvfsh5KJV0oUspqBFf3cXs9KdPODE4UjkO9JdWslJcIGURQqc78u/jYQF8v9m8HzspuOKwWoEIWoIAP8+wdMGBhLXnrSoHIehfhf1wNrJkxCWr7LUXohWs8baEWnmUlsMC8ifA/C38BCYQOa7oZ+ruK6YFyCHnhllr3yNajMvycC4+UzbZVCRXqDo3r2ygSRHjFb04WP8f1KLOFWmr7DRogXuv116B6XOcTcN1K5zbpj0ILuPm/DVUwhY1FOvskU84VW/wRm/UkdFgPEmip8l6NsAhOUZyEk04YTdOlHGGXP2GwZj+VtnbE7QLhV7m576XkYHopiU0mTT51S/vBUVWTThO92lk5XFDbfNKEQ4RgRaDlh0hMOzwyMida+agbMd8o+7wz0BON0VX4MXVmEnJuMISsS50wRvumCF4SXqJAxA0L/LhLhVg3f6Szt08iEWagAt0XanOIbP9j9uwqbPmtTWY64he/v6pmyxIxCYPzjO2D3YAz8yIz8UpmHp6B8uKwoizHpzQ2nA6ZiFU73nFnh4cl+j2vGyid3/jE+Tqoh9ENgyO2OMbOHtAfBc3bYq2f9rfNpHQahXI+ghQUNPFDWSsdA+5w4WWZK8phbPl/OoWt7N95ZPQj4TMrMuNaKkzlTOIxM/LwS2GIsD7NPETPPyamavs+svOPJJybh8zWvzytvjn8dT5639Tv1rrw3p8BIsn1ftSOWZDUd2tvXSsafhoXfrLL1fBSX5o4ITUA8BePeovYtcmuXzvB6vFlXH7vKFmPgd4yQ65yu4o+tzZr2T52hln9yd+7VWNnCdfBSpu2S9jy+x8qbVKTTLXy+H680CnwpFtO2LAS/h2Sy4Y6tc2pTUdD2hLPGWXoJDGJux27kSEy6MzCR/AdWEWukDNuTRhqWbuFXO0rfxwTvkliYCCQHaIZ4qZUmO7GUI9Vp+JE0j6PsCUVgd0ag5QeRihPtrln/FyG+RbCudT43vYpV8NioPkwl22/Tgm/B95heoFCbF0XwPM8uiqL8xVNYMUQPAk3hc2NLv82dntzCYNAVHZUovdxeNfOrsKj0q0EObB8wtz+2kqdpJYPeJVPx+Z7VguPxmsJvtrKN2dhyYn71rE/0EJKGic4Br5fcjrFdU148F8CdzXcbo+eokRm3q+fm1VqZqMWj1T8LVW3MKwO1PH/OYYSwAiPlhxkbrJCiX1FrEo5OPay3toWiwczend2x272hYennuDnQ2UgOMD07RQs+ovD5EaqYzKyhvZNEcWzPLZNOaCFPx+vnABRjBk/6EI9W7hGF33x2Tit563i0+qK86qIvWsekQ+LhACwAVutNz5fWmb/suUkLXlX4/rE+hkOT/u1K1+xHtJCm441zAPsgb3P+6kkJQ5H/0uMwQlX4/mPSerCEwWCcuQ8EYpqQvhLBgU5ih+uwN7ItWt4wcH2ywFX8VDSYQFwr4XPHCNwYMQCg9w6hv+rwFG/WC5+GM86Bs6qmfn9aRtYwCG0uhtcjLXIgwheQwVgc/Li7RXiUl1a7es0eMYw5RgAhMrXR4ih40lEmcaDH1vuOI6s/sxJW4nqlvEAipKPElH2xGIK20O0jQ+p6uezvUBMYc4VCyWJ0NbeYVL50NkniQIuWz50fAa8hwaPVN9pEoSRJ9KbRmMiBFmM+93plNG90Hc/HezbOKM40vDkcCAqf+7nDpsB1RrNlRFxsNE0a3hocCArf7+DQuJ87l9NdtMUaRUlTYZQDQeFjkjfKaGKsKV80miYNbx0OBCd8J12a6qYMEz2WIYrLdSdIA+rmALfzhzr3Mvjx647zHidwX2/r2/ldvSbu3L+A95h8NyMK/BmSfmjYjZAXdwX3cOihGP9Sjzsxrvc17tVNHQChaXofKscRRtKkYaNz4JvCeb2bZN9zMNf6TTgkhLeTSsLN9qrijeFxoe9+30eNZD3mbzmh4YFnKIJedgzMH09WjZb93T73Xh2I1HuH8NNdvl5m6YDbfk55tyafr1JN8Dw5hNlPloX3PIWlF0fKbvug+b3g9GpjJMH782HsRve2Gr+lj7/b97sdiZRjhHDGpPURoiwV/FzhLV19R+uvxGG5f0U5eWvoiR/3w7MP26TfoRJvlKi05rbaZVtTSbivXn4amyKqrTVIF2M2VIBVOP2To7Zx4/U2TUMt4eWLeqGCTfQ4y/9KOJTLXvoVasugqClCIpHogNMzx9J+9Bb3n3hWo7dhLphxE5gqhpAf6XErpaRoct2KdZEAEhXe3FULO0BnyAQ8Mja4cRkPNy4vhUJsP/+xU71HjuxBeflHJTQvDCOrKDcHBmSeJnQoABE+DX212vPCPuP+1OhtrIExys06Bc+LMAjOJdYu7H3j24vybzwjqWXy0Yv0Cp7TxRQ2PJw+35Fj8CSmT/D+tEQ4m/JPk6DVa5r8hCLD7NOSwl+Xe0/mU73HLmWKAvdvDF278QsV5jdKg/DZon7jBhpPHVsKCLOHwZRwI9fyotSYKxzIPIs2MuJomY32G/b7LWmRW9d4iDtDMKyiDi8xKkBf2ausfy5nbJ/wuES8w4Xct0byxdzFGw4vM7YjPCzaO7r7LynWk/ZoQOFxfH3fwSbhezPWutBdz0RtHmsiVZh9s9eWDRrf0cQ8VbPChHMT+CqrRqoEEiq8Gx4MFy97MXndFB4e5X0dn2AYEj7ga/tsKzocJdOkRz3db2weWuvcBCAedOKwPDMB+bbIsn/VzF34Zs+yFoGRXgipy7Zlwgdh64uI4n2oRNq+DmD44ehx8fMS3Ij1xkRB/9X86TH98EmAVHxCGdAEtZVmogRrpi7qc9NTk+pe2qsnX74OZz5MNIngt7NHpXSJIl3K3bRET08hOGVwtFUXump8yInefNKgo1V2/IMO7oLSG5gi/BUyVecHEbYTQRxDKkf6eMs3ZA8OeEt5yHq2z/gcjPPXt+KESQEQRgdMIO/Uym7foAUdcZbuCVTED3Ce7lZMOC/kP8zNb5Fl+YNqZ+nCA4VPRlyGOd2zDkkd6K+hO32FD63h+KCZq0H4cMC9Hx4X+u6oLl4jEHr+yXx+Gkq4m3dCHrNlZ5+HPGp4GtQO/sHBVrhC82vxjJq8p0VAil9kJl+daBJQAa4BjjnR8BxualwKYUfeElfY5IPK93xWH9E+Mu+LWf9A/JjtheX/7VWUEZBLX7T0Q/h618cOV9EHEJ4uQZ38rs+Ybwsf7npMbsyRRFafW5Dr4Spd5B+8SLVjbg1kr3udDwKKsDkwL5hDih+wtHsHLR8tJrFXhkT63lq7ok4NC0zdxwiK8rJaXHiYmoImHCZZ74a7fYxlGHesc+Hkam4yqPEqYv+IeJgyPWJcWASGEN2wYUlNf+XCjzgOqWHD0rBeLTxVYegHf5kU3Ew+Uw3P9ssfy0TPeY5anFoYhs2B3GpKLS7ZYVjnE0PaPYw6TckmMhK+lYUlGWB8ZqR4U8MjqE59tccMNR5OU0PjQaOTbFOLEsiMYn15IvCi786/UGGNa3RVSRP3/JEUaig7oIYHE7HvwcNjanFqYZix1+c48w6qxSU7DN0+M+TRWqHGeorEF4glZekpCqLqOt8/A8e3dHWXk7A3w2fdutOaDMjHfEPCx5hvaJgwmd7W2THyaetA00Pqu/Ts9kWkXDMlaToUMNrfyeNu5DOEaZHySXY4X+dD+LqWjwHaTg88WONO4XlKnphIWtC614/e9EjEiS5Xz0LBcwf4+AKWnTZVWvwfVCR3O7YW16rGhwX6z0wKsp33zF0yMz6NpNULSxZ89ZxdeiZc592MCWY/6PxxxIu+4+gx7C2u2QsAGW75yEx11hvIMNn3M3p1ewcV+FAi8RJKV2jljwOSK0RRGoLxv1UPgXF+q41KQ6EfWaqVD3QGV8CAc5MiNLkVQV6jCMp73zc27K52zn2gbmDFaVrpuY9fpF8iNwq1UDpB7c1uwX0KPm33unvvxj2IuyqQB4w5dHRXAWj/nfVs8ZriF3+LJKQ0UWSgO/960oTcV/Tkz72OFbjnnCtJ9ByYtY/DbPommyid63DP/pUehxUux9zbiKK8BmFdEIavC5y233fC63uHW+aGxQVfuV/khr17ViP9BLUeCP17d3Tyq932uf6eUhIo+/tP3uCD+UR8ADNyIkamKOKMznlPHfyx5i7UctMVPozS6aSkBCaA+q/8qtlfApr/mi9SFHiKeOcOMaAAeiYiACLQUAc3Hfe9iEdVlbZbrimDKvqyqHkITITt4uM7B5StgwGIoOm7JTQz1J5e3NQ7NCzVz3zJJ9rItaBD95JLD82EkvI765a/qQc2bhhFmaErDyZcuaOwolUl5909BK+5AeXHwVjHRp8yg8Jk0JDweeJGn2+oLkKTCDRp5/JtsNMch8lZKyuXWMhAPq9OnpgfdTMnlnzV0rDBi2yYK/DKq3lBwMTnk8eEA3r37xmKLl235hCmm0MokbS9NoUjwkmQ88PDrPB+57cvvUabj53x3bGYL0rogsl/zB9ttLuPFaHn2A/dIDisvHRfrVTaMqNn6E7NAWHHQe1fFe8xoqHi6dD1W67lc7r4NWnXyxtFm+08aP5WYX4CUo1cZAdm9tdO3rXc8DhvBEs4bMeutsNYETSGh0d6hwFOq8pNRGF/JHi1cOA7wJd6kL2xrh/6/SGYUSKZNa9JO5ftunPXitGijZ6P7nt5dBUwUQDzIdbCk8XunQruqFu+OtmlOmvT1HoI4Q39eKXXw2Ht3YZ9gjx2hYdHfmdr/QLE2u9xCPPuyICtY8QM0dlWPGlvGFEiub7ZMYwSJQfTdnSZpAM0lfuYQPdkZdo2/XHHklYtqXWJExviKSj7F0Vm7/AxPRomVNTV0Beozg8gx2mQ44Jo6Xkc8jiaKZG8k+MM3QAtmSHhyz6FLyncWoisED+ysoRrtbgNnYYdXeqotVfPXg9Tr6lYdj8ShQpXhijdGyne0bHb/7iPHxiGJaFq5eDp+MYSRsOr+31dvN/f7XcSsypR3QytZdH1j49ERDo8Ng7AqdWjIiVj0DSrQ3OAbBowLK3I7GQb5rf0DY0MeSZbJnlhlXsDVLkLIeQWJlscDGFb8bsCp6srm9/5X1ww5/oc0yPdRgk8jU0SC/OqZrUglIenr/g4wL2i1awqu1BWSD9RID8yRVxv9HvC/vN/TeQKtPK+aKgniEjf571LKGXB8QWqRRxxEv4UGqn1jLFjHsafIi24dLw1OeDv9jlplNIWtUIPuags46w869dThp8zTFD4+SRvPVqywd0xdpbHUT7i58zAtlz2oPBJ1egmjA26dq9CCwxt362h7+nntsOBoPA5ybApX2aYdCaMwY7UAMPp0glSzoEWwucfQ0LXX2OEKuhPqaCwUiNp0rDW4EBwth8gB19lKsZZs7mBd913SoZhnfqxbvg0YFwc8BSUD2eycg70/Pgv7hX7dXpdr6u2AOJWwt8xoPSsJp/wjZolSCCR2h09RiWWfSPV4tJh5nEAS/Lford9AjqZFkfsmifr5CGYk1Xoxdai2+eJuBNl1IiX9GYQgMOSbwQnLPCevpvPAf5lUwh+bbjgOSbw/3Q40ixHz/0sVxLpwR4BiM5DBTCk7vUjY2QBtyPTgzgNY4wD3MceHEY9A8FL0VLy4+GeleVjo8EE4lSFz89vw23nqgCQ3jt2pAa5ZU+5Xvg0nH4O+Jp8xWj1WXpSoJLcz65fKWrBqgqfJyJEKsMmAPAZvBiZmu7+DfJMBzgTlFE6wJpBGMv1eDy9teAjCt/pnrkNkn9NK4PweL4fjXRLuTvR8Lj0e+wcwIHaXkZSE5lonq+IKHyOKEMSp6H16zYvChLHhB6+emVJ8D39EBcH+P4J/mEf3sCFj+tpQUcVfm5V0Q5sAs/XykQtHgTj5Mnce9Ti0mHGOIBlHDfveU9vKsA20M6dvtKCjyp8njirx5kVaP07tTJSi0f3/zAc/F6jFpcOM8YBSkTdPSka/Qt5n0z5UQuDpvC5d2ds98bWgrEsgcOkV3CI8XdahKTjo3PA7pq1DkfAFkWH8tvnfd6lQzdddhmawufImhGT2KxamQDvGWx1jbP0Ei3C0/HROSDldP4PiPcB9MStTLR4SgwPG2imcLXeL5hrTgoC5PDZO3zCfwkDjpgOaoKwo1QUfo0vRSTjPH2A7HZ55+f6oIO7VlDIBZiT2SBEbkj7BtTrrUy6ozFAt/B5Jrz1yorwHpZzmgoEVaRwoSKJZNTJg4yqIOnA5HFAV7cfICffVfwBupz7A++G74yd5pPZRuioYWGavlLNAUMtnxPL15xuZ9lbuMe1iYNh4EF86GemVfzTpFoQqcBvqOVzAvma05aROR5jza54CEblmebeWvO2Z/CDxg4YxoM0hWlxHv4XbnvZyBSS0Aq1YeHzHHK33ndAtIm/Q0UwaPDZEj/mDqPk4/VbXI6KwS1j2tcbtlnHNfiUaoUor3kGljusUjrD3X4o4TUF5ef7FGU9xoKOoeGGnwkcOzLyKBVspUYPJxjGlcQEcKrUkxHv0+jlrgqiJUJVl47dh+pdjgXTJeAhppYfoIPb/FGR/TvGgvgcInBdgMCmg1Eev8GChU8AB8qudYdiawKcKlW1EDxPxITCI8cPLNRKn4z4uFp+gEB3QdlNTGbL+I5eICyeO86lbYI2e4rDU7w5nnxSkfbkcvh+PqRFxU/pbXCN/lxUmARHmiIsTiOOB98IXf5SDAHqfugMFgSEKVxHnUHFCv8Gk8H0yQbnLtTgSasIPLhID26Ur0GU6LBU6jxMEz4v8EnjwlfRtXXSwwA9MLwSYFhZg4OGD/HPiOhJkywYbi3j+nr79URhELr+j1IG6SNkhy371MF6NmGCaUx8MFX4nC5PYcUQxedbhxZg/hIOkyVKyDK4MF3udydjIiP0ZoUxnGwvrBgqK8o1qOQ3QOg5etOqwWGI+18cmb5OLS7RYaYLnxPscpTno8H+PxjVNxEFONkbfAwDhw0ioRs6ZJ/ykd+1SSKQIU/uLQtOD0YyRq8hRPm3WPc3IpJHyX/ys/kR4xMUkRDhc1qbv+9yfCkYdWWCaP8pW/9SUeCnjTZgolhJslhNfn7+vli0h/xDCD+cOOgQBVaIL10WwmHhALTwi9HCs39CaPITXy0R4ZJkH3pJmPA5e3gX6XaWTwXjKsyaCOple/O2J9uL+cJuULIblWI31iL7ccemlJKpUCELz5nIj1vE8ntXVNQCfLYlB0NWXEtgvTQG4EBrI/De4fDMWRIIS8Y9ocIPFAC+Zi5A6/kLKkCfQFj63swBjPnb4ONkHDeYTTZPklLDeXfW0SbC5Qt5MdkFtCo+tHYcqyGPSjnZQ1IheM6XpLT8UAFgMngpbNCfQi9QEBr+c3rmrV0k5G6+RZ7Kcidd+LywfPbsOXbwXoWw+1EJ4tsXSCX3jOKGMQsY/mdsZS+MZTJqFJ0WfEqEHyCKnwj2+lgpJlhjMSeIegYtkKZN3ptn88+LHbLm2LdMO2iVMqRU+AEmNLsNozPQC0zAyoDPvNvFBeY2YGxfbJOk+dH856WqsJYQfqDwzVugTdPQE0xCT6DbfXggvVXu0DccBS2LssSMh3Kqpu+zCl3hdFhK+AHi+Ldk6pvkG6DB+wPW3sMC4Va/g5kfEoEu7ip1Wdm96q5jbYBea5PIvyrhleXx6AngmCA+PXpiSkq+Qb6vwhBlMQxRPInBkZhcLdny1YrarC2cdy5hyihUglHQ1g1PyUoBkzccQ/4bFslrYc24tq0JPJS3bUb4oUTzZ/9yseHQUDgiGIUKMRTzBDuCc8xeNWDCVovK9hm+R7MZPgc/O13surktdOnh/FJ7b7PCVysMrxA1TYf6w0uVHZXAjq2F3tDjd4YuqzMqB+7M/4yWewoECk/WpB5zihNQupxAfkcxx8A+AK2Dzr8Oaeo62ISdfbYVHVbD1R7C/gnFPAioGAFJEQAAAABJRU5ErkJggg==" parent="1" vertex="1">
          <mxGeometry x="183.75" y="335" width="50" height="50" as="geometry" />
        </mxCell>
        <mxCell id="1P9C8POOOEaXLPvc4yLv-1" value="" style="shape=image;verticalLabelPosition=bottom;verticalAlign=top;imageAspect=0;aspect=fixed;image=data:image/png,iVBORw0KGgoAAAANSUhEUgAAAHAAAACACAYAAADTcu1SAAAAAXNSR0IArs4c6QAAEBpJREFUeAHtnQl0FEUax6t6JiQEUBCFsOgmqGQi+ECE9cQDCazy1t23q7Ku7hM8CKCoJBguE8hFBPKEIEcAF1lWn7visftcV12SgAerb128QIQJxIASjighJJNzurv23xMakjDJdCZ9VE+m35tXPdXVVV99v676qutqSkLwGL5jeUyT2LCEMnY1oY45JRPSdoZgNn1ZoqGUseF7t/ZoOup+mhKWzhjro+YNmXydRgrz3Lell6l+oeKGDMCE4sy7JZmuJIxd4R8ObaQCy+/Xu1/uf294qtp/GPv52h7gsO1Zw0WJ5KPEJWpUfwUVaPrI8QmbXqeTJY33cBvMtgCHf7LiItHjWcwoe5wx4uyshimlewilKSWJ6UWdvZen8LYDeB/b6vi6eP90IrNsRshFXVcm/afgpKnuO9LdXY/L/BhsBTB+W+Z4QMuHmq7WU1WUEpFRsrZHdJ+svTelVOoZt9Fx2QLg1cXZVzRJLI8R9lsjFUIJPcUEknFB34EFn4+Z7jUyLb3i5hqga+eyPqyuYQEjNIUQFqlXpgPFgxJZIlBhzv7E9HcChbX6OpcA0aKkruIlDxEmLUUDJcYqJaGhUyQQkrJ/wqI9VskQKF3uACYUZd0oM7IKEH8RSHhzrlMJJXJTVHTP9N03p1aYk6b2VLgBGF+cM5hI8lI0Jh7Eyzg3cqmqRGmsoYwuuXzIhfnvDX2qUfW32rVcUbfv2BxVLh6Zg35L2DrWy2qFBEofDZ0ydNXNc09c/HqgsGZctxRgQmHmPTKhz6O6jDUjs3qmgWp1J2WOZPfEtF16xtvZuCwBGL89aySTyCpUlbd1VmCuwlNUqoS8TARhYcn4tHIrZDMV4KiPci+pa/Bmy4RMQ2bRwAuZo45SYXmffgPy8P5YZ2auTAE4eteGCM+pE08AXAZK3YVmZtDMtNDQKSdMWOCe8OwrOEenkfGH4QBdRdl3wsYpowUu47PDRwqwj7CLjmQzBpINA+janu1iElsBcJP4UKv5UkC5hg8k6w5wdOHSC2tY0yJCyZOAF2G+2nhL0diBZN0AZjAmvFqU8yigLUG/5SW8qZEDeQwZSNYF4NDinFupJK2C1b6GA0VxLQIaN7oOJHcJ4FXFObGSLC9HqZvMtdZ4FI7SdwQHfaarA8lBAcRrQXR15fH5sHOphJEoHvVjB5lQGr2YErKuKwPJnQaYUJj1gMTYMijoUjsoyQ4yAkIlE2hmMAPJmgG6tuWMYcRn526yg1LsKCNKpFug9JnODCQHBNg8y7k+lxA6lcdhHjuCCiQzQGoeSG4XoDLLWSx3J6OOfhaNlLOznAMl3u2uU/I92gE/1z/f2gaS/QJ0FWb+RhnmQYlrZ5az/uLaLkZKvhUomYX5OqOYzJ43UP5qgQi57Q0ktxoRUGY5xxdmFWJKwz/C8PwjQT+nBxOCUy/oF3ONO3HxDv+hdPW9QCby0tKyqn2ubZn3tY3ZN6NZmeXsrfVkihKbEcws57aRhup/wHuNsqiUkonzjpqdR8xWGIKOkq3xhZmtBpKd8YXZyV5PTRou6jDL2exsmZTemerSpBLXYaZQwMYyKn829P2Mv9djXFVgTM7BsHJVh3d104vN1aUw18TqUpOmWZPX462o/F3k9xUJShUajVbU5XArIDCAkos1xRLigZTqkgiOOQcsmirhV72y7BEra6LlmtrmtwLqaLWqZwDgEUbpYYGwGJybNhPar7AWeeIdbB+Wn81yj0/fbpEI/pJtkE7VEOm0pzcal62un7csC9P7YhFERkYO4/0vtlXoEP6jVJfIc3bvvgNXcrQuQpI9dTVSZU1fJvlfyngewDOMUJX64GGyDvEA+oAQZoe3AroVM8tS3BxVl3JD04/SyapLWJPYtyPdtwdQvSca8KIB8SQmJPXENJ1o9UIouOjF2I98zCqZsKiYl/wwUa6QfjrVX65v1DQoHgigL1+A2F/pssGs5GNoscaESp9o1MDoMbtHptZyAY+xSvGn6kjZU9up2q5VT0ygjOBlchDgoZ1DuVvkEUh2f9cHR0eK/vxN9quVqzwV3sPHLwK8Ti8t0FQC22RIsY8DQLEOpVIC0HBHdxsFafmLQuCVPPVHxZNVsVjU02lwahrBAPTdi9aqzx6ixVqFqhUQmUONNOx2rAG8iJeKFVWxstfb5VZ+0ABVEVEK0UpCnzyllSiZ4e44VTH+XEk+JP5U1U+ua9BtlKfLAFU5m+FRiVBWB57halVVDFzUVsfFymqvVF0b18Jbl1PdADZLg2pUgUdpPUqmA1B76CKlbSNh1dLp2iPyqZph0IUhudAZ4BkZGevpExerWrtjI8fXQKmv3y1VVI1gkjzMEHJnIjUGoCrxuRaqB169Ve9QdpkofYGRgljW6B1tRj6NBXguB+iEJZilQbH3innbhZxL3vgzJsvfyj9W9ZDqGq41PrVzKZgFUOnGQaeBAo824rxHqPTmoKTVoXHyGX7XnVOreWed6onRRyxAbN6FAgPKnTwoLXVQci9Kcr5iZzp5tyHBm8p/irYKnpIhCwCe1WPP5jOUyICHskSLZg12Xnb1/gmL3zwwYVFyhDNiGCC+FfDWEA9gXhXariJ9NlGxj+hq9dObQ+m/ezgjZu0dt+BgSYs4lP/4e098Yc5Y7Oj0PFq9llRhLUSy5JQDgL58YxKA78VDqRZ9i0JRusrxm+1OTH+jI80oy5jxjnVDfOGS+ymVn8N5bEfhQ+2alVWoP10q8LC1FX03wtk/IRA8NQKEZwcmpv31Z87LEjAJdj78q9Vroe7yUgKb9UzppwJ1zHAnPrs7GMV/MO7hBty3DNuZvFTbKGag1ZuEgs1XHoPJWAf3cJE5dLtVEirMdyem/UkpTR3Iq+nSl7cu/BEBn4jfkbuaiGIequdfabrRhoEsr0IBb0uvqIiEkgnpL+oBryWDknEL96PFercgkDvQSPqy5bVQObcWIN7nSiYunnqmxBimU2VG9YOJ6WOo4JiKh6TcsIQsiNhSgEhc6SM15chAE7UkMW1Ln34D4wVBWKTMtjMlYYMTsRSgwXnzG72ylxlat9kRzp5Dr7/ySS56c/wKqtGz2wFU9bJ33NzjSqlU/9vV7bYA7QqsrdxhgG01YrP/YYA2A9ZW3DDAthqx2f8wQJsBaytuGGBbjdjsv+0BKts520znuopre4DVlSfeiS/Kelz5LJ2umrFJZLYHiGnPF2OjnbVfFe3bje9Q/NJ0vVv8lRkuhpN0UTojw7AI+X1sVPQucTrnKCMRusTbTiSjN2yIOEm+nIUxx/Quj3+1k4YWb/uXwDa5xJSKSUT07nFty1qlbGDU5rIuf2NfnD4J8PZgEs8KwLP0MwohB1AhpIzCy4Q91VBZ+VrsxhmPACqGHbt+DNk00xW3cca7mKL8L8Dj4jMKIQnwHCqqzEHdNOTFmR9e+dL0oNcoxG2e3RfgVmD9+h48DHedi9/6sxAH2KxgKP0W0Uu+its4M/fGrcln5qMGVn4GyxDiNsyYTrwNJYgjGdUld68s3QKggkpRPrYVW3C0qm5v7MaZAUsRYN/2543Hv0BVuR7wNO0YEfiR0D9E6LRCteqGkSHYx+hd2MY3ohzOp92Prmm182Dc5hlxzEvyAPterVFaGa77AVS1zdi9jaI4EVVk+tSkmDVvvezpebqhZj7xsmdQXG2zE3/3BQiQqB4vgLMKVeVUVLHK/iyD4drq6NYAVVIAOUo9t5vbbRoxdgOjVd4wQK2a4jRcGCCnYLSKFQaoVVOchgsD5BSMVrHCALVqitNwYYCcgtEqVhigVk1xGi4MkFMwWsWybU/MiK/zejX8WJfJZDrSN9agNcchFs6WAF1F2Xc2nKgrQL9lXHeGpzyLtgI44j95A+rr6lfKsvxAiBWkoLNjGxvoKsx+uKG2bh+mSIThtcDNfQm8alv2UImyDTKTx7WQO3x6RgPcAlSmzNdUnkgVqZxupwFWs58sfEWUbMEWHFyNYw7dnnV9zakTn2OcbkkYnv9HArttfCzTiFKnss0HPjG+Bvux5kNhN/sPbo6va+eyPqy+MZeJ7HE8Ubaxz+ZopzkVgDuMQje3LGn9VsXHpyT3xLRdJRMXjcWWjn9QApgpkJqWa1v2r7Ed/7eYAYbp6mF4ql7OupTUClRIJxExCSo85Rpgtj5u37E56ph0JBULRuahRAb9RZHWsfr/h4/e5wiRjnVio7Qarct7/IcK3lduEj8WyytuCT4GDu6kMCKEvoIZdPPbzqBTpDsPoCryVR8tGSQ1iM/hEzsPQbnthlPDB+OitP8P0sUjfkPWF9gdIJT+KXXQ2WWPrf+sPf0GBAP7OIYH+9heBjryty1ASo44CJ1fOq3gVTzkHTYwAwJUFYRFlPejMC+FjYpV/Xh37QcQH0yhNK8/G7js8+kZdVr0qxmgEpliH8vFH55BtTwPK4B6a0nAyjB2Aghwf3M4hbmlj6z7oTM66xRANWIz7KOaVldcmwDc5aSOp0uT1n0STF6DAqgmlLA9a7QssXyUxrGqH08u5wCPodQtLJtWsAVuh3auI512CaAacXxRzu8Jk5fxZh95BIhvLeLDJ3RFr740d+/kdV3e8lIXgArIZvt4ZA4l8nxe7CN3ACl9M4o6U93T1pSpD39XXd0AqoLwZB95AYjNZb9C59LsQ0kFH6p60svVHaAqGA/20WqAqC4rAC9tyrSYTRk0w5C9SQ0DqIJ0FWZNhm1cBisdp/qZ5VoFENCaGBFeiIh2Zh/842pDv2FhOEAFllX20QqAaFG+7RCEOaWPrVM+DWT4YQpANRfN9lHKRc/qFKP6V9W0FNdcgPQbB6XJ3yUVFLWUwehzUwGqmbmqeMm1kizh/ZEZOlJgDkB6Ett9Lbqu7/gNr0+ejM2izD0sAahm0Wj7aCxAKsLWre3Ti2buebDglJons11LASqZVezjUe8PKXiKF+j9/mgUQNi59whzphyavsbQ/di0PAyWA1SFHL5jeUyTWJ+LEY8p8NNlOoXeAKGs/YwKKYeTCt5T5bba5Qagqgg97aN+AOkpdFdmxg0dtPaDcRmiKisPLncAVaW4tmXeh3fH5V15f+wyQEokgdANkZGORfunrD2pysaTyy1ARUl3HXghsvTw6RR0lC8Mxj52CSClRU6BJJc+tv4bnoC1lYVrgKqwwdrHoABSehClbk5ZUsHbavo8u7YAqCrQZx8lcSWq1VtVv47czgBEv2U17Fx2dN9BL+ydnNHUUbw8XbMVQFVxWF52L6Y9wj6yIaqfP1cbQHwAi5JNziiSVvrQ+gp/8fDsZ0uAikLP2Ufl/ZH18afkQADxPvdh8zDPOgz32POwLUBV3c32sQFrKNhU+LV6f2wXICVlmLaX+l3S+jfVeOzq2h6gqvhhhVmjRIb5OS3s4/kAqQd2Ltd5aY8VByetblTvtbMbMgBVCC3t41mAmAeJRsqWnixq4b7p+cfUsKHghhxABYrPPh6qSpbrG+/wHj/Zy4Gdeb97dM2uUADWrfIw4i95hi7O4UGZ/wfID4pMzOvIXwAAAABJRU5ErkJggg==" parent="1" vertex="1">
          <mxGeometry x="243.75" y="330" width="52.5" height="60" as="geometry" />
        </mxCell>
        <mxCell id="1P9C8POOOEaXLPvc4yLv-2" value="" style="shape=image;verticalLabelPosition=bottom;verticalAlign=top;imageAspect=0;image=data:image/png,iVBORw0KGgoAAAANSUhEUgAAAH8AAAB7CAYAAABdLF8FAAAAAXNSR0IArs4c6QAAGc5JREFUeAHtXQlgFFWarveqOokcBlEYBhEIJOnuBHAUQVFRYOfQ9VhHV0SQEcYDvFiXQSAQxuySA8RrvRAPEBQcYVwWFXRVJDooHuABJt0dkEwQ5BgQkSNHd9Wb73XottOp7qrqru6uxC7oVNV7/3v///7/nf/7319EaCcXY4zUFpT1bmTMjiLhR/FjvfE7VRBIZ4R1wq8zE1hnwoQOjAgNRCD1jAknCBHqAXcUWezGcx3g/D+JijtzSf8qUjW6CWHt7iJttUS1hQ/0aJCbRkKQo5ggDEU58iDYU8wuDypIIyrGVtw/w30zyRA32bfNcpuNJxX5tRnhfzd4UYcjxw9dBgGMYkwZBWY5U8EwjhMVoRZ/1hKRrc3s1qsyp3JiQ6poiQevpYXPShj1rCodwWTyB7Tq6wTm77rjKa/5aQmGDUbWEokttl9f/DYpIYr5SBKToyWF77bPtzPinYDxeBxa+lmJKbr5uYKZuxklL0iSuCR/W9FO8zGYm6OlhF/tLDuXMGW2wMjv0dItRZsRtmNYYPi/mhFaVuCa/bmRtMmEtQSD3YXlFyk+CF1glyez8MnBRd6kEi1zVM36MDn49GNJqfCbWzp7CMu0EfpJbpuQhJC3Rcl2b/7XM1xWKUFKhF/7q0e6NDScKBWYcgeWadQqzEg4HUTwgeGPS9nZJXmfTPkx4fg0ECRd+B5n6XiZCQsExn6hQVv7jSZkPxg/w+kuXprKQiZN+O5Bc3NYk7AEM/hLU1lga+Ema8ROWbfat0w7mAq6kiJ8l6P8Wsbk51HALqkopKVxEmEfFYWJjqo5byWbzoQKnxWuzHDL2x+ERu6eZBYMS616LBT3oHC7MZmEvp7sZoTtpoq4n+CPwoQs6OkyBUHJJIzimWUivivCCjEcFWAe0iuZ9HJchNBpTvfsh5KJV0oUspqBFf3cXs9KdPODE4UjkO9JdWslJcIGURQqc78u/jYQF8v9m8HzspuOKwWoEIWoIAP8+wdMGBhLXnrSoHIehfhf1wNrJkxCWr7LUXohWs8baEWnmUlsMC8ifA/C38BCYQOa7oZ+ruK6YFyCHnhllr3yNajMvycC4+UzbZVCRXqDo3r2ygSRHjFb04WP8f1KLOFWmr7DRogXuv116B6XOcTcN1K5zbpj0ILuPm/DVUwhY1FOvskU84VW/wRm/UkdFgPEmip8l6NsAhOUZyEk04YTdOlHGGXP2GwZj+VtnbE7QLhV7m576XkYHopiU0mTT51S/vBUVWTThO92lk5XFDbfNKEQ4RgRaDlh0hMOzwyMida+agbMd8o+7wz0BON0VX4MXVmEnJuMISsS50wRvumCF4SXqJAxA0L/LhLhVg3f6Szt08iEWagAt0XanOIbP9j9uwqbPmtTWY64he/v6pmyxIxCYPzjO2D3YAz8yIz8UpmHp6B8uKwoizHpzQ2nA6ZiFU73nFnh4cl+j2vGyid3/jE+Tqoh9ENgyO2OMbOHtAfBc3bYq2f9rfNpHQahXI+ghQUNPFDWSsdA+5w4WWZK8phbPl/OoWt7N95ZPQj4TMrMuNaKkzlTOIxM/LwS2GIsD7NPETPPyamavs+svOPJJybh8zWvzytvjn8dT5639Tv1rrw3p8BIsn1ftSOWZDUd2tvXSsafhoXfrLL1fBSX5o4ITUA8BePeovYtcmuXzvB6vFlXH7vKFmPgd4yQ65yu4o+tzZr2T52hln9yd+7VWNnCdfBSpu2S9jy+x8qbVKTTLXy+H680CnwpFtO2LAS/h2Sy4Y6tc2pTUdD2hLPGWXoJDGJux27kSEy6MzCR/AdWEWukDNuTRhqWbuFXO0rfxwTvkliYCCQHaIZ4qZUmO7GUI9Vp+JE0j6PsCUVgd0ag5QeRihPtrln/FyG+RbCudT43vYpV8NioPkwl22/Tgm/B95heoFCbF0XwPM8uiqL8xVNYMUQPAk3hc2NLv82dntzCYNAVHZUovdxeNfOrsKj0q0EObB8wtz+2kqdpJYPeJVPx+Z7VguPxmsJvtrKN2dhyYn71rE/0EJKGic4Br5fcjrFdU148F8CdzXcbo+eokRm3q+fm1VqZqMWj1T8LVW3MKwO1PH/OYYSwAiPlhxkbrJCiX1FrEo5OPay3toWiwczend2x272hYennuDnQ2UgOMD07RQs+ovD5EaqYzKyhvZNEcWzPLZNOaCFPx+vnABRjBk/6EI9W7hGF33x2Tit563i0+qK86qIvWsekQ+LhACwAVutNz5fWmb/suUkLXlX4/rE+hkOT/u1K1+xHtJCm441zAPsgb3P+6kkJQ5H/0uMwQlX4/mPSerCEwWCcuQ8EYpqQvhLBgU5ih+uwN7ItWt4wcH2ywFX8VDSYQFwr4XPHCNwYMQCg9w6hv+rwFG/WC5+GM86Bs6qmfn9aRtYwCG0uhtcjLXIgwheQwVgc/Li7RXiUl1a7es0eMYw5RgAhMrXR4ih40lEmcaDH1vuOI6s/sxJW4nqlvEAipKPElH2xGIK20O0jQ+p6uezvUBMYc4VCyWJ0NbeYVL50NkniQIuWz50fAa8hwaPVN9pEoSRJ9KbRmMiBFmM+93plNG90Hc/HezbOKM40vDkcCAqf+7nDpsB1RrNlRFxsNE0a3hocCArf7+DQuJ87l9NdtMUaRUlTYZQDQeFjkjfKaGKsKV80miYNbx0OBCd8J12a6qYMEz2WIYrLdSdIA+rmALfzhzr3Mvjx647zHidwX2/r2/ldvSbu3L+A95h8NyMK/BmSfmjYjZAXdwX3cOihGP9Sjzsxrvc17tVNHQChaXofKscRRtKkYaNz4JvCeb2bZN9zMNf6TTgkhLeTSsLN9qrijeFxoe9+30eNZD3mbzmh4YFnKIJedgzMH09WjZb93T73Xh2I1HuH8NNdvl5m6YDbfk55tyafr1JN8Dw5hNlPloX3PIWlF0fKbvug+b3g9GpjJMH782HsRve2Gr+lj7/b97sdiZRjhHDGpPURoiwV/FzhLV19R+uvxGG5f0U5eWvoiR/3w7MP26TfoRJvlKi05rbaZVtTSbivXn4amyKqrTVIF2M2VIBVOP2To7Zx4/U2TUMt4eWLeqGCTfQ4y/9KOJTLXvoVasugqClCIpHogNMzx9J+9Bb3n3hWo7dhLphxE5gqhpAf6XErpaRoct2KdZEAEhXe3FULO0BnyAQ8Mja4cRkPNy4vhUJsP/+xU71HjuxBeflHJTQvDCOrKDcHBmSeJnQoABE+DX212vPCPuP+1OhtrIExys06Bc+LMAjOJdYu7H3j24vybzwjqWXy0Yv0Cp7TxRQ2PJw+35Fj8CSmT/D+tEQ4m/JPk6DVa5r8hCLD7NOSwl+Xe0/mU73HLmWKAvdvDF278QsV5jdKg/DZon7jBhpPHVsKCLOHwZRwI9fyotSYKxzIPIs2MuJomY32G/b7LWmRW9d4iDtDMKyiDi8xKkBf2ausfy5nbJ/wuES8w4Xct0byxdzFGw4vM7YjPCzaO7r7LynWk/ZoQOFxfH3fwSbhezPWutBdz0RtHmsiVZh9s9eWDRrf0cQ8VbPChHMT+CqrRqoEEiq8Gx4MFy97MXndFB4e5X0dn2AYEj7ga/tsKzocJdOkRz3db2weWuvcBCAedOKwPDMB+bbIsn/VzF34Zs+yFoGRXgipy7Zlwgdh64uI4n2oRNq+DmD44ehx8fMS3Ij1xkRB/9X86TH98EmAVHxCGdAEtZVmogRrpi7qc9NTk+pe2qsnX74OZz5MNIngt7NHpXSJIl3K3bRET08hOGVwtFUXump8yInefNKgo1V2/IMO7oLSG5gi/BUyVecHEbYTQRxDKkf6eMs3ZA8OeEt5yHq2z/gcjPPXt+KESQEQRgdMIO/Uym7foAUdcZbuCVTED3Ce7lZMOC/kP8zNb5Fl+YNqZ+nCA4VPRlyGOd2zDkkd6K+hO32FD63h+KCZq0H4cMC9Hx4X+u6oLl4jEHr+yXx+Gkq4m3dCHrNlZ5+HPGp4GtQO/sHBVrhC82vxjJq8p0VAil9kJl+daBJQAa4BjjnR8BxualwKYUfeElfY5IPK93xWH9E+Mu+LWf9A/JjtheX/7VWUEZBLX7T0Q/h618cOV9EHEJ4uQZ38rs+Ybwsf7npMbsyRRFafW5Dr4Spd5B+8SLVjbg1kr3udDwKKsDkwL5hDih+wtHsHLR8tJrFXhkT63lq7ok4NC0zdxwiK8rJaXHiYmoImHCZZ74a7fYxlGHesc+Hkam4yqPEqYv+IeJgyPWJcWASGEN2wYUlNf+XCjzgOqWHD0rBeLTxVYegHf5kU3Ew+Uw3P9ssfy0TPeY5anFoYhs2B3GpKLS7ZYVjnE0PaPYw6TckmMhK+lYUlGWB8ZqR4U8MjqE59tccMNR5OU0PjQaOTbFOLEsiMYn15IvCi786/UGGNa3RVSRP3/JEUaig7oIYHE7HvwcNjanFqYZix1+c48w6qxSU7DN0+M+TRWqHGeorEF4glZekpCqLqOt8/A8e3dHWXk7A3w2fdutOaDMjHfEPCx5hvaJgwmd7W2THyaetA00Pqu/Ts9kWkXDMlaToUMNrfyeNu5DOEaZHySXY4X+dD+LqWjwHaTg88WONO4XlKnphIWtC614/e9EjEiS5Xz0LBcwf4+AKWnTZVWvwfVCR3O7YW16rGhwX6z0wKsp33zF0yMz6NpNULSxZ89ZxdeiZc592MCWY/6PxxxIu+4+gx7C2u2QsAGW75yEx11hvIMNn3M3p1ewcV+FAi8RJKV2jljwOSK0RRGoLxv1UPgXF+q41KQ6EfWaqVD3QGV8CAc5MiNLkVQV6jCMp73zc27K52zn2gbmDFaVrpuY9fpF8iNwq1UDpB7c1uwX0KPm33unvvxj2IuyqQB4w5dHRXAWj/nfVs8ZriF3+LJKQ0UWSgO/960oTcV/Tkz72OFbjnnCtJ9ByYtY/DbPommyid63DP/pUehxUux9zbiKK8BmFdEIavC5y233fC63uHW+aGxQVfuV/khr17ViP9BLUeCP17d3Tyq932uf6eUhIo+/tP3uCD+UR8ADNyIkamKOKMznlPHfyx5i7UctMVPozS6aSkBCaA+q/8qtlfApr/mi9SFHiKeOcOMaAAeiYiACLQUAc3Hfe9iEdVlbZbrimDKvqyqHkITITt4uM7B5StgwGIoOm7JTQz1J5e3NQ7NCzVz3zJJ9rItaBD95JLD82EkvI765a/qQc2bhhFmaErDyZcuaOwolUl5909BK+5AeXHwVjHRp8yg8Jk0JDweeJGn2+oLkKTCDRp5/JtsNMch8lZKyuXWMhAPq9OnpgfdTMnlnzV0rDBi2yYK/DKq3lBwMTnk8eEA3r37xmKLl235hCmm0MokbS9NoUjwkmQ88PDrPB+57cvvUabj53x3bGYL0rogsl/zB9ttLuPFaHn2A/dIDisvHRfrVTaMqNn6E7NAWHHQe1fFe8xoqHi6dD1W67lc7r4NWnXyxtFm+08aP5WYX4CUo1cZAdm9tdO3rXc8DhvBEs4bMeutsNYETSGh0d6hwFOq8pNRGF/JHi1cOA7wJd6kL2xrh/6/SGYUSKZNa9JO5ftunPXitGijZ6P7nt5dBUwUQDzIdbCk8XunQruqFu+OtmlOmvT1HoI4Q39eKXXw2Ht3YZ9gjx2hYdHfmdr/QLE2u9xCPPuyICtY8QM0dlWPGlvGFEiub7ZMYwSJQfTdnSZpAM0lfuYQPdkZdo2/XHHklYtqXWJExviKSj7F0Vm7/AxPRomVNTV0Beozg8gx2mQ44Jo6Xkc8jiaKZG8k+MM3QAtmSHhyz6FLyncWoisED+ysoRrtbgNnYYdXeqotVfPXg9Tr6lYdj8ShQpXhijdGyne0bHb/7iPHxiGJaFq5eDp+MYSRsOr+31dvN/f7XcSsypR3QytZdH1j49ERDo8Ng7AqdWjIiVj0DSrQ3OAbBowLK3I7GQb5rf0DY0MeSZbJnlhlXsDVLkLIeQWJlscDGFb8bsCp6srm9/5X1ww5/oc0yPdRgk8jU0SC/OqZrUglIenr/g4wL2i1awqu1BWSD9RID8yRVxv9HvC/vN/TeQKtPK+aKgniEjf571LKGXB8QWqRRxxEv4UGqn1jLFjHsafIi24dLw1OeDv9jlplNIWtUIPuags46w869dThp8zTFD4+SRvPVqywd0xdpbHUT7i58zAtlz2oPBJ1egmjA26dq9CCwxt362h7+nntsOBoPA5ybApX2aYdCaMwY7UAMPp0glSzoEWwucfQ0LXX2OEKuhPqaCwUiNp0rDW4EBwth8gB19lKsZZs7mBd913SoZhnfqxbvg0YFwc8BSUD2eycg70/Pgv7hX7dXpdr6u2AOJWwt8xoPSsJp/wjZolSCCR2h09RiWWfSPV4tJh5nEAS/Lford9AjqZFkfsmifr5CGYk1Xoxdai2+eJuBNl1IiX9GYQgMOSbwQnLPCevpvPAf5lUwh+bbjgOSbw/3Q40ixHz/0sVxLpwR4BiM5DBTCk7vUjY2QBtyPTgzgNY4wD3MceHEY9A8FL0VLy4+GeleVjo8EE4lSFz89vw23nqgCQ3jt2pAa5ZU+5Xvg0nH4O+Jp8xWj1WXpSoJLcz65fKWrBqgqfJyJEKsMmAPAZvBiZmu7+DfJMBzgTlFE6wJpBGMv1eDy9teAjCt/pnrkNkn9NK4PweL4fjXRLuTvR8Lj0e+wcwIHaXkZSE5lonq+IKHyOKEMSp6H16zYvChLHhB6+emVJ8D39EBcH+P4J/mEf3sCFj+tpQUcVfm5V0Q5sAs/XykQtHgTj5Mnce9Ti0mHGOIBlHDfveU9vKsA20M6dvtKCjyp8njirx5kVaP07tTJSi0f3/zAc/F6jFpcOM8YBSkTdPSka/Qt5n0z5UQuDpvC5d2ds98bWgrEsgcOkV3CI8XdahKTjo3PA7pq1DkfAFkWH8tvnfd6lQzdddhmawufImhGT2KxamQDvGWx1jbP0Ei3C0/HROSDldP4PiPcB9MStTLR4SgwPG2imcLXeL5hrTgoC5PDZO3zCfwkDjpgOaoKwo1QUfo0vRSTjPH2A7HZ55+f6oIO7VlDIBZiT2SBEbkj7BtTrrUy6ozFAt/B5Jrz1yorwHpZzmgoEVaRwoSKJZNTJg4yqIOnA5HFAV7cfICffVfwBupz7A++G74yd5pPZRuioYWGavlLNAUMtnxPL15xuZ9lbuMe1iYNh4EF86GemVfzTpFoQqcBvqOVzAvma05aROR5jza54CEblmebeWvO2Z/CDxg4YxoM0hWlxHv4XbnvZyBSS0Aq1YeHzHHK33ndAtIm/Q0UwaPDZEj/mDqPk4/VbXI6KwS1j2tcbtlnHNfiUaoUor3kGljusUjrD3X4o4TUF5ef7FGU9xoKOoeGGnwkcOzLyKBVspUYPJxjGlcQEcKrUkxHv0+jlrgqiJUJVl47dh+pdjgXTJeAhppYfoIPb/FGR/TvGgvgcInBdgMCmg1Eev8GChU8AB8qudYdiawKcKlW1EDxPxITCI8cPLNRKn4z4uFp+gEB3QdlNTGbL+I5eICyeO86lbYI2e4rDU7w5nnxSkfbkcvh+PqRFxU/pbXCN/lxUmARHmiIsTiOOB98IXf5SDAHqfugMFgSEKVxHnUHFCv8Gk8H0yQbnLtTgSasIPLhID26Ur0GU6LBU6jxMEz4v8EnjwlfRtXXSwwA9MLwSYFhZg4OGD/HPiOhJkywYbi3j+nr79URhELr+j1IG6SNkhy371MF6NmGCaUx8MFX4nC5PYcUQxedbhxZg/hIOkyVKyDK4MF3udydjIiP0ZoUxnGwvrBgqK8o1qOQ3QOg5etOqwWGI+18cmb5OLS7RYaYLnxPscpTno8H+PxjVNxEFONkbfAwDhw0ioRs6ZJ/ykd+1SSKQIU/uLQtOD0YyRq8hRPm3WPc3IpJHyX/ys/kR4xMUkRDhc1qbv+9yfCkYdWWCaP8pW/9SUeCnjTZgolhJslhNfn7+vli0h/xDCD+cOOgQBVaIL10WwmHhALTwi9HCs39CaPITXy0R4ZJkH3pJmPA5e3gX6XaWTwXjKsyaCOple/O2J9uL+cJuULIblWI31iL7ccemlJKpUCELz5nIj1vE8ntXVNQCfLYlB0NWXEtgvTQG4EBrI/De4fDMWRIIS8Y9ocIPFAC+Zi5A6/kLKkCfQFj63swBjPnb4ONkHDeYTTZPklLDeXfW0SbC5Qt5MdkFtCo+tHYcqyGPSjnZQ1IheM6XpLT8UAFgMngpbNCfQi9QEBr+c3rmrV0k5G6+RZ7Kcidd+LywfPbsOXbwXoWw+1EJ4tsXSCX3jOKGMQsY/mdsZS+MZTJqFJ0WfEqEHyCKnwj2+lgpJlhjMSeIegYtkKZN3ptn88+LHbLm2LdMO2iVMqRU+AEmNLsNozPQC0zAyoDPvNvFBeY2YGxfbJOk+dH856WqsJYQfqDwzVugTdPQE0xCT6DbfXggvVXu0DccBS2LssSMh3Kqpu+zCl3hdFhK+AHi+Ldk6pvkG6DB+wPW3sMC4Va/g5kfEoEu7ip1Wdm96q5jbYBea5PIvyrhleXx6AngmCA+PXpiSkq+Qb6vwhBlMQxRPInBkZhcLdny1YrarC2cdy5hyihUglHQ1g1PyUoBkzccQ/4bFslrYc24tq0JPJS3bUb4oUTzZ/9yseHQUDgiGIUKMRTzBDuCc8xeNWDCVovK9hm+R7MZPgc/O13surktdOnh/FJ7b7PCVysMrxA1TYf6w0uVHZXAjq2F3tDjd4YuqzMqB+7M/4yWewoECk/WpB5zihNQupxAfkcxx8A+AK2Dzr8Oaeo62ISdfbYVHVbD1R7C/gnFPAioGAFJEQAAAABJRU5ErkJggg==" parent="1" vertex="1">
          <mxGeometry x="523.75" y="335" width="50" height="50" as="geometry" />
        </mxCell>
        <mxCell id="1P9C8POOOEaXLPvc4yLv-3" value="" style="shape=image;verticalLabelPosition=bottom;verticalAlign=top;imageAspect=0;aspect=fixed;image=data:image/png,iVBORw0KGgoAAAANSUhEUgAAAHAAAACACAYAAADTcu1SAAAAAXNSR0IArs4c6QAAEBpJREFUeAHtnQl0FEUax6t6JiQEUBCFsOgmqGQi+ECE9cQDCazy1t23q7Ku7hM8CKCoJBguE8hFBPKEIEcAF1lWn7visftcV12SgAerb128QIQJxIASjighJJNzurv23xMakjDJdCZ9VE+m35tXPdXVVV99v676qutqSkLwGL5jeUyT2LCEMnY1oY45JRPSdoZgNn1ZoqGUseF7t/ZoOup+mhKWzhjro+YNmXydRgrz3Lell6l+oeKGDMCE4sy7JZmuJIxd4R8ObaQCy+/Xu1/uf294qtp/GPv52h7gsO1Zw0WJ5KPEJWpUfwUVaPrI8QmbXqeTJY33cBvMtgCHf7LiItHjWcwoe5wx4uyshimlewilKSWJ6UWdvZen8LYDeB/b6vi6eP90IrNsRshFXVcm/afgpKnuO9LdXY/L/BhsBTB+W+Z4QMuHmq7WU1WUEpFRsrZHdJ+svTelVOoZt9Fx2QLg1cXZVzRJLI8R9lsjFUIJPcUEknFB34EFn4+Z7jUyLb3i5hqga+eyPqyuYQEjNIUQFqlXpgPFgxJZIlBhzv7E9HcChbX6OpcA0aKkruIlDxEmLUUDJcYqJaGhUyQQkrJ/wqI9VskQKF3uACYUZd0oM7IKEH8RSHhzrlMJJXJTVHTP9N03p1aYk6b2VLgBGF+cM5hI8lI0Jh7Eyzg3cqmqRGmsoYwuuXzIhfnvDX2qUfW32rVcUbfv2BxVLh6Zg35L2DrWy2qFBEofDZ0ydNXNc09c/HqgsGZctxRgQmHmPTKhz6O6jDUjs3qmgWp1J2WOZPfEtF16xtvZuCwBGL89aySTyCpUlbd1VmCuwlNUqoS8TARhYcn4tHIrZDMV4KiPci+pa/Bmy4RMQ2bRwAuZo45SYXmffgPy8P5YZ2auTAE4eteGCM+pE08AXAZK3YVmZtDMtNDQKSdMWOCe8OwrOEenkfGH4QBdRdl3wsYpowUu47PDRwqwj7CLjmQzBpINA+janu1iElsBcJP4UKv5UkC5hg8k6w5wdOHSC2tY0yJCyZOAF2G+2nhL0diBZN0AZjAmvFqU8yigLUG/5SW8qZEDeQwZSNYF4NDinFupJK2C1b6GA0VxLQIaN7oOJHcJ4FXFObGSLC9HqZvMtdZ4FI7SdwQHfaarA8lBAcRrQXR15fH5sHOphJEoHvVjB5lQGr2YErKuKwPJnQaYUJj1gMTYMijoUjsoyQ4yAkIlE2hmMAPJmgG6tuWMYcRn526yg1LsKCNKpFug9JnODCQHBNg8y7k+lxA6lcdhHjuCCiQzQGoeSG4XoDLLWSx3J6OOfhaNlLOznAMl3u2uU/I92gE/1z/f2gaS/QJ0FWb+RhnmQYlrZ5az/uLaLkZKvhUomYX5OqOYzJ43UP5qgQi57Q0ktxoRUGY5xxdmFWJKwz/C8PwjQT+nBxOCUy/oF3ONO3HxDv+hdPW9QCby0tKyqn2ubZn3tY3ZN6NZmeXsrfVkihKbEcws57aRhup/wHuNsqiUkonzjpqdR8xWGIKOkq3xhZmtBpKd8YXZyV5PTRou6jDL2exsmZTemerSpBLXYaZQwMYyKn829P2Mv9djXFVgTM7BsHJVh3d104vN1aUw18TqUpOmWZPX462o/F3k9xUJShUajVbU5XArIDCAkos1xRLigZTqkgiOOQcsmirhV72y7BEra6LlmtrmtwLqaLWqZwDgEUbpYYGwGJybNhPar7AWeeIdbB+Wn81yj0/fbpEI/pJtkE7VEOm0pzcal62un7csC9P7YhFERkYO4/0vtlXoEP6jVJfIc3bvvgNXcrQuQpI9dTVSZU1fJvlfyngewDOMUJX64GGyDvEA+oAQZoe3AroVM8tS3BxVl3JD04/SyapLWJPYtyPdtwdQvSca8KIB8SQmJPXENJ1o9UIouOjF2I98zCqZsKiYl/wwUa6QfjrVX65v1DQoHgigL1+A2F/pssGs5GNoscaESp9o1MDoMbtHptZyAY+xSvGn6kjZU9up2q5VT0ygjOBlchDgoZ1DuVvkEUh2f9cHR0eK/vxN9quVqzwV3sPHLwK8Ti8t0FQC22RIsY8DQLEOpVIC0HBHdxsFafmLQuCVPPVHxZNVsVjU02lwahrBAPTdi9aqzx6ixVqFqhUQmUONNOx2rAG8iJeKFVWxstfb5VZ+0ABVEVEK0UpCnzyllSiZ4e44VTH+XEk+JP5U1U+ua9BtlKfLAFU5m+FRiVBWB57halVVDFzUVsfFymqvVF0b18Jbl1PdADZLg2pUgUdpPUqmA1B76CKlbSNh1dLp2iPyqZph0IUhudAZ4BkZGevpExerWrtjI8fXQKmv3y1VVI1gkjzMEHJnIjUGoCrxuRaqB169Ve9QdpkofYGRgljW6B1tRj6NBXguB+iEJZilQbH3innbhZxL3vgzJsvfyj9W9ZDqGq41PrVzKZgFUOnGQaeBAo824rxHqPTmoKTVoXHyGX7XnVOreWed6onRRyxAbN6FAgPKnTwoLXVQci9Kcr5iZzp5tyHBm8p/irYKnpIhCwCe1WPP5jOUyICHskSLZg12Xnb1/gmL3zwwYVFyhDNiGCC+FfDWEA9gXhXariJ9NlGxj+hq9dObQ+m/ezgjZu0dt+BgSYs4lP/4e098Yc5Y7Oj0PFq9llRhLUSy5JQDgL58YxKA78VDqRZ9i0JRusrxm+1OTH+jI80oy5jxjnVDfOGS+ymVn8N5bEfhQ+2alVWoP10q8LC1FX03wtk/IRA8NQKEZwcmpv31Z87LEjAJdj78q9Vroe7yUgKb9UzppwJ1zHAnPrs7GMV/MO7hBty3DNuZvFTbKGag1ZuEgs1XHoPJWAf3cJE5dLtVEirMdyem/UkpTR3Iq+nSl7cu/BEBn4jfkbuaiGIequdfabrRhoEsr0IBb0uvqIiEkgnpL+oBryWDknEL96PFercgkDvQSPqy5bVQObcWIN7nSiYunnqmxBimU2VG9YOJ6WOo4JiKh6TcsIQsiNhSgEhc6SM15chAE7UkMW1Ln34D4wVBWKTMtjMlYYMTsRSgwXnzG72ylxlat9kRzp5Dr7/ySS56c/wKqtGz2wFU9bJ33NzjSqlU/9vV7bYA7QqsrdxhgG01YrP/YYA2A9ZW3DDAthqx2f8wQJsBaytuGGBbjdjsv+0BKts520znuopre4DVlSfeiS/Kelz5LJ2umrFJZLYHiGnPF2OjnbVfFe3bje9Q/NJ0vVv8lRkuhpN0UTojw7AI+X1sVPQucTrnKCMRusTbTiSjN2yIOEm+nIUxx/Quj3+1k4YWb/uXwDa5xJSKSUT07nFty1qlbGDU5rIuf2NfnD4J8PZgEs8KwLP0MwohB1AhpIzCy4Q91VBZ+VrsxhmPACqGHbt+DNk00xW3cca7mKL8L8Dj4jMKIQnwHCqqzEHdNOTFmR9e+dL0oNcoxG2e3RfgVmD9+h48DHedi9/6sxAH2KxgKP0W0Uu+its4M/fGrcln5qMGVn4GyxDiNsyYTrwNJYgjGdUld68s3QKggkpRPrYVW3C0qm5v7MaZAUsRYN/2543Hv0BVuR7wNO0YEfiR0D9E6LRCteqGkSHYx+hd2MY3ohzOp92Prmm182Dc5hlxzEvyAPterVFaGa77AVS1zdi9jaI4EVVk+tSkmDVvvezpebqhZj7xsmdQXG2zE3/3BQiQqB4vgLMKVeVUVLHK/iyD4drq6NYAVVIAOUo9t5vbbRoxdgOjVd4wQK2a4jRcGCCnYLSKFQaoVVOchgsD5BSMVrHCALVqitNwYYCcgtEqVhigVk1xGi4MkFMwWsWybU/MiK/zejX8WJfJZDrSN9agNcchFs6WAF1F2Xc2nKgrQL9lXHeGpzyLtgI44j95A+rr6lfKsvxAiBWkoLNjGxvoKsx+uKG2bh+mSIThtcDNfQm8alv2UImyDTKTx7WQO3x6RgPcAlSmzNdUnkgVqZxupwFWs58sfEWUbMEWHFyNYw7dnnV9zakTn2OcbkkYnv9HArttfCzTiFKnss0HPjG+Bvux5kNhN/sPbo6va+eyPqy+MZeJ7HE8Ubaxz+ZopzkVgDuMQje3LGn9VsXHpyT3xLRdJRMXjcWWjn9QApgpkJqWa1v2r7Ed/7eYAYbp6mF4ql7OupTUClRIJxExCSo85Rpgtj5u37E56ph0JBULRuahRAb9RZHWsfr/h4/e5wiRjnVio7Qarct7/IcK3lduEj8WyytuCT4GDu6kMCKEvoIZdPPbzqBTpDsPoCryVR8tGSQ1iM/hEzsPQbnthlPDB+OitP8P0sUjfkPWF9gdIJT+KXXQ2WWPrf+sPf0GBAP7OIYH+9heBjryty1ASo44CJ1fOq3gVTzkHTYwAwJUFYRFlPejMC+FjYpV/Xh37QcQH0yhNK8/G7js8+kZdVr0qxmgEpliH8vFH55BtTwPK4B6a0nAyjB2Aghwf3M4hbmlj6z7oTM66xRANWIz7KOaVldcmwDc5aSOp0uT1n0STF6DAqgmlLA9a7QssXyUxrGqH08u5wCPodQtLJtWsAVuh3auI512CaAacXxRzu8Jk5fxZh95BIhvLeLDJ3RFr740d+/kdV3e8lIXgArIZvt4ZA4l8nxe7CN3ACl9M4o6U93T1pSpD39XXd0AqoLwZB95AYjNZb9C59LsQ0kFH6p60svVHaAqGA/20WqAqC4rAC9tyrSYTRk0w5C9SQ0DqIJ0FWZNhm1cBisdp/qZ5VoFENCaGBFeiIh2Zh/842pDv2FhOEAFllX20QqAaFG+7RCEOaWPrVM+DWT4YQpANRfN9lHKRc/qFKP6V9W0FNdcgPQbB6XJ3yUVFLWUwehzUwGqmbmqeMm1kizh/ZEZOlJgDkB6Ett9Lbqu7/gNr0+ejM2izD0sAahm0Wj7aCxAKsLWre3Ti2buebDglJons11LASqZVezjUe8PKXiKF+j9/mgUQNi59whzphyavsbQ/di0PAyWA1SFHL5jeUyTWJ+LEY8p8NNlOoXeAKGs/YwKKYeTCt5T5bba5Qagqgg97aN+AOkpdFdmxg0dtPaDcRmiKisPLncAVaW4tmXeh3fH5V15f+wyQEokgdANkZGORfunrD2pysaTyy1ARUl3HXghsvTw6RR0lC8Mxj52CSClRU6BJJc+tv4bnoC1lYVrgKqwwdrHoABSehClbk5ZUsHbavo8u7YAqCrQZx8lcSWq1VtVv47czgBEv2U17Fx2dN9BL+ydnNHUUbw8XbMVQFVxWF52L6Y9wj6yIaqfP1cbQHwAi5JNziiSVvrQ+gp/8fDsZ0uAikLP2Ufl/ZH18afkQADxPvdh8zDPOgz32POwLUBV3c32sQFrKNhU+LV6f2wXICVlmLaX+l3S+jfVeOzq2h6gqvhhhVmjRIb5OS3s4/kAqQd2Ltd5aY8VByetblTvtbMbMgBVCC3t41mAmAeJRsqWnixq4b7p+cfUsKHghhxABYrPPh6qSpbrG+/wHj/Zy4Gdeb97dM2uUADWrfIw4i95hi7O4UGZ/wfID4pMzOvIXwAAAABJRU5ErkJggg==" parent="1" vertex="1">
          <mxGeometry x="583.75" y="330" width="52.5" height="60" as="geometry" />
        </mxCell>
        <mxCell id="1P9C8POOOEaXLPvc4yLv-4" value="" style="shape=image;verticalLabelPosition=bottom;verticalAlign=top;imageAspect=0;image=data:image/png,iVBORw0KGgoAAAANSUhEUgAAAH8AAAB7CAYAAABdLF8FAAAAAXNSR0IArs4c6QAAGc5JREFUeAHtXQlgFFWarveqOokcBlEYBhEIJOnuBHAUQVFRYOfQ9VhHV0SQEcYDvFiXQSAQxuySA8RrvRAPEBQcYVwWFXRVJDooHuABJt0dkEwQ5BgQkSNHd9Wb73XottOp7qrqru6uxC7oVNV7/3v///7/nf/7319EaCcXY4zUFpT1bmTMjiLhR/FjvfE7VRBIZ4R1wq8zE1hnwoQOjAgNRCD1jAknCBHqAXcUWezGcx3g/D+JijtzSf8qUjW6CWHt7iJttUS1hQ/0aJCbRkKQo5ggDEU58iDYU8wuDypIIyrGVtw/w30zyRA32bfNcpuNJxX5tRnhfzd4UYcjxw9dBgGMYkwZBWY5U8EwjhMVoRZ/1hKRrc3s1qsyp3JiQ6poiQevpYXPShj1rCodwWTyB7Tq6wTm77rjKa/5aQmGDUbWEokttl9f/DYpIYr5SBKToyWF77bPtzPinYDxeBxa+lmJKbr5uYKZuxklL0iSuCR/W9FO8zGYm6OlhF/tLDuXMGW2wMjv0dItRZsRtmNYYPi/mhFaVuCa/bmRtMmEtQSD3YXlFyk+CF1glyez8MnBRd6kEi1zVM36MDn49GNJqfCbWzp7CMu0EfpJbpuQhJC3Rcl2b/7XM1xWKUFKhF/7q0e6NDScKBWYcgeWadQqzEg4HUTwgeGPS9nZJXmfTPkx4fg0ECRd+B5n6XiZCQsExn6hQVv7jSZkPxg/w+kuXprKQiZN+O5Bc3NYk7AEM/hLU1lga+Ema8ROWbfat0w7mAq6kiJ8l6P8Wsbk51HALqkopKVxEmEfFYWJjqo5byWbzoQKnxWuzHDL2x+ERu6eZBYMS616LBT3oHC7MZmEvp7sZoTtpoq4n+CPwoQs6OkyBUHJJIzimWUivivCCjEcFWAe0iuZ9HJchNBpTvfsh5KJV0oUspqBFf3cXs9KdPODE4UjkO9JdWslJcIGURQqc78u/jYQF8v9m8HzspuOKwWoEIWoIAP8+wdMGBhLXnrSoHIehfhf1wNrJkxCWr7LUXohWs8baEWnmUlsMC8ifA/C38BCYQOa7oZ+ruK6YFyCHnhllr3yNajMvycC4+UzbZVCRXqDo3r2ygSRHjFb04WP8f1KLOFWmr7DRogXuv116B6XOcTcN1K5zbpj0ILuPm/DVUwhY1FOvskU84VW/wRm/UkdFgPEmip8l6NsAhOUZyEk04YTdOlHGGXP2GwZj+VtnbE7QLhV7m576XkYHopiU0mTT51S/vBUVWTThO92lk5XFDbfNKEQ4RgRaDlh0hMOzwyMida+agbMd8o+7wz0BON0VX4MXVmEnJuMISsS50wRvumCF4SXqJAxA0L/LhLhVg3f6Szt08iEWagAt0XanOIbP9j9uwqbPmtTWY64he/v6pmyxIxCYPzjO2D3YAz8yIz8UpmHp6B8uKwoizHpzQ2nA6ZiFU73nFnh4cl+j2vGyid3/jE+Tqoh9ENgyO2OMbOHtAfBc3bYq2f9rfNpHQahXI+ghQUNPFDWSsdA+5w4WWZK8phbPl/OoWt7N95ZPQj4TMrMuNaKkzlTOIxM/LwS2GIsD7NPETPPyamavs+svOPJJybh8zWvzytvjn8dT5639Tv1rrw3p8BIsn1ftSOWZDUd2tvXSsafhoXfrLL1fBSX5o4ITUA8BePeovYtcmuXzvB6vFlXH7vKFmPgd4yQ65yu4o+tzZr2T52hln9yd+7VWNnCdfBSpu2S9jy+x8qbVKTTLXy+H680CnwpFtO2LAS/h2Sy4Y6tc2pTUdD2hLPGWXoJDGJux27kSEy6MzCR/AdWEWukDNuTRhqWbuFXO0rfxwTvkliYCCQHaIZ4qZUmO7GUI9Vp+JE0j6PsCUVgd0ag5QeRihPtrln/FyG+RbCudT43vYpV8NioPkwl22/Tgm/B95heoFCbF0XwPM8uiqL8xVNYMUQPAk3hc2NLv82dntzCYNAVHZUovdxeNfOrsKj0q0EObB8wtz+2kqdpJYPeJVPx+Z7VguPxmsJvtrKN2dhyYn71rE/0EJKGic4Br5fcjrFdU148F8CdzXcbo+eokRm3q+fm1VqZqMWj1T8LVW3MKwO1PH/OYYSwAiPlhxkbrJCiX1FrEo5OPay3toWiwczend2x272hYennuDnQ2UgOMD07RQs+ovD5EaqYzKyhvZNEcWzPLZNOaCFPx+vnABRjBk/6EI9W7hGF33x2Tit563i0+qK86qIvWsekQ+LhACwAVutNz5fWmb/suUkLXlX4/rE+hkOT/u1K1+xHtJCm441zAPsgb3P+6kkJQ5H/0uMwQlX4/mPSerCEwWCcuQ8EYpqQvhLBgU5ih+uwN7ItWt4wcH2ywFX8VDSYQFwr4XPHCNwYMQCg9w6hv+rwFG/WC5+GM86Bs6qmfn9aRtYwCG0uhtcjLXIgwheQwVgc/Li7RXiUl1a7es0eMYw5RgAhMrXR4ih40lEmcaDH1vuOI6s/sxJW4nqlvEAipKPElH2xGIK20O0jQ+p6uezvUBMYc4VCyWJ0NbeYVL50NkniQIuWz50fAa8hwaPVN9pEoSRJ9KbRmMiBFmM+93plNG90Hc/HezbOKM40vDkcCAqf+7nDpsB1RrNlRFxsNE0a3hocCArf7+DQuJ87l9NdtMUaRUlTYZQDQeFjkjfKaGKsKV80miYNbx0OBCd8J12a6qYMEz2WIYrLdSdIA+rmALfzhzr3Mvjx647zHidwX2/r2/ldvSbu3L+A95h8NyMK/BmSfmjYjZAXdwX3cOihGP9Sjzsxrvc17tVNHQChaXofKscRRtKkYaNz4JvCeb2bZN9zMNf6TTgkhLeTSsLN9qrijeFxoe9+30eNZD3mbzmh4YFnKIJedgzMH09WjZb93T73Xh2I1HuH8NNdvl5m6YDbfk55tyafr1JN8Dw5hNlPloX3PIWlF0fKbvug+b3g9GpjJMH782HsRve2Gr+lj7/b97sdiZRjhHDGpPURoiwV/FzhLV19R+uvxGG5f0U5eWvoiR/3w7MP26TfoRJvlKi05rbaZVtTSbivXn4amyKqrTVIF2M2VIBVOP2To7Zx4/U2TUMt4eWLeqGCTfQ4y/9KOJTLXvoVasugqClCIpHogNMzx9J+9Bb3n3hWo7dhLphxE5gqhpAf6XErpaRoct2KdZEAEhXe3FULO0BnyAQ8Mja4cRkPNy4vhUJsP/+xU71HjuxBeflHJTQvDCOrKDcHBmSeJnQoABE+DX212vPCPuP+1OhtrIExys06Bc+LMAjOJdYu7H3j24vybzwjqWXy0Yv0Cp7TxRQ2PJw+35Fj8CSmT/D+tEQ4m/JPk6DVa5r8hCLD7NOSwl+Xe0/mU73HLmWKAvdvDF278QsV5jdKg/DZon7jBhpPHVsKCLOHwZRwI9fyotSYKxzIPIs2MuJomY32G/b7LWmRW9d4iDtDMKyiDi8xKkBf2ausfy5nbJ/wuES8w4Xct0byxdzFGw4vM7YjPCzaO7r7LynWk/ZoQOFxfH3fwSbhezPWutBdz0RtHmsiVZh9s9eWDRrf0cQ8VbPChHMT+CqrRqoEEiq8Gx4MFy97MXndFB4e5X0dn2AYEj7ga/tsKzocJdOkRz3db2weWuvcBCAedOKwPDMB+bbIsn/VzF34Zs+yFoGRXgipy7Zlwgdh64uI4n2oRNq+DmD44ehx8fMS3Ij1xkRB/9X86TH98EmAVHxCGdAEtZVmogRrpi7qc9NTk+pe2qsnX74OZz5MNIngt7NHpXSJIl3K3bRET08hOGVwtFUXump8yInefNKgo1V2/IMO7oLSG5gi/BUyVecHEbYTQRxDKkf6eMs3ZA8OeEt5yHq2z/gcjPPXt+KESQEQRgdMIO/Uym7foAUdcZbuCVTED3Ce7lZMOC/kP8zNb5Fl+YNqZ+nCA4VPRlyGOd2zDkkd6K+hO32FD63h+KCZq0H4cMC9Hx4X+u6oLl4jEHr+yXx+Gkq4m3dCHrNlZ5+HPGp4GtQO/sHBVrhC82vxjJq8p0VAil9kJl+daBJQAa4BjjnR8BxualwKYUfeElfY5IPK93xWH9E+Mu+LWf9A/JjtheX/7VWUEZBLX7T0Q/h618cOV9EHEJ4uQZ38rs+Ybwsf7npMbsyRRFafW5Dr4Spd5B+8SLVjbg1kr3udDwKKsDkwL5hDih+wtHsHLR8tJrFXhkT63lq7ok4NC0zdxwiK8rJaXHiYmoImHCZZ74a7fYxlGHesc+Hkam4yqPEqYv+IeJgyPWJcWASGEN2wYUlNf+XCjzgOqWHD0rBeLTxVYegHf5kU3Ew+Uw3P9ssfy0TPeY5anFoYhs2B3GpKLS7ZYVjnE0PaPYw6TckmMhK+lYUlGWB8ZqR4U8MjqE59tccMNR5OU0PjQaOTbFOLEsiMYn15IvCi786/UGGNa3RVSRP3/JEUaig7oIYHE7HvwcNjanFqYZix1+c48w6qxSU7DN0+M+TRWqHGeorEF4glZekpCqLqOt8/A8e3dHWXk7A3w2fdutOaDMjHfEPCx5hvaJgwmd7W2THyaetA00Pqu/Ts9kWkXDMlaToUMNrfyeNu5DOEaZHySXY4X+dD+LqWjwHaTg88WONO4XlKnphIWtC614/e9EjEiS5Xz0LBcwf4+AKWnTZVWvwfVCR3O7YW16rGhwX6z0wKsp33zF0yMz6NpNULSxZ89ZxdeiZc592MCWY/6PxxxIu+4+gx7C2u2QsAGW75yEx11hvIMNn3M3p1ewcV+FAi8RJKV2jljwOSK0RRGoLxv1UPgXF+q41KQ6EfWaqVD3QGV8CAc5MiNLkVQV6jCMp73zc27K52zn2gbmDFaVrpuY9fpF8iNwq1UDpB7c1uwX0KPm33unvvxj2IuyqQB4w5dHRXAWj/nfVs8ZriF3+LJKQ0UWSgO/960oTcV/Tkz72OFbjnnCtJ9ByYtY/DbPommyid63DP/pUehxUux9zbiKK8BmFdEIavC5y233fC63uHW+aGxQVfuV/khr17ViP9BLUeCP17d3Tyq932uf6eUhIo+/tP3uCD+UR8ADNyIkamKOKMznlPHfyx5i7UctMVPozS6aSkBCaA+q/8qtlfApr/mi9SFHiKeOcOMaAAeiYiACLQUAc3Hfe9iEdVlbZbrimDKvqyqHkITITt4uM7B5StgwGIoOm7JTQz1J5e3NQ7NCzVz3zJJ9rItaBD95JLD82EkvI765a/qQc2bhhFmaErDyZcuaOwolUl5909BK+5AeXHwVjHRp8yg8Jk0JDweeJGn2+oLkKTCDRp5/JtsNMch8lZKyuXWMhAPq9OnpgfdTMnlnzV0rDBi2yYK/DKq3lBwMTnk8eEA3r37xmKLl235hCmm0MokbS9NoUjwkmQ88PDrPB+57cvvUabj53x3bGYL0rogsl/zB9ttLuPFaHn2A/dIDisvHRfrVTaMqNn6E7NAWHHQe1fFe8xoqHi6dD1W67lc7r4NWnXyxtFm+08aP5WYX4CUo1cZAdm9tdO3rXc8DhvBEs4bMeutsNYETSGh0d6hwFOq8pNRGF/JHi1cOA7wJd6kL2xrh/6/SGYUSKZNa9JO5ftunPXitGijZ6P7nt5dBUwUQDzIdbCk8XunQruqFu+OtmlOmvT1HoI4Q39eKXXw2Ht3YZ9gjx2hYdHfmdr/QLE2u9xCPPuyICtY8QM0dlWPGlvGFEiub7ZMYwSJQfTdnSZpAM0lfuYQPdkZdo2/XHHklYtqXWJExviKSj7F0Vm7/AxPRomVNTV0Beozg8gx2mQ44Jo6Xkc8jiaKZG8k+MM3QAtmSHhyz6FLyncWoisED+ysoRrtbgNnYYdXeqotVfPXg9Tr6lYdj8ShQpXhijdGyne0bHb/7iPHxiGJaFq5eDp+MYSRsOr+31dvN/f7XcSsypR3QytZdH1j49ERDo8Ng7AqdWjIiVj0DSrQ3OAbBowLK3I7GQb5rf0DY0MeSZbJnlhlXsDVLkLIeQWJlscDGFb8bsCp6srm9/5X1ww5/oc0yPdRgk8jU0SC/OqZrUglIenr/g4wL2i1awqu1BWSD9RID8yRVxv9HvC/vN/TeQKtPK+aKgniEjf571LKGXB8QWqRRxxEv4UGqn1jLFjHsafIi24dLw1OeDv9jlplNIWtUIPuags46w869dThp8zTFD4+SRvPVqywd0xdpbHUT7i58zAtlz2oPBJ1egmjA26dq9CCwxt362h7+nntsOBoPA5ybApX2aYdCaMwY7UAMPp0glSzoEWwucfQ0LXX2OEKuhPqaCwUiNp0rDW4EBwth8gB19lKsZZs7mBd913SoZhnfqxbvg0YFwc8BSUD2eycg70/Pgv7hX7dXpdr6u2AOJWwt8xoPSsJp/wjZolSCCR2h09RiWWfSPV4tJh5nEAS/Lford9AjqZFkfsmifr5CGYk1Xoxdai2+eJuBNl1IiX9GYQgMOSbwQnLPCevpvPAf5lUwh+bbjgOSbw/3Q40ixHz/0sVxLpwR4BiM5DBTCk7vUjY2QBtyPTgzgNY4wD3MceHEY9A8FL0VLy4+GeleVjo8EE4lSFz89vw23nqgCQ3jt2pAa5ZU+5Xvg0nH4O+Jp8xWj1WXpSoJLcz65fKWrBqgqfJyJEKsMmAPAZvBiZmu7+DfJMBzgTlFE6wJpBGMv1eDy9teAjCt/pnrkNkn9NK4PweL4fjXRLuTvR8Lj0e+wcwIHaXkZSE5lonq+IKHyOKEMSp6H16zYvChLHhB6+emVJ8D39EBcH+P4J/mEf3sCFj+tpQUcVfm5V0Q5sAs/XykQtHgTj5Mnce9Ti0mHGOIBlHDfveU9vKsA20M6dvtKCjyp8njirx5kVaP07tTJSi0f3/zAc/F6jFpcOM8YBSkTdPSka/Qt5n0z5UQuDpvC5d2ds98bWgrEsgcOkV3CI8XdahKTjo3PA7pq1DkfAFkWH8tvnfd6lQzdddhmawufImhGT2KxamQDvGWx1jbP0Ei3C0/HROSDldP4PiPcB9MStTLR4SgwPG2imcLXeL5hrTgoC5PDZO3zCfwkDjpgOaoKwo1QUfo0vRSTjPH2A7HZ55+f6oIO7VlDIBZiT2SBEbkj7BtTrrUy6ozFAt/B5Jrz1yorwHpZzmgoEVaRwoSKJZNTJg4yqIOnA5HFAV7cfICffVfwBupz7A++G74yd5pPZRuioYWGavlLNAUMtnxPL15xuZ9lbuMe1iYNh4EF86GemVfzTpFoQqcBvqOVzAvma05aROR5jza54CEblmebeWvO2Z/CDxg4YxoM0hWlxHv4XbnvZyBSS0Aq1YeHzHHK33ndAtIm/Q0UwaPDZEj/mDqPk4/VbXI6KwS1j2tcbtlnHNfiUaoUor3kGljusUjrD3X4o4TUF5ef7FGU9xoKOoeGGnwkcOzLyKBVspUYPJxjGlcQEcKrUkxHv0+jlrgqiJUJVl47dh+pdjgXTJeAhppYfoIPb/FGR/TvGgvgcInBdgMCmg1Eev8GChU8AB8qudYdiawKcKlW1EDxPxITCI8cPLNRKn4z4uFp+gEB3QdlNTGbL+I5eICyeO86lbYI2e4rDU7w5nnxSkfbkcvh+PqRFxU/pbXCN/lxUmARHmiIsTiOOB98IXf5SDAHqfugMFgSEKVxHnUHFCv8Gk8H0yQbnLtTgSasIPLhID26Ur0GU6LBU6jxMEz4v8EnjwlfRtXXSwwA9MLwSYFhZg4OGD/HPiOhJkywYbi3j+nr79URhELr+j1IG6SNkhy371MF6NmGCaUx8MFX4nC5PYcUQxedbhxZg/hIOkyVKyDK4MF3udydjIiP0ZoUxnGwvrBgqK8o1qOQ3QOg5etOqwWGI+18cmb5OLS7RYaYLnxPscpTno8H+PxjVNxEFONkbfAwDhw0ioRs6ZJ/ykd+1SSKQIU/uLQtOD0YyRq8hRPm3WPc3IpJHyX/ys/kR4xMUkRDhc1qbv+9yfCkYdWWCaP8pW/9SUeCnjTZgolhJslhNfn7+vli0h/xDCD+cOOgQBVaIL10WwmHhALTwi9HCs39CaPITXy0R4ZJkH3pJmPA5e3gX6XaWTwXjKsyaCOple/O2J9uL+cJuULIblWI31iL7ccemlJKpUCELz5nIj1vE8ntXVNQCfLYlB0NWXEtgvTQG4EBrI/De4fDMWRIIS8Y9ocIPFAC+Zi5A6/kLKkCfQFj63swBjPnb4ONkHDeYTTZPklLDeXfW0SbC5Qt5MdkFtCo+tHYcqyGPSjnZQ1IheM6XpLT8UAFgMngpbNCfQi9QEBr+c3rmrV0k5G6+RZ7Kcidd+LywfPbsOXbwXoWw+1EJ4tsXSCX3jOKGMQsY/mdsZS+MZTJqFJ0WfEqEHyCKnwj2+lgpJlhjMSeIegYtkKZN3ptn88+LHbLm2LdMO2iVMqRU+AEmNLsNozPQC0zAyoDPvNvFBeY2YGxfbJOk+dH856WqsJYQfqDwzVugTdPQE0xCT6DbfXggvVXu0DccBS2LssSMh3Kqpu+zCl3hdFhK+AHi+Ldk6pvkG6DB+wPW3sMC4Va/g5kfEoEu7ip1Wdm96q5jbYBea5PIvyrhleXx6AngmCA+PXpiSkq+Qb6vwhBlMQxRPInBkZhcLdny1YrarC2cdy5hyihUglHQ1g1PyUoBkzccQ/4bFslrYc24tq0JPJS3bUb4oUTzZ/9yseHQUDgiGIUKMRTzBDuCc8xeNWDCVovK9hm+R7MZPgc/O13surktdOnh/FJ7b7PCVysMrxA1TYf6w0uVHZXAjq2F3tDjd4YuqzMqB+7M/4yWewoECk/WpB5zihNQupxAfkcxx8A+AK2Dzr8Oaeo62ISdfbYVHVbD1R7C/gnFPAioGAFJEQAAAABJRU5ErkJggg==" parent="1" vertex="1">
          <mxGeometry x="863.75" y="335" width="50" height="50" as="geometry" />
        </mxCell>
        <mxCell id="1P9C8POOOEaXLPvc4yLv-5" value="" style="shape=image;verticalLabelPosition=bottom;verticalAlign=top;imageAspect=0;aspect=fixed;image=data:image/png,iVBORw0KGgoAAAANSUhEUgAAAHAAAACACAYAAADTcu1SAAAAAXNSR0IArs4c6QAAEBpJREFUeAHtnQl0FEUax6t6JiQEUBCFsOgmqGQi+ECE9cQDCazy1t23q7Ku7hM8CKCoJBguE8hFBPKEIEcAF1lWn7visftcV12SgAerb128QIQJxIASjighJJNzurv23xMakjDJdCZ9VE+m35tXPdXVVV99v676qutqSkLwGL5jeUyT2LCEMnY1oY45JRPSdoZgNn1ZoqGUseF7t/ZoOup+mhKWzhjro+YNmXydRgrz3Lell6l+oeKGDMCE4sy7JZmuJIxd4R8ObaQCy+/Xu1/uf294qtp/GPv52h7gsO1Zw0WJ5KPEJWpUfwUVaPrI8QmbXqeTJY33cBvMtgCHf7LiItHjWcwoe5wx4uyshimlewilKSWJ6UWdvZen8LYDeB/b6vi6eP90IrNsRshFXVcm/afgpKnuO9LdXY/L/BhsBTB+W+Z4QMuHmq7WU1WUEpFRsrZHdJ+svTelVOoZt9Fx2QLg1cXZVzRJLI8R9lsjFUIJPcUEknFB34EFn4+Z7jUyLb3i5hqga+eyPqyuYQEjNIUQFqlXpgPFgxJZIlBhzv7E9HcChbX6OpcA0aKkruIlDxEmLUUDJcYqJaGhUyQQkrJ/wqI9VskQKF3uACYUZd0oM7IKEH8RSHhzrlMJJXJTVHTP9N03p1aYk6b2VLgBGF+cM5hI8lI0Jh7Eyzg3cqmqRGmsoYwuuXzIhfnvDX2qUfW32rVcUbfv2BxVLh6Zg35L2DrWy2qFBEofDZ0ydNXNc09c/HqgsGZctxRgQmHmPTKhz6O6jDUjs3qmgWp1J2WOZPfEtF16xtvZuCwBGL89aySTyCpUlbd1VmCuwlNUqoS8TARhYcn4tHIrZDMV4KiPci+pa/Bmy4RMQ2bRwAuZo45SYXmffgPy8P5YZ2auTAE4eteGCM+pE08AXAZK3YVmZtDMtNDQKSdMWOCe8OwrOEenkfGH4QBdRdl3wsYpowUu47PDRwqwj7CLjmQzBpINA+janu1iElsBcJP4UKv5UkC5hg8k6w5wdOHSC2tY0yJCyZOAF2G+2nhL0diBZN0AZjAmvFqU8yigLUG/5SW8qZEDeQwZSNYF4NDinFupJK2C1b6GA0VxLQIaN7oOJHcJ4FXFObGSLC9HqZvMtdZ4FI7SdwQHfaarA8lBAcRrQXR15fH5sHOphJEoHvVjB5lQGr2YErKuKwPJnQaYUJj1gMTYMijoUjsoyQ4yAkIlE2hmMAPJmgG6tuWMYcRn526yg1LsKCNKpFug9JnODCQHBNg8y7k+lxA6lcdhHjuCCiQzQGoeSG4XoDLLWSx3J6OOfhaNlLOznAMl3u2uU/I92gE/1z/f2gaS/QJ0FWb+RhnmQYlrZ5az/uLaLkZKvhUomYX5OqOYzJ43UP5qgQi57Q0ktxoRUGY5xxdmFWJKwz/C8PwjQT+nBxOCUy/oF3ONO3HxDv+hdPW9QCby0tKyqn2ubZn3tY3ZN6NZmeXsrfVkihKbEcws57aRhup/wHuNsqiUkonzjpqdR8xWGIKOkq3xhZmtBpKd8YXZyV5PTRou6jDL2exsmZTemerSpBLXYaZQwMYyKn829P2Mv9djXFVgTM7BsHJVh3d104vN1aUw18TqUpOmWZPX462o/F3k9xUJShUajVbU5XArIDCAkos1xRLigZTqkgiOOQcsmirhV72y7BEra6LlmtrmtwLqaLWqZwDgEUbpYYGwGJybNhPar7AWeeIdbB+Wn81yj0/fbpEI/pJtkE7VEOm0pzcal62un7csC9P7YhFERkYO4/0vtlXoEP6jVJfIc3bvvgNXcrQuQpI9dTVSZU1fJvlfyngewDOMUJX64GGyDvEA+oAQZoe3AroVM8tS3BxVl3JD04/SyapLWJPYtyPdtwdQvSca8KIB8SQmJPXENJ1o9UIouOjF2I98zCqZsKiYl/wwUa6QfjrVX65v1DQoHgigL1+A2F/pssGs5GNoscaESp9o1MDoMbtHptZyAY+xSvGn6kjZU9up2q5VT0ygjOBlchDgoZ1DuVvkEUh2f9cHR0eK/vxN9quVqzwV3sPHLwK8Ti8t0FQC22RIsY8DQLEOpVIC0HBHdxsFafmLQuCVPPVHxZNVsVjU02lwahrBAPTdi9aqzx6ixVqFqhUQmUONNOx2rAG8iJeKFVWxstfb5VZ+0ABVEVEK0UpCnzyllSiZ4e44VTH+XEk+JP5U1U+ua9BtlKfLAFU5m+FRiVBWB57halVVDFzUVsfFymqvVF0b18Jbl1PdADZLg2pUgUdpPUqmA1B76CKlbSNh1dLp2iPyqZph0IUhudAZ4BkZGevpExerWrtjI8fXQKmv3y1VVI1gkjzMEHJnIjUGoCrxuRaqB169Ve9QdpkofYGRgljW6B1tRj6NBXguB+iEJZilQbH3innbhZxL3vgzJsvfyj9W9ZDqGq41PrVzKZgFUOnGQaeBAo824rxHqPTmoKTVoXHyGX7XnVOreWed6onRRyxAbN6FAgPKnTwoLXVQci9Kcr5iZzp5tyHBm8p/irYKnpIhCwCe1WPP5jOUyICHskSLZg12Xnb1/gmL3zwwYVFyhDNiGCC+FfDWEA9gXhXariJ9NlGxj+hq9dObQ+m/ezgjZu0dt+BgSYs4lP/4e098Yc5Y7Oj0PFq9llRhLUSy5JQDgL58YxKA78VDqRZ9i0JRusrxm+1OTH+jI80oy5jxjnVDfOGS+ymVn8N5bEfhQ+2alVWoP10q8LC1FX03wtk/IRA8NQKEZwcmpv31Z87LEjAJdj78q9Vroe7yUgKb9UzppwJ1zHAnPrs7GMV/MO7hBty3DNuZvFTbKGag1ZuEgs1XHoPJWAf3cJE5dLtVEirMdyem/UkpTR3Iq+nSl7cu/BEBn4jfkbuaiGIequdfabrRhoEsr0IBb0uvqIiEkgnpL+oBryWDknEL96PFercgkDvQSPqy5bVQObcWIN7nSiYunnqmxBimU2VG9YOJ6WOo4JiKh6TcsIQsiNhSgEhc6SM15chAE7UkMW1Ln34D4wVBWKTMtjMlYYMTsRSgwXnzG72ylxlat9kRzp5Dr7/ySS56c/wKqtGz2wFU9bJ33NzjSqlU/9vV7bYA7QqsrdxhgG01YrP/YYA2A9ZW3DDAthqx2f8wQJsBaytuGGBbjdjsv+0BKts520znuopre4DVlSfeiS/Kelz5LJ2umrFJZLYHiGnPF2OjnbVfFe3bje9Q/NJ0vVv8lRkuhpN0UTojw7AI+X1sVPQucTrnKCMRusTbTiSjN2yIOEm+nIUxx/Quj3+1k4YWb/uXwDa5xJSKSUT07nFty1qlbGDU5rIuf2NfnD4J8PZgEs8KwLP0MwohB1AhpIzCy4Q91VBZ+VrsxhmPACqGHbt+DNk00xW3cca7mKL8L8Dj4jMKIQnwHCqqzEHdNOTFmR9e+dL0oNcoxG2e3RfgVmD9+h48DHedi9/6sxAH2KxgKP0W0Uu+its4M/fGrcln5qMGVn4GyxDiNsyYTrwNJYgjGdUld68s3QKggkpRPrYVW3C0qm5v7MaZAUsRYN/2543Hv0BVuR7wNO0YEfiR0D9E6LRCteqGkSHYx+hd2MY3ohzOp92Prmm182Dc5hlxzEvyAPterVFaGa77AVS1zdi9jaI4EVVk+tSkmDVvvezpebqhZj7xsmdQXG2zE3/3BQiQqB4vgLMKVeVUVLHK/iyD4drq6NYAVVIAOUo9t5vbbRoxdgOjVd4wQK2a4jRcGCCnYLSKFQaoVVOchgsD5BSMVrHCALVqitNwYYCcgtEqVhigVk1xGi4MkFMwWsWybU/MiK/zejX8WJfJZDrSN9agNcchFs6WAF1F2Xc2nKgrQL9lXHeGpzyLtgI44j95A+rr6lfKsvxAiBWkoLNjGxvoKsx+uKG2bh+mSIThtcDNfQm8alv2UImyDTKTx7WQO3x6RgPcAlSmzNdUnkgVqZxupwFWs58sfEWUbMEWHFyNYw7dnnV9zakTn2OcbkkYnv9HArttfCzTiFKnss0HPjG+Bvux5kNhN/sPbo6va+eyPqy+MZeJ7HE8Ubaxz+ZopzkVgDuMQje3LGn9VsXHpyT3xLRdJRMXjcWWjn9QApgpkJqWa1v2r7Ed/7eYAYbp6mF4ql7OupTUClRIJxExCSo85Rpgtj5u37E56ph0JBULRuahRAb9RZHWsfr/h4/e5wiRjnVio7Qarct7/IcK3lduEj8WyytuCT4GDu6kMCKEvoIZdPPbzqBTpDsPoCryVR8tGSQ1iM/hEzsPQbnthlPDB+OitP8P0sUjfkPWF9gdIJT+KXXQ2WWPrf+sPf0GBAP7OIYH+9heBjryty1ASo44CJ1fOq3gVTzkHTYwAwJUFYRFlPejMC+FjYpV/Xh37QcQH0yhNK8/G7js8+kZdVr0qxmgEpliH8vFH55BtTwPK4B6a0nAyjB2Aghwf3M4hbmlj6z7oTM66xRANWIz7KOaVldcmwDc5aSOp0uT1n0STF6DAqgmlLA9a7QssXyUxrGqH08u5wCPodQtLJtWsAVuh3auI512CaAacXxRzu8Jk5fxZh95BIhvLeLDJ3RFr740d+/kdV3e8lIXgArIZvt4ZA4l8nxe7CN3ACl9M4o6U93T1pSpD39XXd0AqoLwZB95AYjNZb9C59LsQ0kFH6p60svVHaAqGA/20WqAqC4rAC9tyrSYTRk0w5C9SQ0DqIJ0FWZNhm1cBisdp/qZ5VoFENCaGBFeiIh2Zh/842pDv2FhOEAFllX20QqAaFG+7RCEOaWPrVM+DWT4YQpANRfN9lHKRc/qFKP6V9W0FNdcgPQbB6XJ3yUVFLWUwehzUwGqmbmqeMm1kizh/ZEZOlJgDkB6Ett9Lbqu7/gNr0+ejM2izD0sAahm0Wj7aCxAKsLWre3Ti2buebDglJons11LASqZVezjUe8PKXiKF+j9/mgUQNi59whzphyavsbQ/di0PAyWA1SFHL5jeUyTWJ+LEY8p8NNlOoXeAKGs/YwKKYeTCt5T5bba5Qagqgg97aN+AOkpdFdmxg0dtPaDcRmiKisPLncAVaW4tmXeh3fH5V15f+wyQEokgdANkZGORfunrD2pysaTyy1ARUl3HXghsvTw6RR0lC8Mxj52CSClRU6BJJc+tv4bnoC1lYVrgKqwwdrHoABSehClbk5ZUsHbavo8u7YAqCrQZx8lcSWq1VtVv47czgBEv2U17Fx2dN9BL+ydnNHUUbw8XbMVQFVxWF52L6Y9wj6yIaqfP1cbQHwAi5JNziiSVvrQ+gp/8fDsZ0uAikLP2Ufl/ZH18afkQADxPvdh8zDPOgz32POwLUBV3c32sQFrKNhU+LV6f2wXICVlmLaX+l3S+jfVeOzq2h6gqvhhhVmjRIb5OS3s4/kAqQd2Ltd5aY8VByetblTvtbMbMgBVCC3t41mAmAeJRsqWnixq4b7p+cfUsKHghhxABYrPPh6qSpbrG+/wHj/Zy4Gdeb97dM2uUADWrfIw4i95hi7O4UGZ/wfID4pMzOvIXwAAAABJRU5ErkJggg==" parent="1" vertex="1">
          <mxGeometry x="923.75" y="330" width="52.5" height="60" as="geometry" />
        </mxCell>
        <mxCell id="1P9C8POOOEaXLPvc4yLv-6" value="server1" style="text;html=1;align=center;verticalAlign=middle;resizable=0;points=[];autosize=1;strokeColor=none;fillColor=none;fontSize=17;" parent="1" vertex="1">
          <mxGeometry x="205" y="240" width="70" height="30" as="geometry" />
        </mxCell>
        <mxCell id="1P9C8POOOEaXLPvc4yLv-7" value="server2" style="text;html=1;align=center;verticalAlign=middle;resizable=0;points=[];autosize=1;strokeColor=none;fillColor=none;fontSize=17;" parent="1" vertex="1">
          <mxGeometry x="545" y="240" width="70" height="30" as="geometry" />
        </mxCell>
        <mxCell id="1P9C8POOOEaXLPvc4yLv-8" value="server3" style="text;html=1;align=center;verticalAlign=middle;resizable=0;points=[];autosize=1;strokeColor=none;fillColor=none;fontSize=17;" parent="1" vertex="1">
          <mxGeometry x="885" y="240" width="70" height="30" as="geometry" />
        </mxCell>
        <mxCell id="La0mF4zBbgv12rZsY-rS-16" value="" style="rounded=1;whiteSpace=wrap;html=1;shadow=1;" parent="1" vertex="1">
          <mxGeometry x="155" y="540" width="170" height="180" as="geometry" />
        </mxCell>
        <mxCell id="La0mF4zBbgv12rZsY-rS-17" value="" style="rounded=1;whiteSpace=wrap;html=1;shadow=1;" parent="1" vertex="1">
          <mxGeometry x="390" y="540" width="170" height="180" as="geometry" />
        </mxCell>
        <mxCell id="La0mF4zBbgv12rZsY-rS-18" value="" style="rounded=1;whiteSpace=wrap;html=1;shadow=1;" parent="1" vertex="1">
          <mxGeometry x="860" y="540" width="170" height="180" as="geometry" />
        </mxCell>
        <mxCell id="La0mF4zBbgv12rZsY-rS-19" value="" style="shape=image;verticalLabelPosition=bottom;verticalAlign=top;imageAspect=0;image=data:image/png,iVBORw0KGgoAAAANSUhEUgAAAH8AAAB7CAYAAABdLF8FAAAAAXNSR0IArs4c6QAAGc5JREFUeAHtXQlgFFWarveqOokcBlEYBhEIJOnuBHAUQVFRYOfQ9VhHV0SQEcYDvFiXQSAQxuySA8RrvRAPEBQcYVwWFXRVJDooHuABJt0dkEwQ5BgQkSNHd9Wb73XottOp7qrqru6uxC7oVNV7/3v///7/nf/7319EaCcXY4zUFpT1bmTMjiLhR/FjvfE7VRBIZ4R1wq8zE1hnwoQOjAgNRCD1jAknCBHqAXcUWezGcx3g/D+JijtzSf8qUjW6CWHt7iJttUS1hQ/0aJCbRkKQo5ggDEU58iDYU8wuDypIIyrGVtw/w30zyRA32bfNcpuNJxX5tRnhfzd4UYcjxw9dBgGMYkwZBWY5U8EwjhMVoRZ/1hKRrc3s1qsyp3JiQ6poiQevpYXPShj1rCodwWTyB7Tq6wTm77rjKa/5aQmGDUbWEokttl9f/DYpIYr5SBKToyWF77bPtzPinYDxeBxa+lmJKbr5uYKZuxklL0iSuCR/W9FO8zGYm6OlhF/tLDuXMGW2wMjv0dItRZsRtmNYYPi/mhFaVuCa/bmRtMmEtQSD3YXlFyk+CF1glyez8MnBRd6kEi1zVM36MDn49GNJqfCbWzp7CMu0EfpJbpuQhJC3Rcl2b/7XM1xWKUFKhF/7q0e6NDScKBWYcgeWadQqzEg4HUTwgeGPS9nZJXmfTPkx4fg0ECRd+B5n6XiZCQsExn6hQVv7jSZkPxg/w+kuXprKQiZN+O5Bc3NYk7AEM/hLU1lga+Ema8ROWbfat0w7mAq6kiJ8l6P8Wsbk51HALqkopKVxEmEfFYWJjqo5byWbzoQKnxWuzHDL2x+ERu6eZBYMS616LBT3oHC7MZmEvp7sZoTtpoq4n+CPwoQs6OkyBUHJJIzimWUivivCCjEcFWAe0iuZ9HJchNBpTvfsh5KJV0oUspqBFf3cXs9KdPODE4UjkO9JdWslJcIGURQqc78u/jYQF8v9m8HzspuOKwWoEIWoIAP8+wdMGBhLXnrSoHIehfhf1wNrJkxCWr7LUXohWs8baEWnmUlsMC8ifA/C38BCYQOa7oZ+ruK6YFyCHnhllr3yNajMvycC4+UzbZVCRXqDo3r2ygSRHjFb04WP8f1KLOFWmr7DRogXuv116B6XOcTcN1K5zbpj0ILuPm/DVUwhY1FOvskU84VW/wRm/UkdFgPEmip8l6NsAhOUZyEk04YTdOlHGGXP2GwZj+VtnbE7QLhV7m576XkYHopiU0mTT51S/vBUVWTThO92lk5XFDbfNKEQ4RgRaDlh0hMOzwyMida+agbMd8o+7wz0BON0VX4MXVmEnJuMISsS50wRvumCF4SXqJAxA0L/LhLhVg3f6Szt08iEWagAt0XanOIbP9j9uwqbPmtTWY64he/v6pmyxIxCYPzjO2D3YAz8yIz8UpmHp6B8uKwoizHpzQ2nA6ZiFU73nFnh4cl+j2vGyid3/jE+Tqoh9ENgyO2OMbOHtAfBc3bYq2f9rfNpHQahXI+ghQUNPFDWSsdA+5w4WWZK8phbPl/OoWt7N95ZPQj4TMrMuNaKkzlTOIxM/LwS2GIsD7NPETPPyamavs+svOPJJybh8zWvzytvjn8dT5639Tv1rrw3p8BIsn1ftSOWZDUd2tvXSsafhoXfrLL1fBSX5o4ITUA8BePeovYtcmuXzvB6vFlXH7vKFmPgd4yQ65yu4o+tzZr2T52hln9yd+7VWNnCdfBSpu2S9jy+x8qbVKTTLXy+H680CnwpFtO2LAS/h2Sy4Y6tc2pTUdD2hLPGWXoJDGJux27kSEy6MzCR/AdWEWukDNuTRhqWbuFXO0rfxwTvkliYCCQHaIZ4qZUmO7GUI9Vp+JE0j6PsCUVgd0ag5QeRihPtrln/FyG+RbCudT43vYpV8NioPkwl22/Tgm/B95heoFCbF0XwPM8uiqL8xVNYMUQPAk3hc2NLv82dntzCYNAVHZUovdxeNfOrsKj0q0EObB8wtz+2kqdpJYPeJVPx+Z7VguPxmsJvtrKN2dhyYn71rE/0EJKGic4Br5fcjrFdU148F8CdzXcbo+eokRm3q+fm1VqZqMWj1T8LVW3MKwO1PH/OYYSwAiPlhxkbrJCiX1FrEo5OPay3toWiwczend2x272hYennuDnQ2UgOMD07RQs+ovD5EaqYzKyhvZNEcWzPLZNOaCFPx+vnABRjBk/6EI9W7hGF33x2Tit563i0+qK86qIvWsekQ+LhACwAVutNz5fWmb/suUkLXlX4/rE+hkOT/u1K1+xHtJCm441zAPsgb3P+6kkJQ5H/0uMwQlX4/mPSerCEwWCcuQ8EYpqQvhLBgU5ih+uwN7ItWt4wcH2ywFX8VDSYQFwr4XPHCNwYMQCg9w6hv+rwFG/WC5+GM86Bs6qmfn9aRtYwCG0uhtcjLXIgwheQwVgc/Li7RXiUl1a7es0eMYw5RgAhMrXR4ih40lEmcaDH1vuOI6s/sxJW4nqlvEAipKPElH2xGIK20O0jQ+p6uezvUBMYc4VCyWJ0NbeYVL50NkniQIuWz50fAa8hwaPVN9pEoSRJ9KbRmMiBFmM+93plNG90Hc/HezbOKM40vDkcCAqf+7nDpsB1RrNlRFxsNE0a3hocCArf7+DQuJ87l9NdtMUaRUlTYZQDQeFjkjfKaGKsKV80miYNbx0OBCd8J12a6qYMEz2WIYrLdSdIA+rmALfzhzr3Mvjx647zHidwX2/r2/ldvSbu3L+A95h8NyMK/BmSfmjYjZAXdwX3cOihGP9Sjzsxrvc17tVNHQChaXofKscRRtKkYaNz4JvCeb2bZN9zMNf6TTgkhLeTSsLN9qrijeFxoe9+30eNZD3mbzmh4YFnKIJedgzMH09WjZb93T73Xh2I1HuH8NNdvl5m6YDbfk55tyafr1JN8Dw5hNlPloX3PIWlF0fKbvug+b3g9GpjJMH782HsRve2Gr+lj7/b97sdiZRjhHDGpPURoiwV/FzhLV19R+uvxGG5f0U5eWvoiR/3w7MP26TfoRJvlKi05rbaZVtTSbivXn4amyKqrTVIF2M2VIBVOP2To7Zx4/U2TUMt4eWLeqGCTfQ4y/9KOJTLXvoVasugqClCIpHogNMzx9J+9Bb3n3hWo7dhLphxE5gqhpAf6XErpaRoct2KdZEAEhXe3FULO0BnyAQ8Mja4cRkPNy4vhUJsP/+xU71HjuxBeflHJTQvDCOrKDcHBmSeJnQoABE+DX212vPCPuP+1OhtrIExys06Bc+LMAjOJdYu7H3j24vybzwjqWXy0Yv0Cp7TxRQ2PJw+35Fj8CSmT/D+tEQ4m/JPk6DVa5r8hCLD7NOSwl+Xe0/mU73HLmWKAvdvDF278QsV5jdKg/DZon7jBhpPHVsKCLOHwZRwI9fyotSYKxzIPIs2MuJomY32G/b7LWmRW9d4iDtDMKyiDi8xKkBf2ausfy5nbJ/wuES8w4Xct0byxdzFGw4vM7YjPCzaO7r7LynWk/ZoQOFxfH3fwSbhezPWutBdz0RtHmsiVZh9s9eWDRrf0cQ8VbPChHMT+CqrRqoEEiq8Gx4MFy97MXndFB4e5X0dn2AYEj7ga/tsKzocJdOkRz3db2weWuvcBCAedOKwPDMB+bbIsn/VzF34Zs+yFoGRXgipy7Zlwgdh64uI4n2oRNq+DmD44ehx8fMS3Ij1xkRB/9X86TH98EmAVHxCGdAEtZVmogRrpi7qc9NTk+pe2qsnX74OZz5MNIngt7NHpXSJIl3K3bRET08hOGVwtFUXump8yInefNKgo1V2/IMO7oLSG5gi/BUyVecHEbYTQRxDKkf6eMs3ZA8OeEt5yHq2z/gcjPPXt+KESQEQRgdMIO/Uym7foAUdcZbuCVTED3Ce7lZMOC/kP8zNb5Fl+YNqZ+nCA4VPRlyGOd2zDkkd6K+hO32FD63h+KCZq0H4cMC9Hx4X+u6oLl4jEHr+yXx+Gkq4m3dCHrNlZ5+HPGp4GtQO/sHBVrhC82vxjJq8p0VAil9kJl+daBJQAa4BjjnR8BxualwKYUfeElfY5IPK93xWH9E+Mu+LWf9A/JjtheX/7VWUEZBLX7T0Q/h618cOV9EHEJ4uQZ38rs+Ybwsf7npMbsyRRFafW5Dr4Spd5B+8SLVjbg1kr3udDwKKsDkwL5hDih+wtHsHLR8tJrFXhkT63lq7ok4NC0zdxwiK8rJaXHiYmoImHCZZ74a7fYxlGHesc+Hkam4yqPEqYv+IeJgyPWJcWASGEN2wYUlNf+XCjzgOqWHD0rBeLTxVYegHf5kU3Ew+Uw3P9ssfy0TPeY5anFoYhs2B3GpKLS7ZYVjnE0PaPYw6TckmMhK+lYUlGWB8ZqR4U8MjqE59tccMNR5OU0PjQaOTbFOLEsiMYn15IvCi786/UGGNa3RVSRP3/JEUaig7oIYHE7HvwcNjanFqYZix1+c48w6qxSU7DN0+M+TRWqHGeorEF4glZekpCqLqOt8/A8e3dHWXk7A3w2fdutOaDMjHfEPCx5hvaJgwmd7W2THyaetA00Pqu/Ts9kWkXDMlaToUMNrfyeNu5DOEaZHySXY4X+dD+LqWjwHaTg88WONO4XlKnphIWtC614/e9EjEiS5Xz0LBcwf4+AKWnTZVWvwfVCR3O7YW16rGhwX6z0wKsp33zF0yMz6NpNULSxZ89ZxdeiZc592MCWY/6PxxxIu+4+gx7C2u2QsAGW75yEx11hvIMNn3M3p1ewcV+FAi8RJKV2jljwOSK0RRGoLxv1UPgXF+q41KQ6EfWaqVD3QGV8CAc5MiNLkVQV6jCMp73zc27K52zn2gbmDFaVrpuY9fpF8iNwq1UDpB7c1uwX0KPm33unvvxj2IuyqQB4w5dHRXAWj/nfVs8ZriF3+LJKQ0UWSgO/960oTcV/Tkz72OFbjnnCtJ9ByYtY/DbPommyid63DP/pUehxUux9zbiKK8BmFdEIavC5y233fC63uHW+aGxQVfuV/khr17ViP9BLUeCP17d3Tyq932uf6eUhIo+/tP3uCD+UR8ADNyIkamKOKMznlPHfyx5i7UctMVPozS6aSkBCaA+q/8qtlfApr/mi9SFHiKeOcOMaAAeiYiACLQUAc3Hfe9iEdVlbZbrimDKvqyqHkITITt4uM7B5StgwGIoOm7JTQz1J5e3NQ7NCzVz3zJJ9rItaBD95JLD82EkvI765a/qQc2bhhFmaErDyZcuaOwolUl5909BK+5AeXHwVjHRp8yg8Jk0JDweeJGn2+oLkKTCDRp5/JtsNMch8lZKyuXWMhAPq9OnpgfdTMnlnzV0rDBi2yYK/DKq3lBwMTnk8eEA3r37xmKLl235hCmm0MokbS9NoUjwkmQ88PDrPB+57cvvUabj53x3bGYL0rogsl/zB9ttLuPFaHn2A/dIDisvHRfrVTaMqNn6E7NAWHHQe1fFe8xoqHi6dD1W67lc7r4NWnXyxtFm+08aP5WYX4CUo1cZAdm9tdO3rXc8DhvBEs4bMeutsNYETSGh0d6hwFOq8pNRGF/JHi1cOA7wJd6kL2xrh/6/SGYUSKZNa9JO5ftunPXitGijZ6P7nt5dBUwUQDzIdbCk8XunQruqFu+OtmlOmvT1HoI4Q39eKXXw2Ht3YZ9gjx2hYdHfmdr/QLE2u9xCPPuyICtY8QM0dlWPGlvGFEiub7ZMYwSJQfTdnSZpAM0lfuYQPdkZdo2/XHHklYtqXWJExviKSj7F0Vm7/AxPRomVNTV0Beozg8gx2mQ44Jo6Xkc8jiaKZG8k+MM3QAtmSHhyz6FLyncWoisED+ysoRrtbgNnYYdXeqotVfPXg9Tr6lYdj8ShQpXhijdGyne0bHb/7iPHxiGJaFq5eDp+MYSRsOr+31dvN/f7XcSsypR3QytZdH1j49ERDo8Ng7AqdWjIiVj0DSrQ3OAbBowLK3I7GQb5rf0DY0MeSZbJnlhlXsDVLkLIeQWJlscDGFb8bsCp6srm9/5X1ww5/oc0yPdRgk8jU0SC/OqZrUglIenr/g4wL2i1awqu1BWSD9RID8yRVxv9HvC/vN/TeQKtPK+aKgniEjf571LKGXB8QWqRRxxEv4UGqn1jLFjHsafIi24dLw1OeDv9jlplNIWtUIPuags46w869dThp8zTFD4+SRvPVqywd0xdpbHUT7i58zAtlz2oPBJ1egmjA26dq9CCwxt362h7+nntsOBoPA5ybApX2aYdCaMwY7UAMPp0glSzoEWwucfQ0LXX2OEKuhPqaCwUiNp0rDW4EBwth8gB19lKsZZs7mBd913SoZhnfqxbvg0YFwc8BSUD2eycg70/Pgv7hX7dXpdr6u2AOJWwt8xoPSsJp/wjZolSCCR2h09RiWWfSPV4tJh5nEAS/Lford9AjqZFkfsmifr5CGYk1Xoxdai2+eJuBNl1IiX9GYQgMOSbwQnLPCevpvPAf5lUwh+bbjgOSbw/3Q40ixHz/0sVxLpwR4BiM5DBTCk7vUjY2QBtyPTgzgNY4wD3MceHEY9A8FL0VLy4+GeleVjo8EE4lSFz89vw23nqgCQ3jt2pAa5ZU+5Xvg0nH4O+Jp8xWj1WXpSoJLcz65fKWrBqgqfJyJEKsMmAPAZvBiZmu7+DfJMBzgTlFE6wJpBGMv1eDy9teAjCt/pnrkNkn9NK4PweL4fjXRLuTvR8Lj0e+wcwIHaXkZSE5lonq+IKHyOKEMSp6H16zYvChLHhB6+emVJ8D39EBcH+P4J/mEf3sCFj+tpQUcVfm5V0Q5sAs/XykQtHgTj5Mnce9Ti0mHGOIBlHDfveU9vKsA20M6dvtKCjyp8njirx5kVaP07tTJSi0f3/zAc/F6jFpcOM8YBSkTdPSka/Qt5n0z5UQuDpvC5d2ds98bWgrEsgcOkV3CI8XdahKTjo3PA7pq1DkfAFkWH8tvnfd6lQzdddhmawufImhGT2KxamQDvGWx1jbP0Ei3C0/HROSDldP4PiPcB9MStTLR4SgwPG2imcLXeL5hrTgoC5PDZO3zCfwkDjpgOaoKwo1QUfo0vRSTjPH2A7HZ55+f6oIO7VlDIBZiT2SBEbkj7BtTrrUy6ozFAt/B5Jrz1yorwHpZzmgoEVaRwoSKJZNTJg4yqIOnA5HFAV7cfICffVfwBupz7A++G74yd5pPZRuioYWGavlLNAUMtnxPL15xuZ9lbuMe1iYNh4EF86GemVfzTpFoQqcBvqOVzAvma05aROR5jza54CEblmebeWvO2Z/CDxg4YxoM0hWlxHv4XbnvZyBSS0Aq1YeHzHHK33ndAtIm/Q0UwaPDZEj/mDqPk4/VbXI6KwS1j2tcbtlnHNfiUaoUor3kGljusUjrD3X4o4TUF5ef7FGU9xoKOoeGGnwkcOzLyKBVspUYPJxjGlcQEcKrUkxHv0+jlrgqiJUJVl47dh+pdjgXTJeAhppYfoIPb/FGR/TvGgvgcInBdgMCmg1Eev8GChU8AB8qudYdiawKcKlW1EDxPxITCI8cPLNRKn4z4uFp+gEB3QdlNTGbL+I5eICyeO86lbYI2e4rDU7w5nnxSkfbkcvh+PqRFxU/pbXCN/lxUmARHmiIsTiOOB98IXf5SDAHqfugMFgSEKVxHnUHFCv8Gk8H0yQbnLtTgSasIPLhID26Ur0GU6LBU6jxMEz4v8EnjwlfRtXXSwwA9MLwSYFhZg4OGD/HPiOhJkywYbi3j+nr79URhELr+j1IG6SNkhy371MF6NmGCaUx8MFX4nC5PYcUQxedbhxZg/hIOkyVKyDK4MF3udydjIiP0ZoUxnGwvrBgqK8o1qOQ3QOg5etOqwWGI+18cmb5OLS7RYaYLnxPscpTno8H+PxjVNxEFONkbfAwDhw0ioRs6ZJ/ykd+1SSKQIU/uLQtOD0YyRq8hRPm3WPc3IpJHyX/ys/kR4xMUkRDhc1qbv+9yfCkYdWWCaP8pW/9SUeCnjTZgolhJslhNfn7+vli0h/xDCD+cOOgQBVaIL10WwmHhALTwi9HCs39CaPITXy0R4ZJkH3pJmPA5e3gX6XaWTwXjKsyaCOple/O2J9uL+cJuULIblWI31iL7ccemlJKpUCELz5nIj1vE8ntXVNQCfLYlB0NWXEtgvTQG4EBrI/De4fDMWRIIS8Y9ocIPFAC+Zi5A6/kLKkCfQFj63swBjPnb4ONkHDeYTTZPklLDeXfW0SbC5Qt5MdkFtCo+tHYcqyGPSjnZQ1IheM6XpLT8UAFgMngpbNCfQi9QEBr+c3rmrV0k5G6+RZ7Kcidd+LywfPbsOXbwXoWw+1EJ4tsXSCX3jOKGMQsY/mdsZS+MZTJqFJ0WfEqEHyCKnwj2+lgpJlhjMSeIegYtkKZN3ptn88+LHbLm2LdMO2iVMqRU+AEmNLsNozPQC0zAyoDPvNvFBeY2YGxfbJOk+dH856WqsJYQfqDwzVugTdPQE0xCT6DbfXggvVXu0DccBS2LssSMh3Kqpu+zCl3hdFhK+AHi+Ldk6pvkG6DB+wPW3sMC4Va/g5kfEoEu7ip1Wdm96q5jbYBea5PIvyrhleXx6AngmCA+PXpiSkq+Qb6vwhBlMQxRPInBkZhcLdny1YrarC2cdy5hyihUglHQ1g1PyUoBkzccQ/4bFslrYc24tq0JPJS3bUb4oUTzZ/9yseHQUDgiGIUKMRTzBDuCc8xeNWDCVovK9hm+R7MZPgc/O13surktdOnh/FJ7b7PCVysMrxA1TYf6w0uVHZXAjq2F3tDjd4YuqzMqB+7M/4yWewoECk/WpB5zihNQupxAfkcxx8A+AK2Dzr8Oaeo62ISdfbYVHVbD1R7C/gnFPAioGAFJEQAAAABJRU5ErkJggg==" parent="1" vertex="1">
          <mxGeometry x="179.39" y="587.5" width="42" height="42" as="geometry" />
        </mxCell>
        <mxCell id="La0mF4zBbgv12rZsY-rS-20" value="" style="shape=image;verticalLabelPosition=bottom;verticalAlign=top;imageAspect=0;aspect=fixed;image=data:image/png,iVBORw0KGgoAAAANSUhEUgAAAHAAAACACAYAAADTcu1SAAAAAXNSR0IArs4c6QAAEBpJREFUeAHtnQl0FEUax6t6JiQEUBCFsOgmqGQi+ECE9cQDCazy1t23q7Ku7hM8CKCoJBguE8hFBPKEIEcAF1lWn7visftcV12SgAerb128QIQJxIASjighJJNzurv23xMakjDJdCZ9VE+m35tXPdXVVV99v676qutqSkLwGL5jeUyT2LCEMnY1oY45JRPSdoZgNn1ZoqGUseF7t/ZoOup+mhKWzhjro+YNmXydRgrz3Lell6l+oeKGDMCE4sy7JZmuJIxd4R8ObaQCy+/Xu1/uf294qtp/GPv52h7gsO1Zw0WJ5KPEJWpUfwUVaPrI8QmbXqeTJY33cBvMtgCHf7LiItHjWcwoe5wx4uyshimlewilKSWJ6UWdvZen8LYDeB/b6vi6eP90IrNsRshFXVcm/afgpKnuO9LdXY/L/BhsBTB+W+Z4QMuHmq7WU1WUEpFRsrZHdJ+svTelVOoZt9Fx2QLg1cXZVzRJLI8R9lsjFUIJPcUEknFB34EFn4+Z7jUyLb3i5hqga+eyPqyuYQEjNIUQFqlXpgPFgxJZIlBhzv7E9HcChbX6OpcA0aKkruIlDxEmLUUDJcYqJaGhUyQQkrJ/wqI9VskQKF3uACYUZd0oM7IKEH8RSHhzrlMJJXJTVHTP9N03p1aYk6b2VLgBGF+cM5hI8lI0Jh7Eyzg3cqmqRGmsoYwuuXzIhfnvDX2qUfW32rVcUbfv2BxVLh6Zg35L2DrWy2qFBEofDZ0ydNXNc09c/HqgsGZctxRgQmHmPTKhz6O6jDUjs3qmgWp1J2WOZPfEtF16xtvZuCwBGL89aySTyCpUlbd1VmCuwlNUqoS8TARhYcn4tHIrZDMV4KiPci+pa/Bmy4RMQ2bRwAuZo45SYXmffgPy8P5YZ2auTAE4eteGCM+pE08AXAZK3YVmZtDMtNDQKSdMWOCe8OwrOEenkfGH4QBdRdl3wsYpowUu47PDRwqwj7CLjmQzBpINA+janu1iElsBcJP4UKv5UkC5hg8k6w5wdOHSC2tY0yJCyZOAF2G+2nhL0diBZN0AZjAmvFqU8yigLUG/5SW8qZEDeQwZSNYF4NDinFupJK2C1b6GA0VxLQIaN7oOJHcJ4FXFObGSLC9HqZvMtdZ4FI7SdwQHfaarA8lBAcRrQXR15fH5sHOphJEoHvVjB5lQGr2YErKuKwPJnQaYUJj1gMTYMijoUjsoyQ4yAkIlE2hmMAPJmgG6tuWMYcRn526yg1LsKCNKpFug9JnODCQHBNg8y7k+lxA6lcdhHjuCCiQzQGoeSG4XoDLLWSx3J6OOfhaNlLOznAMl3u2uU/I92gE/1z/f2gaS/QJ0FWb+RhnmQYlrZ5az/uLaLkZKvhUomYX5OqOYzJ43UP5qgQi57Q0ktxoRUGY5xxdmFWJKwz/C8PwjQT+nBxOCUy/oF3ONO3HxDv+hdPW9QCby0tKyqn2ubZn3tY3ZN6NZmeXsrfVkihKbEcws57aRhup/wHuNsqiUkonzjpqdR8xWGIKOkq3xhZmtBpKd8YXZyV5PTRou6jDL2exsmZTemerSpBLXYaZQwMYyKn829P2Mv9djXFVgTM7BsHJVh3d104vN1aUw18TqUpOmWZPX462o/F3k9xUJShUajVbU5XArIDCAkos1xRLigZTqkgiOOQcsmirhV72y7BEra6LlmtrmtwLqaLWqZwDgEUbpYYGwGJybNhPar7AWeeIdbB+Wn81yj0/fbpEI/pJtkE7VEOm0pzcal62un7csC9P7YhFERkYO4/0vtlXoEP6jVJfIc3bvvgNXcrQuQpI9dTVSZU1fJvlfyngewDOMUJX64GGyDvEA+oAQZoe3AroVM8tS3BxVl3JD04/SyapLWJPYtyPdtwdQvSca8KIB8SQmJPXENJ1o9UIouOjF2I98zCqZsKiYl/wwUa6QfjrVX65v1DQoHgigL1+A2F/pssGs5GNoscaESp9o1MDoMbtHptZyAY+xSvGn6kjZU9up2q5VT0ygjOBlchDgoZ1DuVvkEUh2f9cHR0eK/vxN9quVqzwV3sPHLwK8Ti8t0FQC22RIsY8DQLEOpVIC0HBHdxsFafmLQuCVPPVHxZNVsVjU02lwahrBAPTdi9aqzx6ixVqFqhUQmUONNOx2rAG8iJeKFVWxstfb5VZ+0ABVEVEK0UpCnzyllSiZ4e44VTH+XEk+JP5U1U+ua9BtlKfLAFU5m+FRiVBWB57halVVDFzUVsfFymqvVF0b18Jbl1PdADZLg2pUgUdpPUqmA1B76CKlbSNh1dLp2iPyqZph0IUhudAZ4BkZGevpExerWrtjI8fXQKmv3y1VVI1gkjzMEHJnIjUGoCrxuRaqB169Ve9QdpkofYGRgljW6B1tRj6NBXguB+iEJZilQbH3innbhZxL3vgzJsvfyj9W9ZDqGq41PrVzKZgFUOnGQaeBAo824rxHqPTmoKTVoXHyGX7XnVOreWed6onRRyxAbN6FAgPKnTwoLXVQci9Kcr5iZzp5tyHBm8p/irYKnpIhCwCe1WPP5jOUyICHskSLZg12Xnb1/gmL3zwwYVFyhDNiGCC+FfDWEA9gXhXariJ9NlGxj+hq9dObQ+m/ezgjZu0dt+BgSYs4lP/4e098Yc5Y7Oj0PFq9llRhLUSy5JQDgL58YxKA78VDqRZ9i0JRusrxm+1OTH+jI80oy5jxjnVDfOGS+ymVn8N5bEfhQ+2alVWoP10q8LC1FX03wtk/IRA8NQKEZwcmpv31Z87LEjAJdj78q9Vroe7yUgKb9UzppwJ1zHAnPrs7GMV/MO7hBty3DNuZvFTbKGag1ZuEgs1XHoPJWAf3cJE5dLtVEirMdyem/UkpTR3Iq+nSl7cu/BEBn4jfkbuaiGIequdfabrRhoEsr0IBb0uvqIiEkgnpL+oBryWDknEL96PFercgkDvQSPqy5bVQObcWIN7nSiYunnqmxBimU2VG9YOJ6WOo4JiKh6TcsIQsiNhSgEhc6SM15chAE7UkMW1Ln34D4wVBWKTMtjMlYYMTsRSgwXnzG72ylxlat9kRzp5Dr7/ySS56c/wKqtGz2wFU9bJ33NzjSqlU/9vV7bYA7QqsrdxhgG01YrP/YYA2A9ZW3DDAthqx2f8wQJsBaytuGGBbjdjsv+0BKts520znuopre4DVlSfeiS/Kelz5LJ2umrFJZLYHiGnPF2OjnbVfFe3bje9Q/NJ0vVv8lRkuhpN0UTojw7AI+X1sVPQucTrnKCMRusTbTiSjN2yIOEm+nIUxx/Quj3+1k4YWb/uXwDa5xJSKSUT07nFty1qlbGDU5rIuf2NfnD4J8PZgEs8KwLP0MwohB1AhpIzCy4Q91VBZ+VrsxhmPACqGHbt+DNk00xW3cca7mKL8L8Dj4jMKIQnwHCqqzEHdNOTFmR9e+dL0oNcoxG2e3RfgVmD9+h48DHedi9/6sxAH2KxgKP0W0Uu+its4M/fGrcln5qMGVn4GyxDiNsyYTrwNJYgjGdUld68s3QKggkpRPrYVW3C0qm5v7MaZAUsRYN/2543Hv0BVuR7wNO0YEfiR0D9E6LRCteqGkSHYx+hd2MY3ohzOp92Prmm182Dc5hlxzEvyAPterVFaGa77AVS1zdi9jaI4EVVk+tSkmDVvvezpebqhZj7xsmdQXG2zE3/3BQiQqB4vgLMKVeVUVLHK/iyD4drq6NYAVVIAOUo9t5vbbRoxdgOjVd4wQK2a4jRcGCCnYLSKFQaoVVOchgsD5BSMVrHCALVqitNwYYCcgtEqVhigVk1xGi4MkFMwWsWybU/MiK/zejX8WJfJZDrSN9agNcchFs6WAF1F2Xc2nKgrQL9lXHeGpzyLtgI44j95A+rr6lfKsvxAiBWkoLNjGxvoKsx+uKG2bh+mSIThtcDNfQm8alv2UImyDTKTx7WQO3x6RgPcAlSmzNdUnkgVqZxupwFWs58sfEWUbMEWHFyNYw7dnnV9zakTn2OcbkkYnv9HArttfCzTiFKnss0HPjG+Bvux5kNhN/sPbo6va+eyPqy+MZeJ7HE8Ubaxz+ZopzkVgDuMQje3LGn9VsXHpyT3xLRdJRMXjcWWjn9QApgpkJqWa1v2r7Ed/7eYAYbp6mF4ql7OupTUClRIJxExCSo85Rpgtj5u37E56ph0JBULRuahRAb9RZHWsfr/h4/e5wiRjnVio7Qarct7/IcK3lduEj8WyytuCT4GDu6kMCKEvoIZdPPbzqBTpDsPoCryVR8tGSQ1iM/hEzsPQbnthlPDB+OitP8P0sUjfkPWF9gdIJT+KXXQ2WWPrf+sPf0GBAP7OIYH+9heBjryty1ASo44CJ1fOq3gVTzkHTYwAwJUFYRFlPejMC+FjYpV/Xh37QcQH0yhNK8/G7js8+kZdVr0qxmgEpliH8vFH55BtTwPK4B6a0nAyjB2Aghwf3M4hbmlj6z7oTM66xRANWIz7KOaVldcmwDc5aSOp0uT1n0STF6DAqgmlLA9a7QssXyUxrGqH08u5wCPodQtLJtWsAVuh3auI512CaAacXxRzu8Jk5fxZh95BIhvLeLDJ3RFr740d+/kdV3e8lIXgArIZvt4ZA4l8nxe7CN3ACl9M4o6U93T1pSpD39XXd0AqoLwZB95AYjNZb9C59LsQ0kFH6p60svVHaAqGA/20WqAqC4rAC9tyrSYTRk0w5C9SQ0DqIJ0FWZNhm1cBisdp/qZ5VoFENCaGBFeiIh2Zh/842pDv2FhOEAFllX20QqAaFG+7RCEOaWPrVM+DWT4YQpANRfN9lHKRc/qFKP6V9W0FNdcgPQbB6XJ3yUVFLWUwehzUwGqmbmqeMm1kizh/ZEZOlJgDkB6Ett9Lbqu7/gNr0+ejM2izD0sAahm0Wj7aCxAKsLWre3Ti2buebDglJons11LASqZVezjUe8PKXiKF+j9/mgUQNi59whzphyavsbQ/di0PAyWA1SFHL5jeUyTWJ+LEY8p8NNlOoXeAKGs/YwKKYeTCt5T5bba5Qagqgg97aN+AOkpdFdmxg0dtPaDcRmiKisPLncAVaW4tmXeh3fH5V15f+wyQEokgdANkZGORfunrD2pysaTyy1ARUl3HXghsvTw6RR0lC8Mxj52CSClRU6BJJc+tv4bnoC1lYVrgKqwwdrHoABSehClbk5ZUsHbavo8u7YAqCrQZx8lcSWq1VtVv47czgBEv2U17Fx2dN9BL+ydnNHUUbw8XbMVQFVxWF52L6Y9wj6yIaqfP1cbQHwAi5JNziiSVvrQ+gp/8fDsZ0uAikLP2Ufl/ZH18afkQADxPvdh8zDPOgz32POwLUBV3c32sQFrKNhU+LV6f2wXICVlmLaX+l3S+jfVeOzq2h6gqvhhhVmjRIb5OS3s4/kAqQd2Ltd5aY8VByetblTvtbMbMgBVCC3t41mAmAeJRsqWnixq4b7p+cfUsKHghhxABYrPPh6qSpbrG+/wHj/Zy4Gdeb97dM2uUADWrfIw4i95hi7O4UGZ/wfID4pMzOvIXwAAAABJRU5ErkJggg==" parent="1" vertex="1">
          <mxGeometry x="180.26" y="640" width="41.13" height="47" as="geometry" />
        </mxCell>
        <mxCell id="La0mF4zBbgv12rZsY-rS-25" value="client1" style="text;html=1;align=center;verticalAlign=middle;resizable=0;points=[];autosize=1;strokeColor=none;fillColor=none;fontSize=17;" parent="1" vertex="1">
          <mxGeometry x="210" y="550" width="60" height="30" as="geometry" />
        </mxCell>
        <mxCell id="La0mF4zBbgv12rZsY-rS-26" value="client2" style="text;html=1;align=center;verticalAlign=middle;resizable=0;points=[];autosize=1;strokeColor=none;fillColor=none;fontSize=17;" parent="1" vertex="1">
          <mxGeometry x="445" y="550" width="60" height="30" as="geometry" />
        </mxCell>
        <mxCell id="La0mF4zBbgv12rZsY-rS-27" value="client4" style="text;html=1;align=center;verticalAlign=middle;resizable=0;points=[];autosize=1;strokeColor=none;fillColor=none;fontSize=17;" parent="1" vertex="1">
          <mxGeometry x="915" y="550" width="60" height="30" as="geometry" />
        </mxCell>
        <mxCell id="La0mF4zBbgv12rZsY-rS-31" value="Clients" style="text;html=1;align=center;verticalAlign=middle;resizable=0;points=[];autosize=1;strokeColor=none;fillColor=none;fontSize=21;rotation=-90;" parent="1" vertex="1">
          <mxGeometry x="50" y="615" width="80" height="30" as="geometry" />
        </mxCell>
        <mxCell id="La0mF4zBbgv12rZsY-rS-32" value="Servers" style="text;html=1;align=center;verticalAlign=middle;resizable=0;points=[];autosize=1;strokeColor=none;fillColor=none;fontSize=21;rotation=-90;" parent="1" vertex="1">
          <mxGeometry x="45" y="305" width="90" height="30" as="geometry" />
        </mxCell>
        <mxCell id="-G5sqYNaFbncspfMAFaL-3" value="" style="sketch=0;aspect=fixed;html=1;points=[];align=center;image;fontSize=12;image=img/lib/mscae/Docker.svg;" parent="1" vertex="1">
          <mxGeometry x="249.91" y="587.5" width="46.34" height="38" as="geometry" />
        </mxCell>
        <mxCell id="r-mIFkiKNKntOMGs5Eci-2" value="" style="shape=image;verticalLabelPosition=bottom;labelBackgroundColor=default;verticalAlign=top;aspect=fixed;imageAspect=0;image=https://www.atcomputing.nl/assets/img/atcomputing_white.png;sketch=0;imageBackground=none;" parent="1" vertex="1">
          <mxGeometry x="388.81" y="34" width="266.19" height="86" as="geometry" />
        </mxCell>
        <mxCell id="r-mIFkiKNKntOMGs5Eci-3" value="Orchestration" style="rounded=0;whiteSpace=wrap;html=1;fillColor=#60a917;strokeColor=#2D7600;fontColor=#ffffff;fontSize=20;sketch=0;glass=0;labelBorderColor=none;comic=0;" parent="1" vertex="1">
          <mxGeometry x="63" y="180" width="1028" height="40" as="geometry" />
        </mxCell>
        <mxCell id="r-mIFkiKNKntOMGs5Eci-4" value="Virtualization" style="rounded=0;whiteSpace=wrap;html=1;fillColor=#1ba1e2;strokeColor=#006EAF;fontColor=#ffffff;fontSize=20;glass=0;strokeWidth=1;perimeterSpacing=0;labelBorderColor=none;labelBackgroundColor=none;" parent="1" vertex="1">
          <mxGeometry x="65" y="490" width="1028" height="40" as="geometry" />
        </mxCell>
        <mxCell id="4tljcvQNYpZQ7Z10ZAVo-13" value="" style="shape=image;verticalLabelPosition=bottom;labelBackgroundColor=default;verticalAlign=top;aspect=fixed;imageAspect=0;image=https://upload.wikimedia.org/wikipedia/commons/thumb/1/1b/Traefik.logo.png/1200px-Traefik.logo.png;" parent="1" vertex="1">
          <mxGeometry x="253.87" y="637" width="38.42" height="53" as="geometry" />
        </mxCell>
        <mxCell id="YPGmA1i3TQfYnXC-d4_O-3" value="" style="shape=image;verticalLabelPosition=bottom;verticalAlign=top;imageAspect=0;aspect=fixed;image=data:image/png,iVBORw0KGgoAAAANSUhEUgAAAHgAAAB/CAYAAAAkYQZqAAAAAXNSR0IArs4c6QAACQpJREFUeAHtnXnMHVMYxkvQ2lqx1v7F1ia1JGKLoI1EbRFrglCxNPxDGxGpiiV2sZXQImmqiNj/sERDigRpa5cghCKplpaoXVHb76keuea7M3fmzpmZc8993+T55puZc97zvs8z6zkzc4cM6X3bhRSeAmt6TGUdfD0JdvLo01wVZGAE5W8Ev4O/gW+B5fM3cAMYDsxqYkBCTgTLgERwqEJg53sp7ZwJfLaBO7MkAwex4G3giG+d+iRfh+hW3+7/N1l+ADDzzMD2+HsYOKLbTesQ2LX7ILFs6znHvnS3PllfCVYAR27atE6BFcMv4HKwLjAryMAalD8FLAZpgiaX1y2wa38RMZ4EzHIysA/l5gNHYN5pUwK7+F4m5j1z5tiXxbYk69ngL+BIKzJtWmDF+ieYCbYAZqsZGMp0KvgRFBE0WTYEgV1M35PLhUBX431tx5L9p8ARU2YaksAuj4/I7bB+VHh3kn7Bk7COzBAFVmwv9ZPAm5LsneAP4ITxNTWBG9yS1qbtyeDbCoR1G4gJ3JDAOgd9UKGwJnCGsD63+mQzo1jwNJgDRidX2nw9DFQhsIbxbgbvgiPrScNaqYMBbSxng6+AO2zWOfW5saaNJnWTz0t1kF91G2Np4J2GhHWkxyTwdLjcq2rR8vgfoNCjwJHc5DQmgbWzqMt2FhgJajcN410NVoAmRW1tOzaBXW4/wPEUoC7dyk3DeBPAEuACCGGqx3cUmy9r+hzc7nS3kOSO9pVgOz/7snABCEFQF4MeirsJ+H4oLkSBXc5zyXdX4M22wtN9QOcE10gIUz0quzOowkIWWNyrq/cOsEmZ5IdR+WLwEwhBUBfD+8QzHlRpoQvsuFgOCeeBtYqScTwVPgPOUQhTJTMJFE6GOkWtVwR2uuTe6PeAiReBqxjCVIejGaDU4Yj6RazXBHY6pb6NsRnZ3wX0yIkrHMLU+wVFTpV7VWBpNuhtjPNZ+F1gwi4kHj3t0ZT1ssBux1wKeWeJQLcghKlu6i8CtdzUK/kUi0Fg6bmyjguWFA7/t1jB6FZM4mrLM/PEQAgCzycXXR2/4Sknc9PCgM/+2xa3uf5dTKlTwf7AxM1FWfFCTezBGqBQ9+L1QO/3mFXIQN178CPkMhpcBnyKuyP+fA424C4Oq0vgt6HrIHAiWOSRug3xpSOBenJM4BRiq7w90jDeROB7Q5KYp4MvgYvfZxvR3CbBz38EOaJ8TH/Hr86zw9WAZ9NF2esgGacJPJiTleI+SVTZ+aqG8bYh1gcy4jWBB2vpVeCvIf9Q4Nv0Br0uyn4GWRufCTyYH689WZ8gwLPAp+miTJ8x2s6n037y1cR9cB5+9ab8reDAPIWtTDoDPg9r6a3kX7M5RWcCXUSZuPl5Sy0Zyh6s2xL1R18KqrjyTiUg9hUhCHwUJOtdpqoeoItdw8z8mhZ4FtGdkRmhrSzFQNPn4DGlorfKHRloWuCOAVqBcgyYwOX4C762CRy8ROUCNIHL8Rd8bRM4eInKBWgCl+Mv+NomcPASlQvQBC7HX/C1m+7J8knQWx6dRfN8V0wC681IswQDdohOEBLbrAkcm6KJfEzgBCGxzZrAsSmayMcEThAS26wJHJuiiXxM4AQhsc2awLEpmsjHBE4QEtusCRybool8TOAEIbHNmsCxKZrIxwROEBLbrAkcm6KJfGIaLvwjkVvZ2Si4iSKJ1Urq84d/lVV1dX29DKePeva82SG65yXMTsAEzuan59eawD0vYXYCJnA2Pz2/1gTueQmzEzCBs/np+bUmcM9LmJ2ACZzNT8+vNYGrl/Dj6ptIb8EETuem7JrPcKAfGFv1yydlnXVbP6auym458F1PPwV4LbgFNN7daQL7k1cfSr0f6Jdj9B3rIMwE9iPDAtxMBq/5cefPi52Dy3H5BdUnAH2kPDhxlZrtwWKhuP1KFX1+8Tqg71j7tINxpo+fe7Osj2wXWafDVFF7lQpF2sgq6/NopPHgtLYeY90A8G074PBxkNZuN8u9fvE9doHfgfxxwLdtgMNrgI4K3YiYVccETlGrdQ/WTxWcA3weIdSsPhNxGtB5PEukMutMYMhtZxJYvxwzDWzUrkDJZftR3+fpKW0j8PqbDSVzDqr6n0SzO/jQc1Rb408/5HUKqOVDL3YV3V5BCexT3GH4uwBMBeuD2swErp7qE2jiRjBQfVODWzCBB3Pia4k+63QbGOvLYTd+fF8ZdhNDbHU2I6G7gD7M1qi4Itb2YLHgx9bGzbngcjDCj8vyXrQHq5P82/Ku+trD4WT/LtAQYSjiatjyErDKNuHvDKD3e9LuqTotj6knaxUpOf6MoswzJTjrxGk36/X6zmwwEgyy3VjyPOjGcT8JrM4P7a3qDOmGq6rqzCOevUFHO44Sn4IigfSDwDqlqdvyq4LcFOGxm7KfE486TwrZUErrxvxHkKfR2AUeBw8acMjDRV1lfiGeK8F6oGvbkpr3Ah3bswKPVeAB8n60Q+5ZvFS17hFi2g54s33wNB+kBRybwOpSvBqsyMg5jYsql+v++kBQiamD/FSwGCSTiElg9Q8saZNjMuc655cRz0RQS+dUu607JoFbx4PrFLFdW3r09iYwHNRuA7SoR1gUmAk8+KjWTrAiy56C151B4zaOCO7uIgqfg94+D11N78Hvw+X4LvgMrooJ/P+9fjkKTQK6BojCTOB/BVYX8XSgLuOozAQeMmQuiu4alaotyfSzwAvh4ZgWLqL8tx8F/gElpwBdyEVv/SSwunpngbbDeLEq3S8Cv4KAe8UqYlZeR7BS56IiN/9pZUO8D15EbidnEdAP63Qu0jlJ56Y08fIsD0lgDeNdAUoN41E/KtO56R7QaVgyTexQBH6IHLwO40WlMsnokZN5IE3ItOVNC/wmMR8AzHIwoGFJPYKyGKQJmlzelMBLiVFf0vHZPu76wzQseRXIM+juk2BdFyQ3oOS8hvFuAI0M49FuVDZANp0em6lT4CeIZ6eoGA4kmbHEkfbgWx0Cv0f7hwTCRbRhSEg9uvo1aD1sVinwN7Sl11KiGcYjl+BND59PAyuBhK5CYPm+HWwMzBpiYDTtzgG+BX4On2Mayslbs/8APm5+d7FAfdEAAAAASUVORK5CYII=" parent="1" vertex="1">
          <mxGeometry x="690.0021534601423" y="34" width="81.08784653985785" height="85.81632610843249" as="geometry" />
        </mxCell>
        <mxCell id="4tljcvQNYpZQ7Z10ZAVo-15" value="Consul / Nomad Demo" style="text;html=1;align=center;verticalAlign=middle;resizable=0;points=[];autosize=1;strokeColor=none;fillColor=none;" parent="1" vertex="1">
          <mxGeometry x="508" y="137" width="140" height="20" as="geometry" />
        </mxCell>
        <mxCell id="4tljcvQNYpZQ7Z10ZAVo-16" value="" style="endArrow=none;html=1;strokeWidth=1;" parent="1" edge="1">
          <mxGeometry width="50" height="50" relative="1" as="geometry">
            <mxPoint x="365.83000000000004" y="134" as="sourcePoint" />
            <mxPoint x="795" y="133" as="targetPoint" />
          </mxGeometry>
        </mxCell>
        <mxCell id="kVk3VaA8d4-bThML82Me-1" value="" style="shape=image;verticalLabelPosition=bottom;verticalAlign=top;imageAspect=0;aspect=fixed;image=data:image/png,iVBORw0KGgoAAAANSUhEUgAAAIAAAACACAYAAADDPmHLAAAAAXNSR0IArs4c6QAACRlJREFUeAHtXWePFWUUXhTBgjExGo2JfjBREViaSlPD4ib2FjWxJIINe+/6QS76B0yMX/xkooLYUYoVCSL2BgiC4tpFJBp7TAR8nnWGjHdn3mlvnXtOcnZm5y3nnOc955k7c8sM6urqehnaCxXpLATWI9wRO+DPPZ0Vt0QbIdDCdsug6J9XsD0m2pdN8xFYhxBHQLeSASjCAv/h0Cl/Wwh0K4ONGYD7S6DTuCPSaAQ+QXQjof0JEDMAIxYWIArNlxZC7F98hppkAP7/KrSHOyKNRGAtohoF3Z4ASQZgxMICRKG50kJo2xefYbYzAI8thU7ljkijEBhQ/YyunQF4rMU/Io1DoIWI/lf9jDCNAXj8NehR3BFpBAJrEEU3dEACpDEAI76Lf0Qag0ALkQxYfEaXxQBsWw49kjsiQSPwMbwfDU1NgCwGYMTCAkQhfGkhhNTFZ2gqBmD769Ap3BEJEoHV8JrVvy3LexUDcIywQBZyYRxvwc3MxWcIeQzAPiugk7kjEhQCudXPaPIYgH2EBYhCeDILLiurnyEVYQD2ewM6iTsiQSCwCl6OgeYmQBEGYMTCAkQhHClU/QynKAOw75vQidwR8RqBlfBuLDS3+hlFUQZgX2EBouC/FK5+hlKGAdj/LegE7oh4icBH8GoctFD1V4nguGhyGhD1D4PTqixq2TFvy+J7mfwfYl3KMnr5ATByPHQx1BfZBEceUDgzE237RO2/YHufou90tB0Qtf+M7f2KvjPQtr+i3XbT6TA435bRd2DIl1MAz3sqYWXEvvapOqJtWaLvhpy+fLc0ntf19gP4Urr6GV+ZqwD2j6WpVwSVQIxBcbidBdtMwtJSNQF4Cni3tDUZYAIBVv+zVSeumgC0x6xrmoTIALXWoU4CLMLqv9ewDAgtAd4H/s/VWYM6CUC7tbKvjuOGxoaWALXxH1wTyIUYzywcX3OeOsMZw96KCZIxcoGHKvomC4Lj4kvCtCGqedL66z5G9l2ge9Iq852MQdtErWNwUpXFMjWGLCBJYA8D767ATpEEsFoAJ+qqZF0vejgPz0l8J8q2bIbBOQqj56Ftr6j9V2wfjPbTNmfh4H5Rw2/Y8konS3rREM+b1cfEcd6F9fId2VPhmIvTgKlbwfwhBZUsR6OLeE9QOVW2Lfmqt+zY9v68Hs1bjPYxvv2vixFNxcXq1/pGnM4EYDXMMhW5g3l9TAbt78HoTACuEe9Jh8wCyUVP7jvIvwEm+TmM5wccrXlAdwKQBVo1fXI5PLnoyX2XPsW2jbCr7gSgs/OhK2OvA9v6tugxfPwspvbq5+QmEsA2CzCGYQqtGqNPyWCk+pkApoLkvHwt0E0jngkTNEva8fg7qyOOD4G291d0r9zE72ME+d3MM+A4wRath8GxlVPH8UBWxypJgFoFwO9kGhXTFHYmvH/CaARdXT9h/mcUNvhp2T2j9t+xfUzRl/fY943a/8J2rqJvD9oOVLTraGL1v6RjIldzMMFWQ02eBvLuO1T9VPDGHNCYHCbjWpFjX0tz1VfIRY0ToFbRzh70M82IZULUftcvzbjpBKDNJ6H8pSqR4giw+vkkF+NiIwHIArONR6LHgC8MYKX6CZmNBKAdssAa7nguPiQAf5mNT3CxIrYSYCuiCYEFfEgAa9XPDLOVALTFy8G13DEgO2LOLDVgrn9KE8nCD5ksMeWwD/OeDSdMXjrlzU0m+kOhWxL+sS8/bsZvCfPjYX9CeWs42SfPXtn2aZi/0ULGIQuUBaYT+i9r9MongjtHEiC1AJxUv4nzWGKtU3fJArwvMDy11exB0vgihYketLn4pC+rf6rCr8Y1nYuIXNB6Xw6SXAgXfvXk+GWsmdXoQubB6DoXhnNsumDEpfCJ6kRcJQBfYd/tJGL/jM72zyU7HvG6nSxgk3LzTgG2v+zh/JrfFQMwxXg97RsL2D4FdGz1MwEoZIH1UFsskMcAfBfOli/Oqx+xWr0VTHvt4iMLtPto6v+WqYnLzGub8tJ8Iwvw7uBBaY2aj/HFJ2/tZskeaBic1ajxOKu/V+N8wU91PiKwRb0+2Dk6+BXTHABZ4NMOSQIrn/TRvD5WppveIQkgj+TNSCeeez9reBIE/RHvjHXTenhGwxNAHsWbky5kgQ0NTYIXc2KX5giBC7D14ZW6bh+k+gumeBNZ4IWCsUu3CIELsdVdgS7nmyIrWw4BssDnDUkCI7/sUQ7OMHtf1JAEmBwm/O693gku9AWeBIvdwxi2BxcHngCTwobfvfchs4BUv6b8uSRQFpioKf6On4Ys8AXU5WVcWduq7x50/IJWAWBmYAkwoUqQMiYbAbLAl9Cyleii/8LsMKSlDgKXBpIAUv11VlkxdgjafGeBBQr/pUkDApdhDhe0XtTmERpilCkUCJAFvoIWXRCb/fjEFBELCFwOGzYXtqitwy3ELiaAAFnga2jRhbHRj09KEbGIwBWwZWNhi9o4zGLsYgoIDIX6wgJ8QoqIAwSuhM2iFWqy33gHsYtJIEAW+AZqcnHz5lb9TL0skgUErnKcAOMsxCgmFAiQBb6F5lWqiXapfsXC2Gy62kEC8GvmUv02V1lha2e02WaBpxX+SJMDBK6BTRM0nzYnq3+sgxjFpAIBssB30LQF033sKYUf0uQQgWstJACrf4zDGMW0AgEbLMAnn4h4jMB18E035cfzsfpHexy7uAYEdoF+D40XTefW9AMwZQE1IXC9gQRg9Xdr8k+mMYwAWWAjVGf1P27YZ5leMwI3aEwAqX7Ni2NjOp0soHrYtI1YxEZFBG7EuLqnAVb/qIr2ZZhjBHaF/R+gdZJgnuMYxHxNBG6qkQCs/pE17ctwxwjUYQGpfseLp8v8zZio7GmAzzEYocsBmcctArvB/CZomSR41K3LYl03AreUSACpft3oezBfGRaY64G/4oIBBG7FnHmnAVb/oQZsy5QeIEAW+BGqSoI5HvgpLhhE4DZFArD6hxu0LVN7gMAw+JDFAo944J+4YAGB22Gj/TQg1W8BeF9MkAU2tyXBw744J37YQeCORAL8g/1D7JgVK74gsDsciVngIV+cEj/sInAnzLH6D7ZrVqz5ggBZ4F5fnBE/3CDgw8Oz3UQeWf0XizdmlqzKA30AAAAASUVORK5CYII=" vertex="1" parent="1">
          <mxGeometry x="214.39" y="281" width="48" height="48" as="geometry" />
        </mxCell>
        <mxCell id="kVk3VaA8d4-bThML82Me-2" value="" style="shape=image;verticalLabelPosition=bottom;verticalAlign=top;imageAspect=0;aspect=fixed;image=data:image/png,iVBORw0KGgoAAAANSUhEUgAAAIAAAACACAYAAADDPmHLAAAAAXNSR0IArs4c6QAACRlJREFUeAHtXWePFWUUXhTBgjExGo2JfjBREViaSlPD4ib2FjWxJIINe+/6QS76B0yMX/xkooLYUYoVCSL2BgiC4tpFJBp7TAR8nnWGjHdn3mlvnXtOcnZm5y3nnOc955k7c8sM6urqehnaCxXpLATWI9wRO+DPPZ0Vt0QbIdDCdsug6J9XsD0m2pdN8xFYhxBHQLeSASjCAv/h0Cl/Wwh0K4ONGYD7S6DTuCPSaAQ+QXQjof0JEDMAIxYWIArNlxZC7F98hppkAP7/KrSHOyKNRGAtohoF3Z4ASQZgxMICRKG50kJo2xefYbYzAI8thU7ljkijEBhQ/YyunQF4rMU/Io1DoIWI/lf9jDCNAXj8NehR3BFpBAJrEEU3dEACpDEAI76Lf0Qag0ALkQxYfEaXxQBsWw49kjsiQSPwMbwfDU1NgCwGYMTCAkQhfGkhhNTFZ2gqBmD769Ap3BEJEoHV8JrVvy3LexUDcIywQBZyYRxvwc3MxWcIeQzAPiugk7kjEhQCudXPaPIYgH2EBYhCeDILLiurnyEVYQD2ewM6iTsiQSCwCl6OgeYmQBEGYMTCAkQhHClU/QynKAOw75vQidwR8RqBlfBuLDS3+hlFUQZgX2EBouC/FK5+hlKGAdj/LegE7oh4icBH8GoctFD1V4nguGhyGhD1D4PTqixq2TFvy+J7mfwfYl3KMnr5ATByPHQx1BfZBEceUDgzE237RO2/YHufou90tB0Qtf+M7f2KvjPQtr+i3XbT6TA435bRd2DIl1MAz3sqYWXEvvapOqJtWaLvhpy+fLc0ntf19gP4Urr6GV+ZqwD2j6WpVwSVQIxBcbidBdtMwtJSNQF4Cni3tDUZYAIBVv+zVSeumgC0x6xrmoTIALXWoU4CLMLqv9ewDAgtAd4H/s/VWYM6CUC7tbKvjuOGxoaWALXxH1wTyIUYzywcX3OeOsMZw96KCZIxcoGHKvomC4Lj4kvCtCGqedL66z5G9l2ge9Iq852MQdtErWNwUpXFMjWGLCBJYA8D767ATpEEsFoAJ+qqZF0vejgPz0l8J8q2bIbBOQqj56Ftr6j9V2wfjPbTNmfh4H5Rw2/Y8konS3rREM+b1cfEcd6F9fId2VPhmIvTgKlbwfwhBZUsR6OLeE9QOVW2Lfmqt+zY9v68Hs1bjPYxvv2vixFNxcXq1/pGnM4EYDXMMhW5g3l9TAbt78HoTACuEe9Jh8wCyUVP7jvIvwEm+TmM5wccrXlAdwKQBVo1fXI5PLnoyX2XPsW2jbCr7gSgs/OhK2OvA9v6tugxfPwspvbq5+QmEsA2CzCGYQqtGqNPyWCk+pkApoLkvHwt0E0jngkTNEva8fg7qyOOD4G291d0r9zE72ME+d3MM+A4wRath8GxlVPH8UBWxypJgFoFwO9kGhXTFHYmvH/CaARdXT9h/mcUNvhp2T2j9t+xfUzRl/fY943a/8J2rqJvD9oOVLTraGL1v6RjIldzMMFWQ02eBvLuO1T9VPDGHNCYHCbjWpFjX0tz1VfIRY0ToFbRzh70M82IZULUftcvzbjpBKDNJ6H8pSqR4giw+vkkF+NiIwHIArONR6LHgC8MYKX6CZmNBKAdssAa7nguPiQAf5mNT3CxIrYSYCuiCYEFfEgAa9XPDLOVALTFy8G13DEgO2LOLDVgrn9KE8nCD5ksMeWwD/OeDSdMXjrlzU0m+kOhWxL+sS8/bsZvCfPjYX9CeWs42SfPXtn2aZi/0ULGIQuUBaYT+i9r9MongjtHEiC1AJxUv4nzWGKtU3fJArwvMDy11exB0vgihYketLn4pC+rf6rCr8Y1nYuIXNB6Xw6SXAgXfvXk+GWsmdXoQubB6DoXhnNsumDEpfCJ6kRcJQBfYd/tJGL/jM72zyU7HvG6nSxgk3LzTgG2v+zh/JrfFQMwxXg97RsL2D4FdGz1MwEoZIH1UFsskMcAfBfOli/Oqx+xWr0VTHvt4iMLtPto6v+WqYnLzGub8tJ8Iwvw7uBBaY2aj/HFJ2/tZskeaBic1ajxOKu/V+N8wU91PiKwRb0+2Dk6+BXTHABZ4NMOSQIrn/TRvD5WppveIQkgj+TNSCeeez9reBIE/RHvjHXTenhGwxNAHsWbky5kgQ0NTYIXc2KX5giBC7D14ZW6bh+k+gumeBNZ4IWCsUu3CIELsdVdgS7nmyIrWw4BssDnDUkCI7/sUQ7OMHtf1JAEmBwm/O693gku9AWeBIvdwxi2BxcHngCTwobfvfchs4BUv6b8uSRQFpioKf6On4Ys8AXU5WVcWduq7x50/IJWAWBmYAkwoUqQMiYbAbLAl9Cyleii/8LsMKSlDgKXBpIAUv11VlkxdgjafGeBBQr/pUkDApdhDhe0XtTmERpilCkUCJAFvoIWXRCb/fjEFBELCFwOGzYXtqitwy3ELiaAAFnga2jRhbHRj09KEbGIwBWwZWNhi9o4zGLsYgoIDIX6wgJ8QoqIAwSuhM2iFWqy33gHsYtJIEAW+AZqcnHz5lb9TL0skgUErnKcAOMsxCgmFAiQBb6F5lWqiXapfsXC2Gy62kEC8GvmUv02V1lha2e02WaBpxX+SJMDBK6BTRM0nzYnq3+sgxjFpAIBssB30LQF033sKYUf0uQQgWstJACrf4zDGMW0AgEbLMAnn4h4jMB18E035cfzsfpHexy7uAYEdoF+D40XTefW9AMwZQE1IXC9gQRg9Xdr8k+mMYwAWWAjVGf1P27YZ5leMwI3aEwAqX7Ni2NjOp0soHrYtI1YxEZFBG7EuLqnAVb/qIr2ZZhjBHaF/R+gdZJgnuMYxHxNBG6qkQCs/pE17ctwxwjUYQGpfseLp8v8zZio7GmAzzEYocsBmcctArvB/CZomSR41K3LYl03AreUSACpft3oezBfGRaY64G/4oIBBG7FnHmnAVb/oQZsy5QeIEAW+BGqSoI5HvgpLhhE4DZFArD6hxu0LVN7gMAw+JDFAo944J+4YAGB22Gj/TQg1W8BeF9MkAU2tyXBw744J37YQeCORAL8g/1D7JgVK74gsDsciVngIV+cEj/sInAnzLH6D7ZrVqz5ggBZ4F5fnBE/3CDgw8Oz3UQeWf0XizdmlqzKA30AAAAASUVORK5CYII=" vertex="1" parent="1">
          <mxGeometry x="553" y="281" width="48" height="48" as="geometry" />
        </mxCell>
        <mxCell id="kVk3VaA8d4-bThML82Me-3" value="" style="shape=image;verticalLabelPosition=bottom;verticalAlign=top;imageAspect=0;aspect=fixed;image=data:image/png,iVBORw0KGgoAAAANSUhEUgAAAIAAAACACAYAAADDPmHLAAAAAXNSR0IArs4c6QAACRlJREFUeAHtXWePFWUUXhTBgjExGo2JfjBREViaSlPD4ib2FjWxJIINe+/6QS76B0yMX/xkooLYUYoVCSL2BgiC4tpFJBp7TAR8nnWGjHdn3mlvnXtOcnZm5y3nnOc955k7c8sM6urqehnaCxXpLATWI9wRO+DPPZ0Vt0QbIdDCdsug6J9XsD0m2pdN8xFYhxBHQLeSASjCAv/h0Cl/Wwh0K4ONGYD7S6DTuCPSaAQ+QXQjof0JEDMAIxYWIArNlxZC7F98hppkAP7/KrSHOyKNRGAtohoF3Z4ASQZgxMICRKG50kJo2xefYbYzAI8thU7ljkijEBhQ/YyunQF4rMU/Io1DoIWI/lf9jDCNAXj8NehR3BFpBAJrEEU3dEACpDEAI76Lf0Qag0ALkQxYfEaXxQBsWw49kjsiQSPwMbwfDU1NgCwGYMTCAkQhfGkhhNTFZ2gqBmD769Ap3BEJEoHV8JrVvy3LexUDcIywQBZyYRxvwc3MxWcIeQzAPiugk7kjEhQCudXPaPIYgH2EBYhCeDILLiurnyEVYQD2ewM6iTsiQSCwCl6OgeYmQBEGYMTCAkQhHClU/QynKAOw75vQidwR8RqBlfBuLDS3+hlFUQZgX2EBouC/FK5+hlKGAdj/LegE7oh4icBH8GoctFD1V4nguGhyGhD1D4PTqixq2TFvy+J7mfwfYl3KMnr5ATByPHQx1BfZBEceUDgzE237RO2/YHufou90tB0Qtf+M7f2KvjPQtr+i3XbT6TA435bRd2DIl1MAz3sqYWXEvvapOqJtWaLvhpy+fLc0ntf19gP4Urr6GV+ZqwD2j6WpVwSVQIxBcbidBdtMwtJSNQF4Cni3tDUZYAIBVv+zVSeumgC0x6xrmoTIALXWoU4CLMLqv9ewDAgtAd4H/s/VWYM6CUC7tbKvjuOGxoaWALXxH1wTyIUYzywcX3OeOsMZw96KCZIxcoGHKvomC4Lj4kvCtCGqedL66z5G9l2ge9Iq852MQdtErWNwUpXFMjWGLCBJYA8D767ATpEEsFoAJ+qqZF0vejgPz0l8J8q2bIbBOQqj56Ftr6j9V2wfjPbTNmfh4H5Rw2/Y8konS3rREM+b1cfEcd6F9fId2VPhmIvTgKlbwfwhBZUsR6OLeE9QOVW2Lfmqt+zY9v68Hs1bjPYxvv2vixFNxcXq1/pGnM4EYDXMMhW5g3l9TAbt78HoTACuEe9Jh8wCyUVP7jvIvwEm+TmM5wccrXlAdwKQBVo1fXI5PLnoyX2XPsW2jbCr7gSgs/OhK2OvA9v6tugxfPwspvbq5+QmEsA2CzCGYQqtGqNPyWCk+pkApoLkvHwt0E0jngkTNEva8fg7qyOOD4G291d0r9zE72ME+d3MM+A4wRath8GxlVPH8UBWxypJgFoFwO9kGhXTFHYmvH/CaARdXT9h/mcUNvhp2T2j9t+xfUzRl/fY943a/8J2rqJvD9oOVLTraGL1v6RjIldzMMFWQ02eBvLuO1T9VPDGHNCYHCbjWpFjX0tz1VfIRY0ToFbRzh70M82IZULUftcvzbjpBKDNJ6H8pSqR4giw+vkkF+NiIwHIArONR6LHgC8MYKX6CZmNBKAdssAa7nguPiQAf5mNT3CxIrYSYCuiCYEFfEgAa9XPDLOVALTFy8G13DEgO2LOLDVgrn9KE8nCD5ksMeWwD/OeDSdMXjrlzU0m+kOhWxL+sS8/bsZvCfPjYX9CeWs42SfPXtn2aZi/0ULGIQuUBaYT+i9r9MongjtHEiC1AJxUv4nzWGKtU3fJArwvMDy11exB0vgihYketLn4pC+rf6rCr8Y1nYuIXNB6Xw6SXAgXfvXk+GWsmdXoQubB6DoXhnNsumDEpfCJ6kRcJQBfYd/tJGL/jM72zyU7HvG6nSxgk3LzTgG2v+zh/JrfFQMwxXg97RsL2D4FdGz1MwEoZIH1UFsskMcAfBfOli/Oqx+xWr0VTHvt4iMLtPto6v+WqYnLzGub8tJ8Iwvw7uBBaY2aj/HFJ2/tZskeaBic1ajxOKu/V+N8wU91PiKwRb0+2Dk6+BXTHABZ4NMOSQIrn/TRvD5WppveIQkgj+TNSCeeez9reBIE/RHvjHXTenhGwxNAHsWbky5kgQ0NTYIXc2KX5giBC7D14ZW6bh+k+gumeBNZ4IWCsUu3CIELsdVdgS7nmyIrWw4BssDnDUkCI7/sUQ7OMHtf1JAEmBwm/O693gku9AWeBIvdwxi2BxcHngCTwobfvfchs4BUv6b8uSRQFpioKf6On4Ys8AXU5WVcWduq7x50/IJWAWBmYAkwoUqQMiYbAbLAl9Cyleii/8LsMKSlDgKXBpIAUv11VlkxdgjafGeBBQr/pUkDApdhDhe0XtTmERpilCkUCJAFvoIWXRCb/fjEFBELCFwOGzYXtqitwy3ELiaAAFnga2jRhbHRj09KEbGIwBWwZWNhi9o4zGLsYgoIDIX6wgJ8QoqIAwSuhM2iFWqy33gHsYtJIEAW+AZqcnHz5lb9TL0skgUErnKcAOMsxCgmFAiQBb6F5lWqiXapfsXC2Gy62kEC8GvmUv02V1lha2e02WaBpxX+SJMDBK6BTRM0nzYnq3+sgxjFpAIBssB30LQF033sKYUf0uQQgWstJACrf4zDGMW0AgEbLMAnn4h4jMB18E035cfzsfpHexy7uAYEdoF+D40XTefW9AMwZQE1IXC9gQRg9Xdr8k+mMYwAWWAjVGf1P27YZ5leMwI3aEwAqX7Ni2NjOp0soHrYtI1YxEZFBG7EuLqnAVb/qIr2ZZhjBHaF/R+gdZJgnuMYxHxNBG6qkQCs/pE17ctwxwjUYQGpfseLp8v8zZio7GmAzzEYocsBmcctArvB/CZomSR41K3LYl03AreUSACpft3oezBfGRaY64G/4oIBBG7FnHmnAVb/oQZsy5QeIEAW+BGqSoI5HvgpLhhE4DZFArD6hxu0LVN7gMAw+JDFAo944J+4YAGB22Gj/TQg1W8BeF9MkAU2tyXBw744J37YQeCORAL8g/1D7JgVK74gsDsciVngIV+cEj/sInAnzLH6D7ZrVqz5ggBZ4F5fnBE/3CDgw8Oz3UQeWf0XizdmlqzKA30AAAAASUVORK5CYII=" vertex="1" parent="1">
          <mxGeometry x="896" y="281" width="48" height="48" as="geometry" />
        </mxCell>
        <mxCell id="kVk3VaA8d4-bThML82Me-5" value="" style="rounded=1;whiteSpace=wrap;html=1;shadow=1;" vertex="1" parent="1">
          <mxGeometry x="630" y="540" width="170" height="180" as="geometry" />
        </mxCell>
        <mxCell id="kVk3VaA8d4-bThML82Me-6" value="client3" style="text;html=1;align=center;verticalAlign=middle;resizable=0;points=[];autosize=1;strokeColor=none;fillColor=none;fontSize=17;" vertex="1" parent="1">
          <mxGeometry x="685" y="550" width="60" height="30" as="geometry" />
        </mxCell>
        <mxCell id="kVk3VaA8d4-bThML82Me-7" value="" style="shape=image;verticalLabelPosition=bottom;verticalAlign=top;imageAspect=0;aspect=fixed;image=data:image/png,iVBORw0KGgoAAAANSUhEUgAAAHAAAACACAYAAADTcu1SAAAAAXNSR0IArs4c6QAAEBpJREFUeAHtnQl0FEUax6t6JiQEUBCFsOgmqGQi+ECE9cQDCazy1t23q7Ku7hM8CKCoJBguE8hFBPKEIEcAF1lWn7visftcV12SgAerb128QIQJxIASjighJJNzurv23xMakjDJdCZ9VE+m35tXPdXVVV99v676qutqSkLwGL5jeUyT2LCEMnY1oY45JRPSdoZgNn1ZoqGUseF7t/ZoOup+mhKWzhjro+YNmXydRgrz3Lell6l+oeKGDMCE4sy7JZmuJIxd4R8ObaQCy+/Xu1/uf294qtp/GPv52h7gsO1Zw0WJ5KPEJWpUfwUVaPrI8QmbXqeTJY33cBvMtgCHf7LiItHjWcwoe5wx4uyshimlewilKSWJ6UWdvZen8LYDeB/b6vi6eP90IrNsRshFXVcm/afgpKnuO9LdXY/L/BhsBTB+W+Z4QMuHmq7WU1WUEpFRsrZHdJ+svTelVOoZt9Fx2QLg1cXZVzRJLI8R9lsjFUIJPcUEknFB34EFn4+Z7jUyLb3i5hqga+eyPqyuYQEjNIUQFqlXpgPFgxJZIlBhzv7E9HcChbX6OpcA0aKkruIlDxEmLUUDJcYqJaGhUyQQkrJ/wqI9VskQKF3uACYUZd0oM7IKEH8RSHhzrlMJJXJTVHTP9N03p1aYk6b2VLgBGF+cM5hI8lI0Jh7Eyzg3cqmqRGmsoYwuuXzIhfnvDX2qUfW32rVcUbfv2BxVLh6Zg35L2DrWy2qFBEofDZ0ydNXNc09c/HqgsGZctxRgQmHmPTKhz6O6jDUjs3qmgWp1J2WOZPfEtF16xtvZuCwBGL89aySTyCpUlbd1VmCuwlNUqoS8TARhYcn4tHIrZDMV4KiPci+pa/Bmy4RMQ2bRwAuZo45SYXmffgPy8P5YZ2auTAE4eteGCM+pE08AXAZK3YVmZtDMtNDQKSdMWOCe8OwrOEenkfGH4QBdRdl3wsYpowUu47PDRwqwj7CLjmQzBpINA+janu1iElsBcJP4UKv5UkC5hg8k6w5wdOHSC2tY0yJCyZOAF2G+2nhL0diBZN0AZjAmvFqU8yigLUG/5SW8qZEDeQwZSNYF4NDinFupJK2C1b6GA0VxLQIaN7oOJHcJ4FXFObGSLC9HqZvMtdZ4FI7SdwQHfaarA8lBAcRrQXR15fH5sHOphJEoHvVjB5lQGr2YErKuKwPJnQaYUJj1gMTYMijoUjsoyQ4yAkIlE2hmMAPJmgG6tuWMYcRn526yg1LsKCNKpFug9JnODCQHBNg8y7k+lxA6lcdhHjuCCiQzQGoeSG4XoDLLWSx3J6OOfhaNlLOznAMl3u2uU/I92gE/1z/f2gaS/QJ0FWb+RhnmQYlrZ5az/uLaLkZKvhUomYX5OqOYzJ43UP5qgQi57Q0ktxoRUGY5xxdmFWJKwz/C8PwjQT+nBxOCUy/oF3ONO3HxDv+hdPW9QCby0tKyqn2ubZn3tY3ZN6NZmeXsrfVkihKbEcws57aRhup/wHuNsqiUkonzjpqdR8xWGIKOkq3xhZmtBpKd8YXZyV5PTRou6jDL2exsmZTemerSpBLXYaZQwMYyKn829P2Mv9djXFVgTM7BsHJVh3d104vN1aUw18TqUpOmWZPX462o/F3k9xUJShUajVbU5XArIDCAkos1xRLigZTqkgiOOQcsmirhV72y7BEra6LlmtrmtwLqaLWqZwDgEUbpYYGwGJybNhPar7AWeeIdbB+Wn81yj0/fbpEI/pJtkE7VEOm0pzcal62un7csC9P7YhFERkYO4/0vtlXoEP6jVJfIc3bvvgNXcrQuQpI9dTVSZU1fJvlfyngewDOMUJX64GGyDvEA+oAQZoe3AroVM8tS3BxVl3JD04/SyapLWJPYtyPdtwdQvSca8KIB8SQmJPXENJ1o9UIouOjF2I98zCqZsKiYl/wwUa6QfjrVX65v1DQoHgigL1+A2F/pssGs5GNoscaESp9o1MDoMbtHptZyAY+xSvGn6kjZU9up2q5VT0ygjOBlchDgoZ1DuVvkEUh2f9cHR0eK/vxN9quVqzwV3sPHLwK8Ti8t0FQC22RIsY8DQLEOpVIC0HBHdxsFafmLQuCVPPVHxZNVsVjU02lwahrBAPTdi9aqzx6ixVqFqhUQmUONNOx2rAG8iJeKFVWxstfb5VZ+0ABVEVEK0UpCnzyllSiZ4e44VTH+XEk+JP5U1U+ua9BtlKfLAFU5m+FRiVBWB57halVVDFzUVsfFymqvVF0b18Jbl1PdADZLg2pUgUdpPUqmA1B76CKlbSNh1dLp2iPyqZph0IUhudAZ4BkZGevpExerWrtjI8fXQKmv3y1VVI1gkjzMEHJnIjUGoCrxuRaqB169Ve9QdpkofYGRgljW6B1tRj6NBXguB+iEJZilQbH3innbhZxL3vgzJsvfyj9W9ZDqGq41PrVzKZgFUOnGQaeBAo824rxHqPTmoKTVoXHyGX7XnVOreWed6onRRyxAbN6FAgPKnTwoLXVQci9Kcr5iZzp5tyHBm8p/irYKnpIhCwCe1WPP5jOUyICHskSLZg12Xnb1/gmL3zwwYVFyhDNiGCC+FfDWEA9gXhXariJ9NlGxj+hq9dObQ+m/ezgjZu0dt+BgSYs4lP/4e098Yc5Y7Oj0PFq9llRhLUSy5JQDgL58YxKA78VDqRZ9i0JRusrxm+1OTH+jI80oy5jxjnVDfOGS+ymVn8N5bEfhQ+2alVWoP10q8LC1FX03wtk/IRA8NQKEZwcmpv31Z87LEjAJdj78q9Vroe7yUgKb9UzppwJ1zHAnPrs7GMV/MO7hBty3DNuZvFTbKGag1ZuEgs1XHoPJWAf3cJE5dLtVEirMdyem/UkpTR3Iq+nSl7cu/BEBn4jfkbuaiGIequdfabrRhoEsr0IBb0uvqIiEkgnpL+oBryWDknEL96PFercgkDvQSPqy5bVQObcWIN7nSiYunnqmxBimU2VG9YOJ6WOo4JiKh6TcsIQsiNhSgEhc6SM15chAE7UkMW1Ln34D4wVBWKTMtjMlYYMTsRSgwXnzG72ylxlat9kRzp5Dr7/ySS56c/wKqtGz2wFU9bJ33NzjSqlU/9vV7bYA7QqsrdxhgG01YrP/YYA2A9ZW3DDAthqx2f8wQJsBaytuGGBbjdjsv+0BKts520znuopre4DVlSfeiS/Kelz5LJ2umrFJZLYHiGnPF2OjnbVfFe3bje9Q/NJ0vVv8lRkuhpN0UTojw7AI+X1sVPQucTrnKCMRusTbTiSjN2yIOEm+nIUxx/Quj3+1k4YWb/uXwDa5xJSKSUT07nFty1qlbGDU5rIuf2NfnD4J8PZgEs8KwLP0MwohB1AhpIzCy4Q91VBZ+VrsxhmPACqGHbt+DNk00xW3cca7mKL8L8Dj4jMKIQnwHCqqzEHdNOTFmR9e+dL0oNcoxG2e3RfgVmD9+h48DHedi9/6sxAH2KxgKP0W0Uu+its4M/fGrcln5qMGVn4GyxDiNsyYTrwNJYgjGdUld68s3QKggkpRPrYVW3C0qm5v7MaZAUsRYN/2543Hv0BVuR7wNO0YEfiR0D9E6LRCteqGkSHYx+hd2MY3ohzOp92Prmm182Dc5hlxzEvyAPterVFaGa77AVS1zdi9jaI4EVVk+tSkmDVvvezpebqhZj7xsmdQXG2zE3/3BQiQqB4vgLMKVeVUVLHK/iyD4drq6NYAVVIAOUo9t5vbbRoxdgOjVd4wQK2a4jRcGCCnYLSKFQaoVVOchgsD5BSMVrHCALVqitNwYYCcgtEqVhigVk1xGi4MkFMwWsWybU/MiK/zejX8WJfJZDrSN9agNcchFs6WAF1F2Xc2nKgrQL9lXHeGpzyLtgI44j95A+rr6lfKsvxAiBWkoLNjGxvoKsx+uKG2bh+mSIThtcDNfQm8alv2UImyDTKTx7WQO3x6RgPcAlSmzNdUnkgVqZxupwFWs58sfEWUbMEWHFyNYw7dnnV9zakTn2OcbkkYnv9HArttfCzTiFKnss0HPjG+Bvux5kNhN/sPbo6va+eyPqy+MZeJ7HE8Ubaxz+ZopzkVgDuMQje3LGn9VsXHpyT3xLRdJRMXjcWWjn9QApgpkJqWa1v2r7Ed/7eYAYbp6mF4ql7OupTUClRIJxExCSo85Rpgtj5u37E56ph0JBULRuahRAb9RZHWsfr/h4/e5wiRjnVio7Qarct7/IcK3lduEj8WyytuCT4GDu6kMCKEvoIZdPPbzqBTpDsPoCryVR8tGSQ1iM/hEzsPQbnthlPDB+OitP8P0sUjfkPWF9gdIJT+KXXQ2WWPrf+sPf0GBAP7OIYH+9heBjryty1ASo44CJ1fOq3gVTzkHTYwAwJUFYRFlPejMC+FjYpV/Xh37QcQH0yhNK8/G7js8+kZdVr0qxmgEpliH8vFH55BtTwPK4B6a0nAyjB2Aghwf3M4hbmlj6z7oTM66xRANWIz7KOaVldcmwDc5aSOp0uT1n0STF6DAqgmlLA9a7QssXyUxrGqH08u5wCPodQtLJtWsAVuh3auI512CaAacXxRzu8Jk5fxZh95BIhvLeLDJ3RFr740d+/kdV3e8lIXgArIZvt4ZA4l8nxe7CN3ACl9M4o6U93T1pSpD39XXd0AqoLwZB95AYjNZb9C59LsQ0kFH6p60svVHaAqGA/20WqAqC4rAC9tyrSYTRk0w5C9SQ0DqIJ0FWZNhm1cBisdp/qZ5VoFENCaGBFeiIh2Zh/842pDv2FhOEAFllX20QqAaFG+7RCEOaWPrVM+DWT4YQpANRfN9lHKRc/qFKP6V9W0FNdcgPQbB6XJ3yUVFLWUwehzUwGqmbmqeMm1kizh/ZEZOlJgDkB6Ett9Lbqu7/gNr0+ejM2izD0sAahm0Wj7aCxAKsLWre3Ti2buebDglJons11LASqZVezjUe8PKXiKF+j9/mgUQNi59whzphyavsbQ/di0PAyWA1SFHL5jeUyTWJ+LEY8p8NNlOoXeAKGs/YwKKYeTCt5T5bba5Qagqgg97aN+AOkpdFdmxg0dtPaDcRmiKisPLncAVaW4tmXeh3fH5V15f+wyQEokgdANkZGORfunrD2pysaTyy1ARUl3HXghsvTw6RR0lC8Mxj52CSClRU6BJJc+tv4bnoC1lYVrgKqwwdrHoABSehClbk5ZUsHbavo8u7YAqCrQZx8lcSWq1VtVv47czgBEv2U17Fx2dN9BL+ydnNHUUbw8XbMVQFVxWF52L6Y9wj6yIaqfP1cbQHwAi5JNziiSVvrQ+gp/8fDsZ0uAikLP2Ufl/ZH18afkQADxPvdh8zDPOgz32POwLUBV3c32sQFrKNhU+LV6f2wXICVlmLaX+l3S+jfVeOzq2h6gqvhhhVmjRIb5OS3s4/kAqQd2Ltd5aY8VByetblTvtbMbMgBVCC3t41mAmAeJRsqWnixq4b7p+cfUsKHghhxABYrPPh6qSpbrG+/wHj/Zy4Gdeb97dM2uUADWrfIw4i95hi7O4UGZ/wfID4pMzOvIXwAAAABJRU5ErkJggg==" vertex="1" parent="1">
          <mxGeometry x="420.87" y="640" width="41.13" height="47" as="geometry" />
        </mxCell>
        <mxCell id="kVk3VaA8d4-bThML82Me-8" value="" style="shape=image;verticalLabelPosition=bottom;verticalAlign=top;imageAspect=0;image=data:image/png,iVBORw0KGgoAAAANSUhEUgAAAH8AAAB7CAYAAABdLF8FAAAAAXNSR0IArs4c6QAAGc5JREFUeAHtXQlgFFWarveqOokcBlEYBhEIJOnuBHAUQVFRYOfQ9VhHV0SQEcYDvFiXQSAQxuySA8RrvRAPEBQcYVwWFXRVJDooHuABJt0dkEwQ5BgQkSNHd9Wb73XottOp7qrqru6uxC7oVNV7/3v///7/nf/7319EaCcXY4zUFpT1bmTMjiLhR/FjvfE7VRBIZ4R1wq8zE1hnwoQOjAgNRCD1jAknCBHqAXcUWezGcx3g/D+JijtzSf8qUjW6CWHt7iJttUS1hQ/0aJCbRkKQo5ggDEU58iDYU8wuDypIIyrGVtw/w30zyRA32bfNcpuNJxX5tRnhfzd4UYcjxw9dBgGMYkwZBWY5U8EwjhMVoRZ/1hKRrc3s1qsyp3JiQ6poiQevpYXPShj1rCodwWTyB7Tq6wTm77rjKa/5aQmGDUbWEokttl9f/DYpIYr5SBKToyWF77bPtzPinYDxeBxa+lmJKbr5uYKZuxklL0iSuCR/W9FO8zGYm6OlhF/tLDuXMGW2wMjv0dItRZsRtmNYYPi/mhFaVuCa/bmRtMmEtQSD3YXlFyk+CF1glyez8MnBRd6kEi1zVM36MDn49GNJqfCbWzp7CMu0EfpJbpuQhJC3Rcl2b/7XM1xWKUFKhF/7q0e6NDScKBWYcgeWadQqzEg4HUTwgeGPS9nZJXmfTPkx4fg0ECRd+B5n6XiZCQsExn6hQVv7jSZkPxg/w+kuXprKQiZN+O5Bc3NYk7AEM/hLU1lga+Ema8ROWbfat0w7mAq6kiJ8l6P8Wsbk51HALqkopKVxEmEfFYWJjqo5byWbzoQKnxWuzHDL2x+ERu6eZBYMS616LBT3oHC7MZmEvp7sZoTtpoq4n+CPwoQs6OkyBUHJJIzimWUivivCCjEcFWAe0iuZ9HJchNBpTvfsh5KJV0oUspqBFf3cXs9KdPODE4UjkO9JdWslJcIGURQqc78u/jYQF8v9m8HzspuOKwWoEIWoIAP8+wdMGBhLXnrSoHIehfhf1wNrJkxCWr7LUXohWs8baEWnmUlsMC8ifA/C38BCYQOa7oZ+ruK6YFyCHnhllr3yNajMvycC4+UzbZVCRXqDo3r2ygSRHjFb04WP8f1KLOFWmr7DRogXuv116B6XOcTcN1K5zbpj0ILuPm/DVUwhY1FOvskU84VW/wRm/UkdFgPEmip8l6NsAhOUZyEk04YTdOlHGGXP2GwZj+VtnbE7QLhV7m576XkYHopiU0mTT51S/vBUVWTThO92lk5XFDbfNKEQ4RgRaDlh0hMOzwyMida+agbMd8o+7wz0BON0VX4MXVmEnJuMISsS50wRvumCF4SXqJAxA0L/LhLhVg3f6Szt08iEWagAt0XanOIbP9j9uwqbPmtTWY64he/v6pmyxIxCYPzjO2D3YAz8yIz8UpmHp6B8uKwoizHpzQ2nA6ZiFU73nFnh4cl+j2vGyid3/jE+Tqoh9ENgyO2OMbOHtAfBc3bYq2f9rfNpHQahXI+ghQUNPFDWSsdA+5w4WWZK8phbPl/OoWt7N95ZPQj4TMrMuNaKkzlTOIxM/LwS2GIsD7NPETPPyamavs+svOPJJybh8zWvzytvjn8dT5639Tv1rrw3p8BIsn1ftSOWZDUd2tvXSsafhoXfrLL1fBSX5o4ITUA8BePeovYtcmuXzvB6vFlXH7vKFmPgd4yQ65yu4o+tzZr2T52hln9yd+7VWNnCdfBSpu2S9jy+x8qbVKTTLXy+H680CnwpFtO2LAS/h2Sy4Y6tc2pTUdD2hLPGWXoJDGJux27kSEy6MzCR/AdWEWukDNuTRhqWbuFXO0rfxwTvkliYCCQHaIZ4qZUmO7GUI9Vp+JE0j6PsCUVgd0ag5QeRihPtrln/FyG+RbCudT43vYpV8NioPkwl22/Tgm/B95heoFCbF0XwPM8uiqL8xVNYMUQPAk3hc2NLv82dntzCYNAVHZUovdxeNfOrsKj0q0EObB8wtz+2kqdpJYPeJVPx+Z7VguPxmsJvtrKN2dhyYn71rE/0EJKGic4Br5fcjrFdU148F8CdzXcbo+eokRm3q+fm1VqZqMWj1T8LVW3MKwO1PH/OYYSwAiPlhxkbrJCiX1FrEo5OPay3toWiwczend2x272hYennuDnQ2UgOMD07RQs+ovD5EaqYzKyhvZNEcWzPLZNOaCFPx+vnABRjBk/6EI9W7hGF33x2Tit563i0+qK86qIvWsekQ+LhACwAVutNz5fWmb/suUkLXlX4/rE+hkOT/u1K1+xHtJCm441zAPsgb3P+6kkJQ5H/0uMwQlX4/mPSerCEwWCcuQ8EYpqQvhLBgU5ih+uwN7ItWt4wcH2ywFX8VDSYQFwr4XPHCNwYMQCg9w6hv+rwFG/WC5+GM86Bs6qmfn9aRtYwCG0uhtcjLXIgwheQwVgc/Li7RXiUl1a7es0eMYw5RgAhMrXR4ih40lEmcaDH1vuOI6s/sxJW4nqlvEAipKPElH2xGIK20O0jQ+p6uezvUBMYc4VCyWJ0NbeYVL50NkniQIuWz50fAa8hwaPVN9pEoSRJ9KbRmMiBFmM+93plNG90Hc/HezbOKM40vDkcCAqf+7nDpsB1RrNlRFxsNE0a3hocCArf7+DQuJ87l9NdtMUaRUlTYZQDQeFjkjfKaGKsKV80miYNbx0OBCd8J12a6qYMEz2WIYrLdSdIA+rmALfzhzr3Mvjx647zHidwX2/r2/ldvSbu3L+A95h8NyMK/BmSfmjYjZAXdwX3cOihGP9Sjzsxrvc17tVNHQChaXofKscRRtKkYaNz4JvCeb2bZN9zMNf6TTgkhLeTSsLN9qrijeFxoe9+30eNZD3mbzmh4YFnKIJedgzMH09WjZb93T73Xh2I1HuH8NNdvl5m6YDbfk55tyafr1JN8Dw5hNlPloX3PIWlF0fKbvug+b3g9GpjJMH782HsRve2Gr+lj7/b97sdiZRjhHDGpPURoiwV/FzhLV19R+uvxGG5f0U5eWvoiR/3w7MP26TfoRJvlKi05rbaZVtTSbivXn4amyKqrTVIF2M2VIBVOP2To7Zx4/U2TUMt4eWLeqGCTfQ4y/9KOJTLXvoVasugqClCIpHogNMzx9J+9Bb3n3hWo7dhLphxE5gqhpAf6XErpaRoct2KdZEAEhXe3FULO0BnyAQ8Mja4cRkPNy4vhUJsP/+xU71HjuxBeflHJTQvDCOrKDcHBmSeJnQoABE+DX212vPCPuP+1OhtrIExys06Bc+LMAjOJdYu7H3j24vybzwjqWXy0Yv0Cp7TxRQ2PJw+35Fj8CSmT/D+tEQ4m/JPk6DVa5r8hCLD7NOSwl+Xe0/mU73HLmWKAvdvDF278QsV5jdKg/DZon7jBhpPHVsKCLOHwZRwI9fyotSYKxzIPIs2MuJomY32G/b7LWmRW9d4iDtDMKyiDi8xKkBf2ausfy5nbJ/wuES8w4Xct0byxdzFGw4vM7YjPCzaO7r7LynWk/ZoQOFxfH3fwSbhezPWutBdz0RtHmsiVZh9s9eWDRrf0cQ8VbPChHMT+CqrRqoEEiq8Gx4MFy97MXndFB4e5X0dn2AYEj7ga/tsKzocJdOkRz3db2weWuvcBCAedOKwPDMB+bbIsn/VzF34Zs+yFoGRXgipy7Zlwgdh64uI4n2oRNq+DmD44ehx8fMS3Ij1xkRB/9X86TH98EmAVHxCGdAEtZVmogRrpi7qc9NTk+pe2qsnX74OZz5MNIngt7NHpXSJIl3K3bRET08hOGVwtFUXump8yInefNKgo1V2/IMO7oLSG5gi/BUyVecHEbYTQRxDKkf6eMs3ZA8OeEt5yHq2z/gcjPPXt+KESQEQRgdMIO/Uym7foAUdcZbuCVTED3Ce7lZMOC/kP8zNb5Fl+YNqZ+nCA4VPRlyGOd2zDkkd6K+hO32FD63h+KCZq0H4cMC9Hx4X+u6oLl4jEHr+yXx+Gkq4m3dCHrNlZ5+HPGp4GtQO/sHBVrhC82vxjJq8p0VAil9kJl+daBJQAa4BjjnR8BxualwKYUfeElfY5IPK93xWH9E+Mu+LWf9A/JjtheX/7VWUEZBLX7T0Q/h618cOV9EHEJ4uQZ38rs+Ybwsf7npMbsyRRFafW5Dr4Spd5B+8SLVjbg1kr3udDwKKsDkwL5hDih+wtHsHLR8tJrFXhkT63lq7ok4NC0zdxwiK8rJaXHiYmoImHCZZ74a7fYxlGHesc+Hkam4yqPEqYv+IeJgyPWJcWASGEN2wYUlNf+XCjzgOqWHD0rBeLTxVYegHf5kU3Ew+Uw3P9ssfy0TPeY5anFoYhs2B3GpKLS7ZYVjnE0PaPYw6TckmMhK+lYUlGWB8ZqR4U8MjqE59tccMNR5OU0PjQaOTbFOLEsiMYn15IvCi786/UGGNa3RVSRP3/JEUaig7oIYHE7HvwcNjanFqYZix1+c48w6qxSU7DN0+M+TRWqHGeorEF4glZekpCqLqOt8/A8e3dHWXk7A3w2fdutOaDMjHfEPCx5hvaJgwmd7W2THyaetA00Pqu/Ts9kWkXDMlaToUMNrfyeNu5DOEaZHySXY4X+dD+LqWjwHaTg88WONO4XlKnphIWtC614/e9EjEiS5Xz0LBcwf4+AKWnTZVWvwfVCR3O7YW16rGhwX6z0wKsp33zF0yMz6NpNULSxZ89ZxdeiZc592MCWY/6PxxxIu+4+gx7C2u2QsAGW75yEx11hvIMNn3M3p1ewcV+FAi8RJKV2jljwOSK0RRGoLxv1UPgXF+q41KQ6EfWaqVD3QGV8CAc5MiNLkVQV6jCMp73zc27K52zn2gbmDFaVrpuY9fpF8iNwq1UDpB7c1uwX0KPm33unvvxj2IuyqQB4w5dHRXAWj/nfVs8ZriF3+LJKQ0UWSgO/960oTcV/Tkz72OFbjnnCtJ9ByYtY/DbPommyid63DP/pUehxUux9zbiKK8BmFdEIavC5y233fC63uHW+aGxQVfuV/khr17ViP9BLUeCP17d3Tyq932uf6eUhIo+/tP3uCD+UR8ADNyIkamKOKMznlPHfyx5i7UctMVPozS6aSkBCaA+q/8qtlfApr/mi9SFHiKeOcOMaAAeiYiACLQUAc3Hfe9iEdVlbZbrimDKvqyqHkITITt4uM7B5StgwGIoOm7JTQz1J5e3NQ7NCzVz3zJJ9rItaBD95JLD82EkvI765a/qQc2bhhFmaErDyZcuaOwolUl5909BK+5AeXHwVjHRp8yg8Jk0JDweeJGn2+oLkKTCDRp5/JtsNMch8lZKyuXWMhAPq9OnpgfdTMnlnzV0rDBi2yYK/DKq3lBwMTnk8eEA3r37xmKLl235hCmm0MokbS9NoUjwkmQ88PDrPB+57cvvUabj53x3bGYL0rogsl/zB9ttLuPFaHn2A/dIDisvHRfrVTaMqNn6E7NAWHHQe1fFe8xoqHi6dD1W67lc7r4NWnXyxtFm+08aP5WYX4CUo1cZAdm9tdO3rXc8DhvBEs4bMeutsNYETSGh0d6hwFOq8pNRGF/JHi1cOA7wJd6kL2xrh/6/SGYUSKZNa9JO5ftunPXitGijZ6P7nt5dBUwUQDzIdbCk8XunQruqFu+OtmlOmvT1HoI4Q39eKXXw2Ht3YZ9gjx2hYdHfmdr/QLE2u9xCPPuyICtY8QM0dlWPGlvGFEiub7ZMYwSJQfTdnSZpAM0lfuYQPdkZdo2/XHHklYtqXWJExviKSj7F0Vm7/AxPRomVNTV0Beozg8gx2mQ44Jo6Xkc8jiaKZG8k+MM3QAtmSHhyz6FLyncWoisED+ysoRrtbgNnYYdXeqotVfPXg9Tr6lYdj8ShQpXhijdGyne0bHb/7iPHxiGJaFq5eDp+MYSRsOr+31dvN/f7XcSsypR3QytZdH1j49ERDo8Ng7AqdWjIiVj0DSrQ3OAbBowLK3I7GQb5rf0DY0MeSZbJnlhlXsDVLkLIeQWJlscDGFb8bsCp6srm9/5X1ww5/oc0yPdRgk8jU0SC/OqZrUglIenr/g4wL2i1awqu1BWSD9RID8yRVxv9HvC/vN/TeQKtPK+aKgniEjf571LKGXB8QWqRRxxEv4UGqn1jLFjHsafIi24dLw1OeDv9jlplNIWtUIPuags46w869dThp8zTFD4+SRvPVqywd0xdpbHUT7i58zAtlz2oPBJ1egmjA26dq9CCwxt362h7+nntsOBoPA5ybApX2aYdCaMwY7UAMPp0glSzoEWwucfQ0LXX2OEKuhPqaCwUiNp0rDW4EBwth8gB19lKsZZs7mBd913SoZhnfqxbvg0YFwc8BSUD2eycg70/Pgv7hX7dXpdr6u2AOJWwt8xoPSsJp/wjZolSCCR2h09RiWWfSPV4tJh5nEAS/Lford9AjqZFkfsmifr5CGYk1Xoxdai2+eJuBNl1IiX9GYQgMOSbwQnLPCevpvPAf5lUwh+bbjgOSbw/3Q40ixHz/0sVxLpwR4BiM5DBTCk7vUjY2QBtyPTgzgNY4wD3MceHEY9A8FL0VLy4+GeleVjo8EE4lSFz89vw23nqgCQ3jt2pAa5ZU+5Xvg0nH4O+Jp8xWj1WXpSoJLcz65fKWrBqgqfJyJEKsMmAPAZvBiZmu7+DfJMBzgTlFE6wJpBGMv1eDy9teAjCt/pnrkNkn9NK4PweL4fjXRLuTvR8Lj0e+wcwIHaXkZSE5lonq+IKHyOKEMSp6H16zYvChLHhB6+emVJ8D39EBcH+P4J/mEf3sCFj+tpQUcVfm5V0Q5sAs/XykQtHgTj5Mnce9Ti0mHGOIBlHDfveU9vKsA20M6dvtKCjyp8njirx5kVaP07tTJSi0f3/zAc/F6jFpcOM8YBSkTdPSka/Qt5n0z5UQuDpvC5d2ds98bWgrEsgcOkV3CI8XdahKTjo3PA7pq1DkfAFkWH8tvnfd6lQzdddhmawufImhGT2KxamQDvGWx1jbP0Ei3C0/HROSDldP4PiPcB9MStTLR4SgwPG2imcLXeL5hrTgoC5PDZO3zCfwkDjpgOaoKwo1QUfo0vRSTjPH2A7HZ55+f6oIO7VlDIBZiT2SBEbkj7BtTrrUy6ozFAt/B5Jrz1yorwHpZzmgoEVaRwoSKJZNTJg4yqIOnA5HFAV7cfICffVfwBupz7A++G74yd5pPZRuioYWGavlLNAUMtnxPL15xuZ9lbuMe1iYNh4EF86GemVfzTpFoQqcBvqOVzAvma05aROR5jza54CEblmebeWvO2Z/CDxg4YxoM0hWlxHv4XbnvZyBSS0Aq1YeHzHHK33ndAtIm/Q0UwaPDZEj/mDqPk4/VbXI6KwS1j2tcbtlnHNfiUaoUor3kGljusUjrD3X4o4TUF5ef7FGU9xoKOoeGGnwkcOzLyKBVspUYPJxjGlcQEcKrUkxHv0+jlrgqiJUJVl47dh+pdjgXTJeAhppYfoIPb/FGR/TvGgvgcInBdgMCmg1Eev8GChU8AB8qudYdiawKcKlW1EDxPxITCI8cPLNRKn4z4uFp+gEB3QdlNTGbL+I5eICyeO86lbYI2e4rDU7w5nnxSkfbkcvh+PqRFxU/pbXCN/lxUmARHmiIsTiOOB98IXf5SDAHqfugMFgSEKVxHnUHFCv8Gk8H0yQbnLtTgSasIPLhID26Ur0GU6LBU6jxMEz4v8EnjwlfRtXXSwwA9MLwSYFhZg4OGD/HPiOhJkywYbi3j+nr79URhELr+j1IG6SNkhy371MF6NmGCaUx8MFX4nC5PYcUQxedbhxZg/hIOkyVKyDK4MF3udydjIiP0ZoUxnGwvrBgqK8o1qOQ3QOg5etOqwWGI+18cmb5OLS7RYaYLnxPscpTno8H+PxjVNxEFONkbfAwDhw0ioRs6ZJ/ykd+1SSKQIU/uLQtOD0YyRq8hRPm3WPc3IpJHyX/ys/kR4xMUkRDhc1qbv+9yfCkYdWWCaP8pW/9SUeCnjTZgolhJslhNfn7+vli0h/xDCD+cOOgQBVaIL10WwmHhALTwi9HCs39CaPITXy0R4ZJkH3pJmPA5e3gX6XaWTwXjKsyaCOple/O2J9uL+cJuULIblWI31iL7ccemlJKpUCELz5nIj1vE8ntXVNQCfLYlB0NWXEtgvTQG4EBrI/De4fDMWRIIS8Y9ocIPFAC+Zi5A6/kLKkCfQFj63swBjPnb4ONkHDeYTTZPklLDeXfW0SbC5Qt5MdkFtCo+tHYcqyGPSjnZQ1IheM6XpLT8UAFgMngpbNCfQi9QEBr+c3rmrV0k5G6+RZ7Kcidd+LywfPbsOXbwXoWw+1EJ4tsXSCX3jOKGMQsY/mdsZS+MZTJqFJ0WfEqEHyCKnwj2+lgpJlhjMSeIegYtkKZN3ptn88+LHbLm2LdMO2iVMqRU+AEmNLsNozPQC0zAyoDPvNvFBeY2YGxfbJOk+dH856WqsJYQfqDwzVugTdPQE0xCT6DbfXggvVXu0DccBS2LssSMh3Kqpu+zCl3hdFhK+AHi+Ldk6pvkG6DB+wPW3sMC4Va/g5kfEoEu7ip1Wdm96q5jbYBea5PIvyrhleXx6AngmCA+PXpiSkq+Qb6vwhBlMQxRPInBkZhcLdny1YrarC2cdy5hyihUglHQ1g1PyUoBkzccQ/4bFslrYc24tq0JPJS3bUb4oUTzZ/9yseHQUDgiGIUKMRTzBDuCc8xeNWDCVovK9hm+R7MZPgc/O13surktdOnh/FJ7b7PCVysMrxA1TYf6w0uVHZXAjq2F3tDjd4YuqzMqB+7M/4yWewoECk/WpB5zihNQupxAfkcxx8A+AK2Dzr8Oaeo62ISdfbYVHVbD1R7C/gnFPAioGAFJEQAAAABJRU5ErkJggg==" vertex="1" parent="1">
          <mxGeometry x="420" y="587.5" width="42" height="42" as="geometry" />
        </mxCell>
        <mxCell id="kVk3VaA8d4-bThML82Me-9" value="" style="sketch=0;aspect=fixed;html=1;points=[];align=center;image;fontSize=12;image=img/lib/mscae/Docker.svg;" vertex="1" parent="1">
          <mxGeometry x="490.52" y="587.5" width="46.34" height="38" as="geometry" />
        </mxCell>
        <mxCell id="kVk3VaA8d4-bThML82Me-10" value="" style="shape=image;verticalLabelPosition=bottom;verticalAlign=top;imageAspect=0;aspect=fixed;image=data:image/png,iVBORw0KGgoAAAANSUhEUgAAAHAAAACACAYAAADTcu1SAAAAAXNSR0IArs4c6QAAEBpJREFUeAHtnQl0FEUax6t6JiQEUBCFsOgmqGQi+ECE9cQDCazy1t23q7Ku7hM8CKCoJBguE8hFBPKEIEcAF1lWn7visftcV12SgAerb128QIQJxIASjighJJNzurv23xMakjDJdCZ9VE+m35tXPdXVVV99v676qutqSkLwGL5jeUyT2LCEMnY1oY45JRPSdoZgNn1ZoqGUseF7t/ZoOup+mhKWzhjro+YNmXydRgrz3Lell6l+oeKGDMCE4sy7JZmuJIxd4R8ObaQCy+/Xu1/uf294qtp/GPv52h7gsO1Zw0WJ5KPEJWpUfwUVaPrI8QmbXqeTJY33cBvMtgCHf7LiItHjWcwoe5wx4uyshimlewilKSWJ6UWdvZen8LYDeB/b6vi6eP90IrNsRshFXVcm/afgpKnuO9LdXY/L/BhsBTB+W+Z4QMuHmq7WU1WUEpFRsrZHdJ+svTelVOoZt9Fx2QLg1cXZVzRJLI8R9lsjFUIJPcUEknFB34EFn4+Z7jUyLb3i5hqga+eyPqyuYQEjNIUQFqlXpgPFgxJZIlBhzv7E9HcChbX6OpcA0aKkruIlDxEmLUUDJcYqJaGhUyQQkrJ/wqI9VskQKF3uACYUZd0oM7IKEH8RSHhzrlMJJXJTVHTP9N03p1aYk6b2VLgBGF+cM5hI8lI0Jh7Eyzg3cqmqRGmsoYwuuXzIhfnvDX2qUfW32rVcUbfv2BxVLh6Zg35L2DrWy2qFBEofDZ0ydNXNc09c/HqgsGZctxRgQmHmPTKhz6O6jDUjs3qmgWp1J2WOZPfEtF16xtvZuCwBGL89aySTyCpUlbd1VmCuwlNUqoS8TARhYcn4tHIrZDMV4KiPci+pa/Bmy4RMQ2bRwAuZo45SYXmffgPy8P5YZ2auTAE4eteGCM+pE08AXAZK3YVmZtDMtNDQKSdMWOCe8OwrOEenkfGH4QBdRdl3wsYpowUu47PDRwqwj7CLjmQzBpINA+janu1iElsBcJP4UKv5UkC5hg8k6w5wdOHSC2tY0yJCyZOAF2G+2nhL0diBZN0AZjAmvFqU8yigLUG/5SW8qZEDeQwZSNYF4NDinFupJK2C1b6GA0VxLQIaN7oOJHcJ4FXFObGSLC9HqZvMtdZ4FI7SdwQHfaarA8lBAcRrQXR15fH5sHOphJEoHvVjB5lQGr2YErKuKwPJnQaYUJj1gMTYMijoUjsoyQ4yAkIlE2hmMAPJmgG6tuWMYcRn526yg1LsKCNKpFug9JnODCQHBNg8y7k+lxA6lcdhHjuCCiQzQGoeSG4XoDLLWSx3J6OOfhaNlLOznAMl3u2uU/I92gE/1z/f2gaS/QJ0FWb+RhnmQYlrZ5az/uLaLkZKvhUomYX5OqOYzJ43UP5qgQi57Q0ktxoRUGY5xxdmFWJKwz/C8PwjQT+nBxOCUy/oF3ONO3HxDv+hdPW9QCby0tKyqn2ubZn3tY3ZN6NZmeXsrfVkihKbEcws57aRhup/wHuNsqiUkonzjpqdR8xWGIKOkq3xhZmtBpKd8YXZyV5PTRou6jDL2exsmZTemerSpBLXYaZQwMYyKn829P2Mv9djXFVgTM7BsHJVh3d104vN1aUw18TqUpOmWZPX462o/F3k9xUJShUajVbU5XArIDCAkos1xRLigZTqkgiOOQcsmirhV72y7BEra6LlmtrmtwLqaLWqZwDgEUbpYYGwGJybNhPar7AWeeIdbB+Wn81yj0/fbpEI/pJtkE7VEOm0pzcal62un7csC9P7YhFERkYO4/0vtlXoEP6jVJfIc3bvvgNXcrQuQpI9dTVSZU1fJvlfyngewDOMUJX64GGyDvEA+oAQZoe3AroVM8tS3BxVl3JD04/SyapLWJPYtyPdtwdQvSca8KIB8SQmJPXENJ1o9UIouOjF2I98zCqZsKiYl/wwUa6QfjrVX65v1DQoHgigL1+A2F/pssGs5GNoscaESp9o1MDoMbtHptZyAY+xSvGn6kjZU9up2q5VT0ygjOBlchDgoZ1DuVvkEUh2f9cHR0eK/vxN9quVqzwV3sPHLwK8Ti8t0FQC22RIsY8DQLEOpVIC0HBHdxsFafmLQuCVPPVHxZNVsVjU02lwahrBAPTdi9aqzx6ixVqFqhUQmUONNOx2rAG8iJeKFVWxstfb5VZ+0ABVEVEK0UpCnzyllSiZ4e44VTH+XEk+JP5U1U+ua9BtlKfLAFU5m+FRiVBWB57halVVDFzUVsfFymqvVF0b18Jbl1PdADZLg2pUgUdpPUqmA1B76CKlbSNh1dLp2iPyqZph0IUhudAZ4BkZGevpExerWrtjI8fXQKmv3y1VVI1gkjzMEHJnIjUGoCrxuRaqB169Ve9QdpkofYGRgljW6B1tRj6NBXguB+iEJZilQbH3innbhZxL3vgzJsvfyj9W9ZDqGq41PrVzKZgFUOnGQaeBAo824rxHqPTmoKTVoXHyGX7XnVOreWed6onRRyxAbN6FAgPKnTwoLXVQci9Kcr5iZzp5tyHBm8p/irYKnpIhCwCe1WPP5jOUyICHskSLZg12Xnb1/gmL3zwwYVFyhDNiGCC+FfDWEA9gXhXariJ9NlGxj+hq9dObQ+m/ezgjZu0dt+BgSYs4lP/4e098Yc5Y7Oj0PFq9llRhLUSy5JQDgL58YxKA78VDqRZ9i0JRusrxm+1OTH+jI80oy5jxjnVDfOGS+ymVn8N5bEfhQ+2alVWoP10q8LC1FX03wtk/IRA8NQKEZwcmpv31Z87LEjAJdj78q9Vroe7yUgKb9UzppwJ1zHAnPrs7GMV/MO7hBty3DNuZvFTbKGag1ZuEgs1XHoPJWAf3cJE5dLtVEirMdyem/UkpTR3Iq+nSl7cu/BEBn4jfkbuaiGIequdfabrRhoEsr0IBb0uvqIiEkgnpL+oBryWDknEL96PFercgkDvQSPqy5bVQObcWIN7nSiYunnqmxBimU2VG9YOJ6WOo4JiKh6TcsIQsiNhSgEhc6SM15chAE7UkMW1Ln34D4wVBWKTMtjMlYYMTsRSgwXnzG72ylxlat9kRzp5Dr7/ySS56c/wKqtGz2wFU9bJ33NzjSqlU/9vV7bYA7QqsrdxhgG01YrP/YYA2A9ZW3DDAthqx2f8wQJsBaytuGGBbjdjsv+0BKts520znuopre4DVlSfeiS/Kelz5LJ2umrFJZLYHiGnPF2OjnbVfFe3bje9Q/NJ0vVv8lRkuhpN0UTojw7AI+X1sVPQucTrnKCMRusTbTiSjN2yIOEm+nIUxx/Quj3+1k4YWb/uXwDa5xJSKSUT07nFty1qlbGDU5rIuf2NfnD4J8PZgEs8KwLP0MwohB1AhpIzCy4Q91VBZ+VrsxhmPACqGHbt+DNk00xW3cca7mKL8L8Dj4jMKIQnwHCqqzEHdNOTFmR9e+dL0oNcoxG2e3RfgVmD9+h48DHedi9/6sxAH2KxgKP0W0Uu+its4M/fGrcln5qMGVn4GyxDiNsyYTrwNJYgjGdUld68s3QKggkpRPrYVW3C0qm5v7MaZAUsRYN/2543Hv0BVuR7wNO0YEfiR0D9E6LRCteqGkSHYx+hd2MY3ohzOp92Prmm182Dc5hlxzEvyAPterVFaGa77AVS1zdi9jaI4EVVk+tSkmDVvvezpebqhZj7xsmdQXG2zE3/3BQiQqB4vgLMKVeVUVLHK/iyD4drq6NYAVVIAOUo9t5vbbRoxdgOjVd4wQK2a4jRcGCCnYLSKFQaoVVOchgsD5BSMVrHCALVqitNwYYCcgtEqVhigVk1xGi4MkFMwWsWybU/MiK/zejX8WJfJZDrSN9agNcchFs6WAF1F2Xc2nKgrQL9lXHeGpzyLtgI44j95A+rr6lfKsvxAiBWkoLNjGxvoKsx+uKG2bh+mSIThtcDNfQm8alv2UImyDTKTx7WQO3x6RgPcAlSmzNdUnkgVqZxupwFWs58sfEWUbMEWHFyNYw7dnnV9zakTn2OcbkkYnv9HArttfCzTiFKnss0HPjG+Bvux5kNhN/sPbo6va+eyPqy+MZeJ7HE8Ubaxz+ZopzkVgDuMQje3LGn9VsXHpyT3xLRdJRMXjcWWjn9QApgpkJqWa1v2r7Ed/7eYAYbp6mF4ql7OupTUClRIJxExCSo85Rpgtj5u37E56ph0JBULRuahRAb9RZHWsfr/h4/e5wiRjnVio7Qarct7/IcK3lduEj8WyytuCT4GDu6kMCKEvoIZdPPbzqBTpDsPoCryVR8tGSQ1iM/hEzsPQbnthlPDB+OitP8P0sUjfkPWF9gdIJT+KXXQ2WWPrf+sPf0GBAP7OIYH+9heBjryty1ASo44CJ1fOq3gVTzkHTYwAwJUFYRFlPejMC+FjYpV/Xh37QcQH0yhNK8/G7js8+kZdVr0qxmgEpliH8vFH55BtTwPK4B6a0nAyjB2Aghwf3M4hbmlj6z7oTM66xRANWIz7KOaVldcmwDc5aSOp0uT1n0STF6DAqgmlLA9a7QssXyUxrGqH08u5wCPodQtLJtWsAVuh3auI512CaAacXxRzu8Jk5fxZh95BIhvLeLDJ3RFr740d+/kdV3e8lIXgArIZvt4ZA4l8nxe7CN3ACl9M4o6U93T1pSpD39XXd0AqoLwZB95AYjNZb9C59LsQ0kFH6p60svVHaAqGA/20WqAqC4rAC9tyrSYTRk0w5C9SQ0DqIJ0FWZNhm1cBisdp/qZ5VoFENCaGBFeiIh2Zh/842pDv2FhOEAFllX20QqAaFG+7RCEOaWPrVM+DWT4YQpANRfN9lHKRc/qFKP6V9W0FNdcgPQbB6XJ3yUVFLWUwehzUwGqmbmqeMm1kizh/ZEZOlJgDkB6Ett9Lbqu7/gNr0+ejM2izD0sAahm0Wj7aCxAKsLWre3Ti2buebDglJons11LASqZVezjUe8PKXiKF+j9/mgUQNi59whzphyavsbQ/di0PAyWA1SFHL5jeUyTWJ+LEY8p8NNlOoXeAKGs/YwKKYeTCt5T5bba5Qagqgg97aN+AOkpdFdmxg0dtPaDcRmiKisPLncAVaW4tmXeh3fH5V15f+wyQEokgdANkZGORfunrD2pysaTyy1ARUl3HXghsvTw6RR0lC8Mxj52CSClRU6BJJc+tv4bnoC1lYVrgKqwwdrHoABSehClbk5ZUsHbavo8u7YAqCrQZx8lcSWq1VtVv47czgBEv2U17Fx2dN9BL+ydnNHUUbw8XbMVQFVxWF52L6Y9wj6yIaqfP1cbQHwAi5JNziiSVvrQ+gp/8fDsZ0uAikLP2Ufl/ZH18afkQADxPvdh8zDPOgz32POwLUBV3c32sQFrKNhU+LV6f2wXICVlmLaX+l3S+jfVeOzq2h6gqvhhhVmjRIb5OS3s4/kAqQd2Ltd5aY8VByetblTvtbMbMgBVCC3t41mAmAeJRsqWnixq4b7p+cfUsKHghhxABYrPPh6qSpbrG+/wHj/Zy4Gdeb97dM2uUADWrfIw4i95hi7O4UGZ/wfID4pMzOvIXwAAAABJRU5ErkJggg==" vertex="1" parent="1">
          <mxGeometry x="660.87" y="640" width="41.13" height="47" as="geometry" />
        </mxCell>
        <mxCell id="kVk3VaA8d4-bThML82Me-11" value="" style="shape=image;verticalLabelPosition=bottom;verticalAlign=top;imageAspect=0;image=data:image/png,iVBORw0KGgoAAAANSUhEUgAAAH8AAAB7CAYAAABdLF8FAAAAAXNSR0IArs4c6QAAGc5JREFUeAHtXQlgFFWarveqOokcBlEYBhEIJOnuBHAUQVFRYOfQ9VhHV0SQEcYDvFiXQSAQxuySA8RrvRAPEBQcYVwWFXRVJDooHuABJt0dkEwQ5BgQkSNHd9Wb73XottOp7qrqru6uxC7oVNV7/3v///7/nf/7319EaCcXY4zUFpT1bmTMjiLhR/FjvfE7VRBIZ4R1wq8zE1hnwoQOjAgNRCD1jAknCBHqAXcUWezGcx3g/D+JijtzSf8qUjW6CWHt7iJttUS1hQ/0aJCbRkKQo5ggDEU58iDYU8wuDypIIyrGVtw/w30zyRA32bfNcpuNJxX5tRnhfzd4UYcjxw9dBgGMYkwZBWY5U8EwjhMVoRZ/1hKRrc3s1qsyp3JiQ6poiQevpYXPShj1rCodwWTyB7Tq6wTm77rjKa/5aQmGDUbWEokttl9f/DYpIYr5SBKToyWF77bPtzPinYDxeBxa+lmJKbr5uYKZuxklL0iSuCR/W9FO8zGYm6OlhF/tLDuXMGW2wMjv0dItRZsRtmNYYPi/mhFaVuCa/bmRtMmEtQSD3YXlFyk+CF1glyez8MnBRd6kEi1zVM36MDn49GNJqfCbWzp7CMu0EfpJbpuQhJC3Rcl2b/7XM1xWKUFKhF/7q0e6NDScKBWYcgeWadQqzEg4HUTwgeGPS9nZJXmfTPkx4fg0ECRd+B5n6XiZCQsExn6hQVv7jSZkPxg/w+kuXprKQiZN+O5Bc3NYk7AEM/hLU1lga+Ema8ROWbfat0w7mAq6kiJ8l6P8Wsbk51HALqkopKVxEmEfFYWJjqo5byWbzoQKnxWuzHDL2x+ERu6eZBYMS616LBT3oHC7MZmEvp7sZoTtpoq4n+CPwoQs6OkyBUHJJIzimWUivivCCjEcFWAe0iuZ9HJchNBpTvfsh5KJV0oUspqBFf3cXs9KdPODE4UjkO9JdWslJcIGURQqc78u/jYQF8v9m8HzspuOKwWoEIWoIAP8+wdMGBhLXnrSoHIehfhf1wNrJkxCWr7LUXohWs8baEWnmUlsMC8ifA/C38BCYQOa7oZ+ruK6YFyCHnhllr3yNajMvycC4+UzbZVCRXqDo3r2ygSRHjFb04WP8f1KLOFWmr7DRogXuv116B6XOcTcN1K5zbpj0ILuPm/DVUwhY1FOvskU84VW/wRm/UkdFgPEmip8l6NsAhOUZyEk04YTdOlHGGXP2GwZj+VtnbE7QLhV7m576XkYHopiU0mTT51S/vBUVWTThO92lk5XFDbfNKEQ4RgRaDlh0hMOzwyMida+agbMd8o+7wz0BON0VX4MXVmEnJuMISsS50wRvumCF4SXqJAxA0L/LhLhVg3f6Szt08iEWagAt0XanOIbP9j9uwqbPmtTWY64he/v6pmyxIxCYPzjO2D3YAz8yIz8UpmHp6B8uKwoizHpzQ2nA6ZiFU73nFnh4cl+j2vGyid3/jE+Tqoh9ENgyO2OMbOHtAfBc3bYq2f9rfNpHQahXI+ghQUNPFDWSsdA+5w4WWZK8phbPl/OoWt7N95ZPQj4TMrMuNaKkzlTOIxM/LwS2GIsD7NPETPPyamavs+svOPJJybh8zWvzytvjn8dT5639Tv1rrw3p8BIsn1ftSOWZDUd2tvXSsafhoXfrLL1fBSX5o4ITUA8BePeovYtcmuXzvB6vFlXH7vKFmPgd4yQ65yu4o+tzZr2T52hln9yd+7VWNnCdfBSpu2S9jy+x8qbVKTTLXy+H680CnwpFtO2LAS/h2Sy4Y6tc2pTUdD2hLPGWXoJDGJux27kSEy6MzCR/AdWEWukDNuTRhqWbuFXO0rfxwTvkliYCCQHaIZ4qZUmO7GUI9Vp+JE0j6PsCUVgd0ag5QeRihPtrln/FyG+RbCudT43vYpV8NioPkwl22/Tgm/B95heoFCbF0XwPM8uiqL8xVNYMUQPAk3hc2NLv82dntzCYNAVHZUovdxeNfOrsKj0q0EObB8wtz+2kqdpJYPeJVPx+Z7VguPxmsJvtrKN2dhyYn71rE/0EJKGic4Br5fcjrFdU148F8CdzXcbo+eokRm3q+fm1VqZqMWj1T8LVW3MKwO1PH/OYYSwAiPlhxkbrJCiX1FrEo5OPay3toWiwczend2x272hYennuDnQ2UgOMD07RQs+ovD5EaqYzKyhvZNEcWzPLZNOaCFPx+vnABRjBk/6EI9W7hGF33x2Tit563i0+qK86qIvWsekQ+LhACwAVutNz5fWmb/suUkLXlX4/rE+hkOT/u1K1+xHtJCm441zAPsgb3P+6kkJQ5H/0uMwQlX4/mPSerCEwWCcuQ8EYpqQvhLBgU5ih+uwN7ItWt4wcH2ywFX8VDSYQFwr4XPHCNwYMQCg9w6hv+rwFG/WC5+GM86Bs6qmfn9aRtYwCG0uhtcjLXIgwheQwVgc/Li7RXiUl1a7es0eMYw5RgAhMrXR4ih40lEmcaDH1vuOI6s/sxJW4nqlvEAipKPElH2xGIK20O0jQ+p6uezvUBMYc4VCyWJ0NbeYVL50NkniQIuWz50fAa8hwaPVN9pEoSRJ9KbRmMiBFmM+93plNG90Hc/HezbOKM40vDkcCAqf+7nDpsB1RrNlRFxsNE0a3hocCArf7+DQuJ87l9NdtMUaRUlTYZQDQeFjkjfKaGKsKV80miYNbx0OBCd8J12a6qYMEz2WIYrLdSdIA+rmALfzhzr3Mvjx647zHidwX2/r2/ldvSbu3L+A95h8NyMK/BmSfmjYjZAXdwX3cOihGP9Sjzsxrvc17tVNHQChaXofKscRRtKkYaNz4JvCeb2bZN9zMNf6TTgkhLeTSsLN9qrijeFxoe9+30eNZD3mbzmh4YFnKIJedgzMH09WjZb93T73Xh2I1HuH8NNdvl5m6YDbfk55tyafr1JN8Dw5hNlPloX3PIWlF0fKbvug+b3g9GpjJMH782HsRve2Gr+lj7/b97sdiZRjhHDGpPURoiwV/FzhLV19R+uvxGG5f0U5eWvoiR/3w7MP26TfoRJvlKi05rbaZVtTSbivXn4amyKqrTVIF2M2VIBVOP2To7Zx4/U2TUMt4eWLeqGCTfQ4y/9KOJTLXvoVasugqClCIpHogNMzx9J+9Bb3n3hWo7dhLphxE5gqhpAf6XErpaRoct2KdZEAEhXe3FULO0BnyAQ8Mja4cRkPNy4vhUJsP/+xU71HjuxBeflHJTQvDCOrKDcHBmSeJnQoABE+DX212vPCPuP+1OhtrIExys06Bc+LMAjOJdYu7H3j24vybzwjqWXy0Yv0Cp7TxRQ2PJw+35Fj8CSmT/D+tEQ4m/JPk6DVa5r8hCLD7NOSwl+Xe0/mU73HLmWKAvdvDF278QsV5jdKg/DZon7jBhpPHVsKCLOHwZRwI9fyotSYKxzIPIs2MuJomY32G/b7LWmRW9d4iDtDMKyiDi8xKkBf2ausfy5nbJ/wuES8w4Xct0byxdzFGw4vM7YjPCzaO7r7LynWk/ZoQOFxfH3fwSbhezPWutBdz0RtHmsiVZh9s9eWDRrf0cQ8VbPChHMT+CqrRqoEEiq8Gx4MFy97MXndFB4e5X0dn2AYEj7ga/tsKzocJdOkRz3db2weWuvcBCAedOKwPDMB+bbIsn/VzF34Zs+yFoGRXgipy7Zlwgdh64uI4n2oRNq+DmD44ehx8fMS3Ij1xkRB/9X86TH98EmAVHxCGdAEtZVmogRrpi7qc9NTk+pe2qsnX74OZz5MNIngt7NHpXSJIl3K3bRET08hOGVwtFUXump8yInefNKgo1V2/IMO7oLSG5gi/BUyVecHEbYTQRxDKkf6eMs3ZA8OeEt5yHq2z/gcjPPXt+KESQEQRgdMIO/Uym7foAUdcZbuCVTED3Ce7lZMOC/kP8zNb5Fl+YNqZ+nCA4VPRlyGOd2zDkkd6K+hO32FD63h+KCZq0H4cMC9Hx4X+u6oLl4jEHr+yXx+Gkq4m3dCHrNlZ5+HPGp4GtQO/sHBVrhC82vxjJq8p0VAil9kJl+daBJQAa4BjjnR8BxualwKYUfeElfY5IPK93xWH9E+Mu+LWf9A/JjtheX/7VWUEZBLX7T0Q/h618cOV9EHEJ4uQZ38rs+Ybwsf7npMbsyRRFafW5Dr4Spd5B+8SLVjbg1kr3udDwKKsDkwL5hDih+wtHsHLR8tJrFXhkT63lq7ok4NC0zdxwiK8rJaXHiYmoImHCZZ74a7fYxlGHesc+Hkam4yqPEqYv+IeJgyPWJcWASGEN2wYUlNf+XCjzgOqWHD0rBeLTxVYegHf5kU3Ew+Uw3P9ssfy0TPeY5anFoYhs2B3GpKLS7ZYVjnE0PaPYw6TckmMhK+lYUlGWB8ZqR4U8MjqE59tccMNR5OU0PjQaOTbFOLEsiMYn15IvCi786/UGGNa3RVSRP3/JEUaig7oIYHE7HvwcNjanFqYZix1+c48w6qxSU7DN0+M+TRWqHGeorEF4glZekpCqLqOt8/A8e3dHWXk7A3w2fdutOaDMjHfEPCx5hvaJgwmd7W2THyaetA00Pqu/Ts9kWkXDMlaToUMNrfyeNu5DOEaZHySXY4X+dD+LqWjwHaTg88WONO4XlKnphIWtC614/e9EjEiS5Xz0LBcwf4+AKWnTZVWvwfVCR3O7YW16rGhwX6z0wKsp33zF0yMz6NpNULSxZ89ZxdeiZc592MCWY/6PxxxIu+4+gx7C2u2QsAGW75yEx11hvIMNn3M3p1ewcV+FAi8RJKV2jljwOSK0RRGoLxv1UPgXF+q41KQ6EfWaqVD3QGV8CAc5MiNLkVQV6jCMp73zc27K52zn2gbmDFaVrpuY9fpF8iNwq1UDpB7c1uwX0KPm33unvvxj2IuyqQB4w5dHRXAWj/nfVs8ZriF3+LJKQ0UWSgO/960oTcV/Tkz72OFbjnnCtJ9ByYtY/DbPommyid63DP/pUehxUux9zbiKK8BmFdEIavC5y233fC63uHW+aGxQVfuV/khr17ViP9BLUeCP17d3Tyq932uf6eUhIo+/tP3uCD+UR8ADNyIkamKOKMznlPHfyx5i7UctMVPozS6aSkBCaA+q/8qtlfApr/mi9SFHiKeOcOMaAAeiYiACLQUAc3Hfe9iEdVlbZbrimDKvqyqHkITITt4uM7B5StgwGIoOm7JTQz1J5e3NQ7NCzVz3zJJ9rItaBD95JLD82EkvI765a/qQc2bhhFmaErDyZcuaOwolUl5909BK+5AeXHwVjHRp8yg8Jk0JDweeJGn2+oLkKTCDRp5/JtsNMch8lZKyuXWMhAPq9OnpgfdTMnlnzV0rDBi2yYK/DKq3lBwMTnk8eEA3r37xmKLl235hCmm0MokbS9NoUjwkmQ88PDrPB+57cvvUabj53x3bGYL0rogsl/zB9ttLuPFaHn2A/dIDisvHRfrVTaMqNn6E7NAWHHQe1fFe8xoqHi6dD1W67lc7r4NWnXyxtFm+08aP5WYX4CUo1cZAdm9tdO3rXc8DhvBEs4bMeutsNYETSGh0d6hwFOq8pNRGF/JHi1cOA7wJd6kL2xrh/6/SGYUSKZNa9JO5ftunPXitGijZ6P7nt5dBUwUQDzIdbCk8XunQruqFu+OtmlOmvT1HoI4Q39eKXXw2Ht3YZ9gjx2hYdHfmdr/QLE2u9xCPPuyICtY8QM0dlWPGlvGFEiub7ZMYwSJQfTdnSZpAM0lfuYQPdkZdo2/XHHklYtqXWJExviKSj7F0Vm7/AxPRomVNTV0Beozg8gx2mQ44Jo6Xkc8jiaKZG8k+MM3QAtmSHhyz6FLyncWoisED+ysoRrtbgNnYYdXeqotVfPXg9Tr6lYdj8ShQpXhijdGyne0bHb/7iPHxiGJaFq5eDp+MYSRsOr+31dvN/f7XcSsypR3QytZdH1j49ERDo8Ng7AqdWjIiVj0DSrQ3OAbBowLK3I7GQb5rf0DY0MeSZbJnlhlXsDVLkLIeQWJlscDGFb8bsCp6srm9/5X1ww5/oc0yPdRgk8jU0SC/OqZrUglIenr/g4wL2i1awqu1BWSD9RID8yRVxv9HvC/vN/TeQKtPK+aKgniEjf571LKGXB8QWqRRxxEv4UGqn1jLFjHsafIi24dLw1OeDv9jlplNIWtUIPuags46w869dThp8zTFD4+SRvPVqywd0xdpbHUT7i58zAtlz2oPBJ1egmjA26dq9CCwxt362h7+nntsOBoPA5ybApX2aYdCaMwY7UAMPp0glSzoEWwucfQ0LXX2OEKuhPqaCwUiNp0rDW4EBwth8gB19lKsZZs7mBd913SoZhnfqxbvg0YFwc8BSUD2eycg70/Pgv7hX7dXpdr6u2AOJWwt8xoPSsJp/wjZolSCCR2h09RiWWfSPV4tJh5nEAS/Lford9AjqZFkfsmifr5CGYk1Xoxdai2+eJuBNl1IiX9GYQgMOSbwQnLPCevpvPAf5lUwh+bbjgOSbw/3Q40ixHz/0sVxLpwR4BiM5DBTCk7vUjY2QBtyPTgzgNY4wD3MceHEY9A8FL0VLy4+GeleVjo8EE4lSFz89vw23nqgCQ3jt2pAa5ZU+5Xvg0nH4O+Jp8xWj1WXpSoJLcz65fKWrBqgqfJyJEKsMmAPAZvBiZmu7+DfJMBzgTlFE6wJpBGMv1eDy9teAjCt/pnrkNkn9NK4PweL4fjXRLuTvR8Lj0e+wcwIHaXkZSE5lonq+IKHyOKEMSp6H16zYvChLHhB6+emVJ8D39EBcH+P4J/mEf3sCFj+tpQUcVfm5V0Q5sAs/XykQtHgTj5Mnce9Ti0mHGOIBlHDfveU9vKsA20M6dvtKCjyp8njirx5kVaP07tTJSi0f3/zAc/F6jFpcOM8YBSkTdPSka/Qt5n0z5UQuDpvC5d2ds98bWgrEsgcOkV3CI8XdahKTjo3PA7pq1DkfAFkWH8tvnfd6lQzdddhmawufImhGT2KxamQDvGWx1jbP0Ei3C0/HROSDldP4PiPcB9MStTLR4SgwPG2imcLXeL5hrTgoC5PDZO3zCfwkDjpgOaoKwo1QUfo0vRSTjPH2A7HZ55+f6oIO7VlDIBZiT2SBEbkj7BtTrrUy6ozFAt/B5Jrz1yorwHpZzmgoEVaRwoSKJZNTJg4yqIOnA5HFAV7cfICffVfwBupz7A++G74yd5pPZRuioYWGavlLNAUMtnxPL15xuZ9lbuMe1iYNh4EF86GemVfzTpFoQqcBvqOVzAvma05aROR5jza54CEblmebeWvO2Z/CDxg4YxoM0hWlxHv4XbnvZyBSS0Aq1YeHzHHK33ndAtIm/Q0UwaPDZEj/mDqPk4/VbXI6KwS1j2tcbtlnHNfiUaoUor3kGljusUjrD3X4o4TUF5ef7FGU9xoKOoeGGnwkcOzLyKBVspUYPJxjGlcQEcKrUkxHv0+jlrgqiJUJVl47dh+pdjgXTJeAhppYfoIPb/FGR/TvGgvgcInBdgMCmg1Eev8GChU8AB8qudYdiawKcKlW1EDxPxITCI8cPLNRKn4z4uFp+gEB3QdlNTGbL+I5eICyeO86lbYI2e4rDU7w5nnxSkfbkcvh+PqRFxU/pbXCN/lxUmARHmiIsTiOOB98IXf5SDAHqfugMFgSEKVxHnUHFCv8Gk8H0yQbnLtTgSasIPLhID26Ur0GU6LBU6jxMEz4v8EnjwlfRtXXSwwA9MLwSYFhZg4OGD/HPiOhJkywYbi3j+nr79URhELr+j1IG6SNkhy371MF6NmGCaUx8MFX4nC5PYcUQxedbhxZg/hIOkyVKyDK4MF3udydjIiP0ZoUxnGwvrBgqK8o1qOQ3QOg5etOqwWGI+18cmb5OLS7RYaYLnxPscpTno8H+PxjVNxEFONkbfAwDhw0ioRs6ZJ/ykd+1SSKQIU/uLQtOD0YyRq8hRPm3WPc3IpJHyX/ys/kR4xMUkRDhc1qbv+9yfCkYdWWCaP8pW/9SUeCnjTZgolhJslhNfn7+vli0h/xDCD+cOOgQBVaIL10WwmHhALTwi9HCs39CaPITXy0R4ZJkH3pJmPA5e3gX6XaWTwXjKsyaCOple/O2J9uL+cJuULIblWI31iL7ccemlJKpUCELz5nIj1vE8ntXVNQCfLYlB0NWXEtgvTQG4EBrI/De4fDMWRIIS8Y9ocIPFAC+Zi5A6/kLKkCfQFj63swBjPnb4ONkHDeYTTZPklLDeXfW0SbC5Qt5MdkFtCo+tHYcqyGPSjnZQ1IheM6XpLT8UAFgMngpbNCfQi9QEBr+c3rmrV0k5G6+RZ7Kcidd+LywfPbsOXbwXoWw+1EJ4tsXSCX3jOKGMQsY/mdsZS+MZTJqFJ0WfEqEHyCKnwj2+lgpJlhjMSeIegYtkKZN3ptn88+LHbLm2LdMO2iVMqRU+AEmNLsNozPQC0zAyoDPvNvFBeY2YGxfbJOk+dH856WqsJYQfqDwzVugTdPQE0xCT6DbfXggvVXu0DccBS2LssSMh3Kqpu+zCl3hdFhK+AHi+Ldk6pvkG6DB+wPW3sMC4Va/g5kfEoEu7ip1Wdm96q5jbYBea5PIvyrhleXx6AngmCA+PXpiSkq+Qb6vwhBlMQxRPInBkZhcLdny1YrarC2cdy5hyihUglHQ1g1PyUoBkzccQ/4bFslrYc24tq0JPJS3bUb4oUTzZ/9yseHQUDgiGIUKMRTzBDuCc8xeNWDCVovK9hm+R7MZPgc/O13surktdOnh/FJ7b7PCVysMrxA1TYf6w0uVHZXAjq2F3tDjd4YuqzMqB+7M/4yWewoECk/WpB5zihNQupxAfkcxx8A+AK2Dzr8Oaeo62ISdfbYVHVbD1R7C/gnFPAioGAFJEQAAAABJRU5ErkJggg==" vertex="1" parent="1">
          <mxGeometry x="660" y="587.5" width="42" height="42" as="geometry" />
        </mxCell>
        <mxCell id="kVk3VaA8d4-bThML82Me-12" value="" style="sketch=0;aspect=fixed;html=1;points=[];align=center;image;fontSize=12;image=img/lib/mscae/Docker.svg;" vertex="1" parent="1">
          <mxGeometry x="730.52" y="587.5" width="46.34" height="38" as="geometry" />
        </mxCell>
        <mxCell id="kVk3VaA8d4-bThML82Me-13" value="" style="shape=image;verticalLabelPosition=bottom;verticalAlign=top;imageAspect=0;aspect=fixed;image=data:image/png,iVBORw0KGgoAAAANSUhEUgAAAHAAAACACAYAAADTcu1SAAAAAXNSR0IArs4c6QAAEBpJREFUeAHtnQl0FEUax6t6JiQEUBCFsOgmqGQi+ECE9cQDCazy1t23q7Ku7hM8CKCoJBguE8hFBPKEIEcAF1lWn7visftcV12SgAerb128QIQJxIASjighJJNzurv23xMakjDJdCZ9VE+m35tXPdXVVV99v676qutqSkLwGL5jeUyT2LCEMnY1oY45JRPSdoZgNn1ZoqGUseF7t/ZoOup+mhKWzhjro+YNmXydRgrz3Lell6l+oeKGDMCE4sy7JZmuJIxd4R8ObaQCy+/Xu1/uf294qtp/GPv52h7gsO1Zw0WJ5KPEJWpUfwUVaPrI8QmbXqeTJY33cBvMtgCHf7LiItHjWcwoe5wx4uyshimlewilKSWJ6UWdvZen8LYDeB/b6vi6eP90IrNsRshFXVcm/afgpKnuO9LdXY/L/BhsBTB+W+Z4QMuHmq7WU1WUEpFRsrZHdJ+svTelVOoZt9Fx2QLg1cXZVzRJLI8R9lsjFUIJPcUEknFB34EFn4+Z7jUyLb3i5hqga+eyPqyuYQEjNIUQFqlXpgPFgxJZIlBhzv7E9HcChbX6OpcA0aKkruIlDxEmLUUDJcYqJaGhUyQQkrJ/wqI9VskQKF3uACYUZd0oM7IKEH8RSHhzrlMJJXJTVHTP9N03p1aYk6b2VLgBGF+cM5hI8lI0Jh7Eyzg3cqmqRGmsoYwuuXzIhfnvDX2qUfW32rVcUbfv2BxVLh6Zg35L2DrWy2qFBEofDZ0ydNXNc09c/HqgsGZctxRgQmHmPTKhz6O6jDUjs3qmgWp1J2WOZPfEtF16xtvZuCwBGL89aySTyCpUlbd1VmCuwlNUqoS8TARhYcn4tHIrZDMV4KiPci+pa/Bmy4RMQ2bRwAuZo45SYXmffgPy8P5YZ2auTAE4eteGCM+pE08AXAZK3YVmZtDMtNDQKSdMWOCe8OwrOEenkfGH4QBdRdl3wsYpowUu47PDRwqwj7CLjmQzBpINA+janu1iElsBcJP4UKv5UkC5hg8k6w5wdOHSC2tY0yJCyZOAF2G+2nhL0diBZN0AZjAmvFqU8yigLUG/5SW8qZEDeQwZSNYF4NDinFupJK2C1b6GA0VxLQIaN7oOJHcJ4FXFObGSLC9HqZvMtdZ4FI7SdwQHfaarA8lBAcRrQXR15fH5sHOphJEoHvVjB5lQGr2YErKuKwPJnQaYUJj1gMTYMijoUjsoyQ4yAkIlE2hmMAPJmgG6tuWMYcRn526yg1LsKCNKpFug9JnODCQHBNg8y7k+lxA6lcdhHjuCCiQzQGoeSG4XoDLLWSx3J6OOfhaNlLOznAMl3u2uU/I92gE/1z/f2gaS/QJ0FWb+RhnmQYlrZ5az/uLaLkZKvhUomYX5OqOYzJ43UP5qgQi57Q0ktxoRUGY5xxdmFWJKwz/C8PwjQT+nBxOCUy/oF3ONO3HxDv+hdPW9QCby0tKyqn2ubZn3tY3ZN6NZmeXsrfVkihKbEcws57aRhup/wHuNsqiUkonzjpqdR8xWGIKOkq3xhZmtBpKd8YXZyV5PTRou6jDL2exsmZTemerSpBLXYaZQwMYyKn829P2Mv9djXFVgTM7BsHJVh3d104vN1aUw18TqUpOmWZPX462o/F3k9xUJShUajVbU5XArIDCAkos1xRLigZTqkgiOOQcsmirhV72y7BEra6LlmtrmtwLqaLWqZwDgEUbpYYGwGJybNhPar7AWeeIdbB+Wn81yj0/fbpEI/pJtkE7VEOm0pzcal62un7csC9P7YhFERkYO4/0vtlXoEP6jVJfIc3bvvgNXcrQuQpI9dTVSZU1fJvlfyngewDOMUJX64GGyDvEA+oAQZoe3AroVM8tS3BxVl3JD04/SyapLWJPYtyPdtwdQvSca8KIB8SQmJPXENJ1o9UIouOjF2I98zCqZsKiYl/wwUa6QfjrVX65v1DQoHgigL1+A2F/pssGs5GNoscaESp9o1MDoMbtHptZyAY+xSvGn6kjZU9up2q5VT0ygjOBlchDgoZ1DuVvkEUh2f9cHR0eK/vxN9quVqzwV3sPHLwK8Ti8t0FQC22RIsY8DQLEOpVIC0HBHdxsFafmLQuCVPPVHxZNVsVjU02lwahrBAPTdi9aqzx6ixVqFqhUQmUONNOx2rAG8iJeKFVWxstfb5VZ+0ABVEVEK0UpCnzyllSiZ4e44VTH+XEk+JP5U1U+ua9BtlKfLAFU5m+FRiVBWB57halVVDFzUVsfFymqvVF0b18Jbl1PdADZLg2pUgUdpPUqmA1B76CKlbSNh1dLp2iPyqZph0IUhudAZ4BkZGevpExerWrtjI8fXQKmv3y1VVI1gkjzMEHJnIjUGoCrxuRaqB169Ve9QdpkofYGRgljW6B1tRj6NBXguB+iEJZilQbH3innbhZxL3vgzJsvfyj9W9ZDqGq41PrVzKZgFUOnGQaeBAo824rxHqPTmoKTVoXHyGX7XnVOreWed6onRRyxAbN6FAgPKnTwoLXVQci9Kcr5iZzp5tyHBm8p/irYKnpIhCwCe1WPP5jOUyICHskSLZg12Xnb1/gmL3zwwYVFyhDNiGCC+FfDWEA9gXhXariJ9NlGxj+hq9dObQ+m/ezgjZu0dt+BgSYs4lP/4e098Yc5Y7Oj0PFq9llRhLUSy5JQDgL58YxKA78VDqRZ9i0JRusrxm+1OTH+jI80oy5jxjnVDfOGS+ymVn8N5bEfhQ+2alVWoP10q8LC1FX03wtk/IRA8NQKEZwcmpv31Z87LEjAJdj78q9Vroe7yUgKb9UzppwJ1zHAnPrs7GMV/MO7hBty3DNuZvFTbKGag1ZuEgs1XHoPJWAf3cJE5dLtVEirMdyem/UkpTR3Iq+nSl7cu/BEBn4jfkbuaiGIequdfabrRhoEsr0IBb0uvqIiEkgnpL+oBryWDknEL96PFercgkDvQSPqy5bVQObcWIN7nSiYunnqmxBimU2VG9YOJ6WOo4JiKh6TcsIQsiNhSgEhc6SM15chAE7UkMW1Ln34D4wVBWKTMtjMlYYMTsRSgwXnzG72ylxlat9kRzp5Dr7/ySS56c/wKqtGz2wFU9bJ33NzjSqlU/9vV7bYA7QqsrdxhgG01YrP/YYA2A9ZW3DDAthqx2f8wQJsBaytuGGBbjdjsv+0BKts520znuopre4DVlSfeiS/Kelz5LJ2umrFJZLYHiGnPF2OjnbVfFe3bje9Q/NJ0vVv8lRkuhpN0UTojw7AI+X1sVPQucTrnKCMRusTbTiSjN2yIOEm+nIUxx/Quj3+1k4YWb/uXwDa5xJSKSUT07nFty1qlbGDU5rIuf2NfnD4J8PZgEs8KwLP0MwohB1AhpIzCy4Q91VBZ+VrsxhmPACqGHbt+DNk00xW3cca7mKL8L8Dj4jMKIQnwHCqqzEHdNOTFmR9e+dL0oNcoxG2e3RfgVmD9+h48DHedi9/6sxAH2KxgKP0W0Uu+its4M/fGrcln5qMGVn4GyxDiNsyYTrwNJYgjGdUld68s3QKggkpRPrYVW3C0qm5v7MaZAUsRYN/2543Hv0BVuR7wNO0YEfiR0D9E6LRCteqGkSHYx+hd2MY3ohzOp92Prmm182Dc5hlxzEvyAPterVFaGa77AVS1zdi9jaI4EVVk+tSkmDVvvezpebqhZj7xsmdQXG2zE3/3BQiQqB4vgLMKVeVUVLHK/iyD4drq6NYAVVIAOUo9t5vbbRoxdgOjVd4wQK2a4jRcGCCnYLSKFQaoVVOchgsD5BSMVrHCALVqitNwYYCcgtEqVhigVk1xGi4MkFMwWsWybU/MiK/zejX8WJfJZDrSN9agNcchFs6WAF1F2Xc2nKgrQL9lXHeGpzyLtgI44j95A+rr6lfKsvxAiBWkoLNjGxvoKsx+uKG2bh+mSIThtcDNfQm8alv2UImyDTKTx7WQO3x6RgPcAlSmzNdUnkgVqZxupwFWs58sfEWUbMEWHFyNYw7dnnV9zakTn2OcbkkYnv9HArttfCzTiFKnss0HPjG+Bvux5kNhN/sPbo6va+eyPqy+MZeJ7HE8Ubaxz+ZopzkVgDuMQje3LGn9VsXHpyT3xLRdJRMXjcWWjn9QApgpkJqWa1v2r7Ed/7eYAYbp6mF4ql7OupTUClRIJxExCSo85Rpgtj5u37E56ph0JBULRuahRAb9RZHWsfr/h4/e5wiRjnVio7Qarct7/IcK3lduEj8WyytuCT4GDu6kMCKEvoIZdPPbzqBTpDsPoCryVR8tGSQ1iM/hEzsPQbnthlPDB+OitP8P0sUjfkPWF9gdIJT+KXXQ2WWPrf+sPf0GBAP7OIYH+9heBjryty1ASo44CJ1fOq3gVTzkHTYwAwJUFYRFlPejMC+FjYpV/Xh37QcQH0yhNK8/G7js8+kZdVr0qxmgEpliH8vFH55BtTwPK4B6a0nAyjB2Aghwf3M4hbmlj6z7oTM66xRANWIz7KOaVldcmwDc5aSOp0uT1n0STF6DAqgmlLA9a7QssXyUxrGqH08u5wCPodQtLJtWsAVuh3auI512CaAacXxRzu8Jk5fxZh95BIhvLeLDJ3RFr740d+/kdV3e8lIXgArIZvt4ZA4l8nxe7CN3ACl9M4o6U93T1pSpD39XXd0AqoLwZB95AYjNZb9C59LsQ0kFH6p60svVHaAqGA/20WqAqC4rAC9tyrSYTRk0w5C9SQ0DqIJ0FWZNhm1cBisdp/qZ5VoFENCaGBFeiIh2Zh/842pDv2FhOEAFllX20QqAaFG+7RCEOaWPrVM+DWT4YQpANRfN9lHKRc/qFKP6V9W0FNdcgPQbB6XJ3yUVFLWUwehzUwGqmbmqeMm1kizh/ZEZOlJgDkB6Ett9Lbqu7/gNr0+ejM2izD0sAahm0Wj7aCxAKsLWre3Ti2buebDglJons11LASqZVezjUe8PKXiKF+j9/mgUQNi59whzphyavsbQ/di0PAyWA1SFHL5jeUyTWJ+LEY8p8NNlOoXeAKGs/YwKKYeTCt5T5bba5Qagqgg97aN+AOkpdFdmxg0dtPaDcRmiKisPLncAVaW4tmXeh3fH5V15f+wyQEokgdANkZGORfunrD2pysaTyy1ARUl3HXghsvTw6RR0lC8Mxj52CSClRU6BJJc+tv4bnoC1lYVrgKqwwdrHoABSehClbk5ZUsHbavo8u7YAqCrQZx8lcSWq1VtVv47czgBEv2U17Fx2dN9BL+ydnNHUUbw8XbMVQFVxWF52L6Y9wj6yIaqfP1cbQHwAi5JNziiSVvrQ+gp/8fDsZ0uAikLP2Ufl/ZH18afkQADxPvdh8zDPOgz32POwLUBV3c32sQFrKNhU+LV6f2wXICVlmLaX+l3S+jfVeOzq2h6gqvhhhVmjRIb5OS3s4/kAqQd2Ltd5aY8VByetblTvtbMbMgBVCC3t41mAmAeJRsqWnixq4b7p+cfUsKHghhxABYrPPh6qSpbrG+/wHj/Zy4Gdeb97dM2uUADWrfIw4i95hi7O4UGZ/wfID4pMzOvIXwAAAABJRU5ErkJggg==" vertex="1" parent="1">
          <mxGeometry x="890.87" y="640" width="41.13" height="47" as="geometry" />
        </mxCell>
        <mxCell id="kVk3VaA8d4-bThML82Me-14" value="" style="shape=image;verticalLabelPosition=bottom;verticalAlign=top;imageAspect=0;image=data:image/png,iVBORw0KGgoAAAANSUhEUgAAAH8AAAB7CAYAAABdLF8FAAAAAXNSR0IArs4c6QAAGc5JREFUeAHtXQlgFFWarveqOokcBlEYBhEIJOnuBHAUQVFRYOfQ9VhHV0SQEcYDvFiXQSAQxuySA8RrvRAPEBQcYVwWFXRVJDooHuABJt0dkEwQ5BgQkSNHd9Wb73XottOp7qrqru6uxC7oVNV7/3v///7/nf/7319EaCcXY4zUFpT1bmTMjiLhR/FjvfE7VRBIZ4R1wq8zE1hnwoQOjAgNRCD1jAknCBHqAXcUWezGcx3g/D+JijtzSf8qUjW6CWHt7iJttUS1hQ/0aJCbRkKQo5ggDEU58iDYU8wuDypIIyrGVtw/w30zyRA32bfNcpuNJxX5tRnhfzd4UYcjxw9dBgGMYkwZBWY5U8EwjhMVoRZ/1hKRrc3s1qsyp3JiQ6poiQevpYXPShj1rCodwWTyB7Tq6wTm77rjKa/5aQmGDUbWEokttl9f/DYpIYr5SBKToyWF77bPtzPinYDxeBxa+lmJKbr5uYKZuxklL0iSuCR/W9FO8zGYm6OlhF/tLDuXMGW2wMjv0dItRZsRtmNYYPi/mhFaVuCa/bmRtMmEtQSD3YXlFyk+CF1glyez8MnBRd6kEi1zVM36MDn49GNJqfCbWzp7CMu0EfpJbpuQhJC3Rcl2b/7XM1xWKUFKhF/7q0e6NDScKBWYcgeWadQqzEg4HUTwgeGPS9nZJXmfTPkx4fg0ECRd+B5n6XiZCQsExn6hQVv7jSZkPxg/w+kuXprKQiZN+O5Bc3NYk7AEM/hLU1lga+Ema8ROWbfat0w7mAq6kiJ8l6P8Wsbk51HALqkopKVxEmEfFYWJjqo5byWbzoQKnxWuzHDL2x+ERu6eZBYMS616LBT3oHC7MZmEvp7sZoTtpoq4n+CPwoQs6OkyBUHJJIzimWUivivCCjEcFWAe0iuZ9HJchNBpTvfsh5KJV0oUspqBFf3cXs9KdPODE4UjkO9JdWslJcIGURQqc78u/jYQF8v9m8HzspuOKwWoEIWoIAP8+wdMGBhLXnrSoHIehfhf1wNrJkxCWr7LUXohWs8baEWnmUlsMC8ifA/C38BCYQOa7oZ+ruK6YFyCHnhllr3yNajMvycC4+UzbZVCRXqDo3r2ygSRHjFb04WP8f1KLOFWmr7DRogXuv116B6XOcTcN1K5zbpj0ILuPm/DVUwhY1FOvskU84VW/wRm/UkdFgPEmip8l6NsAhOUZyEk04YTdOlHGGXP2GwZj+VtnbE7QLhV7m576XkYHopiU0mTT51S/vBUVWTThO92lk5XFDbfNKEQ4RgRaDlh0hMOzwyMida+agbMd8o+7wz0BON0VX4MXVmEnJuMISsS50wRvumCF4SXqJAxA0L/LhLhVg3f6Szt08iEWagAt0XanOIbP9j9uwqbPmtTWY64he/v6pmyxIxCYPzjO2D3YAz8yIz8UpmHp6B8uKwoizHpzQ2nA6ZiFU73nFnh4cl+j2vGyid3/jE+Tqoh9ENgyO2OMbOHtAfBc3bYq2f9rfNpHQahXI+ghQUNPFDWSsdA+5w4WWZK8phbPl/OoWt7N95ZPQj4TMrMuNaKkzlTOIxM/LwS2GIsD7NPETPPyamavs+svOPJJybh8zWvzytvjn8dT5639Tv1rrw3p8BIsn1ftSOWZDUd2tvXSsafhoXfrLL1fBSX5o4ITUA8BePeovYtcmuXzvB6vFlXH7vKFmPgd4yQ65yu4o+tzZr2T52hln9yd+7VWNnCdfBSpu2S9jy+x8qbVKTTLXy+H680CnwpFtO2LAS/h2Sy4Y6tc2pTUdD2hLPGWXoJDGJux27kSEy6MzCR/AdWEWukDNuTRhqWbuFXO0rfxwTvkliYCCQHaIZ4qZUmO7GUI9Vp+JE0j6PsCUVgd0ag5QeRihPtrln/FyG+RbCudT43vYpV8NioPkwl22/Tgm/B95heoFCbF0XwPM8uiqL8xVNYMUQPAk3hc2NLv82dntzCYNAVHZUovdxeNfOrsKj0q0EObB8wtz+2kqdpJYPeJVPx+Z7VguPxmsJvtrKN2dhyYn71rE/0EJKGic4Br5fcjrFdU148F8CdzXcbo+eokRm3q+fm1VqZqMWj1T8LVW3MKwO1PH/OYYSwAiPlhxkbrJCiX1FrEo5OPay3toWiwczend2x272hYennuDnQ2UgOMD07RQs+ovD5EaqYzKyhvZNEcWzPLZNOaCFPx+vnABRjBk/6EI9W7hGF33x2Tit563i0+qK86qIvWsekQ+LhACwAVutNz5fWmb/suUkLXlX4/rE+hkOT/u1K1+xHtJCm441zAPsgb3P+6kkJQ5H/0uMwQlX4/mPSerCEwWCcuQ8EYpqQvhLBgU5ih+uwN7ItWt4wcH2ywFX8VDSYQFwr4XPHCNwYMQCg9w6hv+rwFG/WC5+GM86Bs6qmfn9aRtYwCG0uhtcjLXIgwheQwVgc/Li7RXiUl1a7es0eMYw5RgAhMrXR4ih40lEmcaDH1vuOI6s/sxJW4nqlvEAipKPElH2xGIK20O0jQ+p6uezvUBMYc4VCyWJ0NbeYVL50NkniQIuWz50fAa8hwaPVN9pEoSRJ9KbRmMiBFmM+93plNG90Hc/HezbOKM40vDkcCAqf+7nDpsB1RrNlRFxsNE0a3hocCArf7+DQuJ87l9NdtMUaRUlTYZQDQeFjkjfKaGKsKV80miYNbx0OBCd8J12a6qYMEz2WIYrLdSdIA+rmALfzhzr3Mvjx647zHidwX2/r2/ldvSbu3L+A95h8NyMK/BmSfmjYjZAXdwX3cOihGP9Sjzsxrvc17tVNHQChaXofKscRRtKkYaNz4JvCeb2bZN9zMNf6TTgkhLeTSsLN9qrijeFxoe9+30eNZD3mbzmh4YFnKIJedgzMH09WjZb93T73Xh2I1HuH8NNdvl5m6YDbfk55tyafr1JN8Dw5hNlPloX3PIWlF0fKbvug+b3g9GpjJMH782HsRve2Gr+lj7/b97sdiZRjhHDGpPURoiwV/FzhLV19R+uvxGG5f0U5eWvoiR/3w7MP26TfoRJvlKi05rbaZVtTSbivXn4amyKqrTVIF2M2VIBVOP2To7Zx4/U2TUMt4eWLeqGCTfQ4y/9KOJTLXvoVasugqClCIpHogNMzx9J+9Bb3n3hWo7dhLphxE5gqhpAf6XErpaRoct2KdZEAEhXe3FULO0BnyAQ8Mja4cRkPNy4vhUJsP/+xU71HjuxBeflHJTQvDCOrKDcHBmSeJnQoABE+DX212vPCPuP+1OhtrIExys06Bc+LMAjOJdYu7H3j24vybzwjqWXy0Yv0Cp7TxRQ2PJw+35Fj8CSmT/D+tEQ4m/JPk6DVa5r8hCLD7NOSwl+Xe0/mU73HLmWKAvdvDF278QsV5jdKg/DZon7jBhpPHVsKCLOHwZRwI9fyotSYKxzIPIs2MuJomY32G/b7LWmRW9d4iDtDMKyiDi8xKkBf2ausfy5nbJ/wuES8w4Xct0byxdzFGw4vM7YjPCzaO7r7LynWk/ZoQOFxfH3fwSbhezPWutBdz0RtHmsiVZh9s9eWDRrf0cQ8VbPChHMT+CqrRqoEEiq8Gx4MFy97MXndFB4e5X0dn2AYEj7ga/tsKzocJdOkRz3db2weWuvcBCAedOKwPDMB+bbIsn/VzF34Zs+yFoGRXgipy7Zlwgdh64uI4n2oRNq+DmD44ehx8fMS3Ij1xkRB/9X86TH98EmAVHxCGdAEtZVmogRrpi7qc9NTk+pe2qsnX74OZz5MNIngt7NHpXSJIl3K3bRET08hOGVwtFUXump8yInefNKgo1V2/IMO7oLSG5gi/BUyVecHEbYTQRxDKkf6eMs3ZA8OeEt5yHq2z/gcjPPXt+KESQEQRgdMIO/Uym7foAUdcZbuCVTED3Ce7lZMOC/kP8zNb5Fl+YNqZ+nCA4VPRlyGOd2zDkkd6K+hO32FD63h+KCZq0H4cMC9Hx4X+u6oLl4jEHr+yXx+Gkq4m3dCHrNlZ5+HPGp4GtQO/sHBVrhC82vxjJq8p0VAil9kJl+daBJQAa4BjjnR8BxualwKYUfeElfY5IPK93xWH9E+Mu+LWf9A/JjtheX/7VWUEZBLX7T0Q/h618cOV9EHEJ4uQZ38rs+Ybwsf7npMbsyRRFafW5Dr4Spd5B+8SLVjbg1kr3udDwKKsDkwL5hDih+wtHsHLR8tJrFXhkT63lq7ok4NC0zdxwiK8rJaXHiYmoImHCZZ74a7fYxlGHesc+Hkam4yqPEqYv+IeJgyPWJcWASGEN2wYUlNf+XCjzgOqWHD0rBeLTxVYegHf5kU3Ew+Uw3P9ssfy0TPeY5anFoYhs2B3GpKLS7ZYVjnE0PaPYw6TckmMhK+lYUlGWB8ZqR4U8MjqE59tccMNR5OU0PjQaOTbFOLEsiMYn15IvCi786/UGGNa3RVSRP3/JEUaig7oIYHE7HvwcNjanFqYZix1+c48w6qxSU7DN0+M+TRWqHGeorEF4glZekpCqLqOt8/A8e3dHWXk7A3w2fdutOaDMjHfEPCx5hvaJgwmd7W2THyaetA00Pqu/Ts9kWkXDMlaToUMNrfyeNu5DOEaZHySXY4X+dD+LqWjwHaTg88WONO4XlKnphIWtC614/e9EjEiS5Xz0LBcwf4+AKWnTZVWvwfVCR3O7YW16rGhwX6z0wKsp33zF0yMz6NpNULSxZ89ZxdeiZc592MCWY/6PxxxIu+4+gx7C2u2QsAGW75yEx11hvIMNn3M3p1ewcV+FAi8RJKV2jljwOSK0RRGoLxv1UPgXF+q41KQ6EfWaqVD3QGV8CAc5MiNLkVQV6jCMp73zc27K52zn2gbmDFaVrpuY9fpF8iNwq1UDpB7c1uwX0KPm33unvvxj2IuyqQB4w5dHRXAWj/nfVs8ZriF3+LJKQ0UWSgO/960oTcV/Tkz72OFbjnnCtJ9ByYtY/DbPommyid63DP/pUehxUux9zbiKK8BmFdEIavC5y233fC63uHW+aGxQVfuV/khr17ViP9BLUeCP17d3Tyq932uf6eUhIo+/tP3uCD+UR8ADNyIkamKOKMznlPHfyx5i7UctMVPozS6aSkBCaA+q/8qtlfApr/mi9SFHiKeOcOMaAAeiYiACLQUAc3Hfe9iEdVlbZbrimDKvqyqHkITITt4uM7B5StgwGIoOm7JTQz1J5e3NQ7NCzVz3zJJ9rItaBD95JLD82EkvI765a/qQc2bhhFmaErDyZcuaOwolUl5909BK+5AeXHwVjHRp8yg8Jk0JDweeJGn2+oLkKTCDRp5/JtsNMch8lZKyuXWMhAPq9OnpgfdTMnlnzV0rDBi2yYK/DKq3lBwMTnk8eEA3r37xmKLl235hCmm0MokbS9NoUjwkmQ88PDrPB+57cvvUabj53x3bGYL0rogsl/zB9ttLuPFaHn2A/dIDisvHRfrVTaMqNn6E7NAWHHQe1fFe8xoqHi6dD1W67lc7r4NWnXyxtFm+08aP5WYX4CUo1cZAdm9tdO3rXc8DhvBEs4bMeutsNYETSGh0d6hwFOq8pNRGF/JHi1cOA7wJd6kL2xrh/6/SGYUSKZNa9JO5ftunPXitGijZ6P7nt5dBUwUQDzIdbCk8XunQruqFu+OtmlOmvT1HoI4Q39eKXXw2Ht3YZ9gjx2hYdHfmdr/QLE2u9xCPPuyICtY8QM0dlWPGlvGFEiub7ZMYwSJQfTdnSZpAM0lfuYQPdkZdo2/XHHklYtqXWJExviKSj7F0Vm7/AxPRomVNTV0Beozg8gx2mQ44Jo6Xkc8jiaKZG8k+MM3QAtmSHhyz6FLyncWoisED+ysoRrtbgNnYYdXeqotVfPXg9Tr6lYdj8ShQpXhijdGyne0bHb/7iPHxiGJaFq5eDp+MYSRsOr+31dvN/f7XcSsypR3QytZdH1j49ERDo8Ng7AqdWjIiVj0DSrQ3OAbBowLK3I7GQb5rf0DY0MeSZbJnlhlXsDVLkLIeQWJlscDGFb8bsCp6srm9/5X1ww5/oc0yPdRgk8jU0SC/OqZrUglIenr/g4wL2i1awqu1BWSD9RID8yRVxv9HvC/vN/TeQKtPK+aKgniEjf571LKGXB8QWqRRxxEv4UGqn1jLFjHsafIi24dLw1OeDv9jlplNIWtUIPuags46w869dThp8zTFD4+SRvPVqywd0xdpbHUT7i58zAtlz2oPBJ1egmjA26dq9CCwxt362h7+nntsOBoPA5ybApX2aYdCaMwY7UAMPp0glSzoEWwucfQ0LXX2OEKuhPqaCwUiNp0rDW4EBwth8gB19lKsZZs7mBd913SoZhnfqxbvg0YFwc8BSUD2eycg70/Pgv7hX7dXpdr6u2AOJWwt8xoPSsJp/wjZolSCCR2h09RiWWfSPV4tJh5nEAS/Lford9AjqZFkfsmifr5CGYk1Xoxdai2+eJuBNl1IiX9GYQgMOSbwQnLPCevpvPAf5lUwh+bbjgOSbw/3Q40ixHz/0sVxLpwR4BiM5DBTCk7vUjY2QBtyPTgzgNY4wD3MceHEY9A8FL0VLy4+GeleVjo8EE4lSFz89vw23nqgCQ3jt2pAa5ZU+5Xvg0nH4O+Jp8xWj1WXpSoJLcz65fKWrBqgqfJyJEKsMmAPAZvBiZmu7+DfJMBzgTlFE6wJpBGMv1eDy9teAjCt/pnrkNkn9NK4PweL4fjXRLuTvR8Lj0e+wcwIHaXkZSE5lonq+IKHyOKEMSp6H16zYvChLHhB6+emVJ8D39EBcH+P4J/mEf3sCFj+tpQUcVfm5V0Q5sAs/XykQtHgTj5Mnce9Ti0mHGOIBlHDfveU9vKsA20M6dvtKCjyp8njirx5kVaP07tTJSi0f3/zAc/F6jFpcOM8YBSkTdPSka/Qt5n0z5UQuDpvC5d2ds98bWgrEsgcOkV3CI8XdahKTjo3PA7pq1DkfAFkWH8tvnfd6lQzdddhmawufImhGT2KxamQDvGWx1jbP0Ei3C0/HROSDldP4PiPcB9MStTLR4SgwPG2imcLXeL5hrTgoC5PDZO3zCfwkDjpgOaoKwo1QUfo0vRSTjPH2A7HZ55+f6oIO7VlDIBZiT2SBEbkj7BtTrrUy6ozFAt/B5Jrz1yorwHpZzmgoEVaRwoSKJZNTJg4yqIOnA5HFAV7cfICffVfwBupz7A++G74yd5pPZRuioYWGavlLNAUMtnxPL15xuZ9lbuMe1iYNh4EF86GemVfzTpFoQqcBvqOVzAvma05aROR5jza54CEblmebeWvO2Z/CDxg4YxoM0hWlxHv4XbnvZyBSS0Aq1YeHzHHK33ndAtIm/Q0UwaPDZEj/mDqPk4/VbXI6KwS1j2tcbtlnHNfiUaoUor3kGljusUjrD3X4o4TUF5ef7FGU9xoKOoeGGnwkcOzLyKBVspUYPJxjGlcQEcKrUkxHv0+jlrgqiJUJVl47dh+pdjgXTJeAhppYfoIPb/FGR/TvGgvgcInBdgMCmg1Eev8GChU8AB8qudYdiawKcKlW1EDxPxITCI8cPLNRKn4z4uFp+gEB3QdlNTGbL+I5eICyeO86lbYI2e4rDU7w5nnxSkfbkcvh+PqRFxU/pbXCN/lxUmARHmiIsTiOOB98IXf5SDAHqfugMFgSEKVxHnUHFCv8Gk8H0yQbnLtTgSasIPLhID26Ur0GU6LBU6jxMEz4v8EnjwlfRtXXSwwA9MLwSYFhZg4OGD/HPiOhJkywYbi3j+nr79URhELr+j1IG6SNkhy371MF6NmGCaUx8MFX4nC5PYcUQxedbhxZg/hIOkyVKyDK4MF3udydjIiP0ZoUxnGwvrBgqK8o1qOQ3QOg5etOqwWGI+18cmb5OLS7RYaYLnxPscpTno8H+PxjVNxEFONkbfAwDhw0ioRs6ZJ/ykd+1SSKQIU/uLQtOD0YyRq8hRPm3WPc3IpJHyX/ys/kR4xMUkRDhc1qbv+9yfCkYdWWCaP8pW/9SUeCnjTZgolhJslhNfn7+vli0h/xDCD+cOOgQBVaIL10WwmHhALTwi9HCs39CaPITXy0R4ZJkH3pJmPA5e3gX6XaWTwXjKsyaCOple/O2J9uL+cJuULIblWI31iL7ccemlJKpUCELz5nIj1vE8ntXVNQCfLYlB0NWXEtgvTQG4EBrI/De4fDMWRIIS8Y9ocIPFAC+Zi5A6/kLKkCfQFj63swBjPnb4ONkHDeYTTZPklLDeXfW0SbC5Qt5MdkFtCo+tHYcqyGPSjnZQ1IheM6XpLT8UAFgMngpbNCfQi9QEBr+c3rmrV0k5G6+RZ7Kcidd+LywfPbsOXbwXoWw+1EJ4tsXSCX3jOKGMQsY/mdsZS+MZTJqFJ0WfEqEHyCKnwj2+lgpJlhjMSeIegYtkKZN3ptn88+LHbLm2LdMO2iVMqRU+AEmNLsNozPQC0zAyoDPvNvFBeY2YGxfbJOk+dH856WqsJYQfqDwzVugTdPQE0xCT6DbfXggvVXu0DccBS2LssSMh3Kqpu+zCl3hdFhK+AHi+Ldk6pvkG6DB+wPW3sMC4Va/g5kfEoEu7ip1Wdm96q5jbYBea5PIvyrhleXx6AngmCA+PXpiSkq+Qb6vwhBlMQxRPInBkZhcLdny1YrarC2cdy5hyihUglHQ1g1PyUoBkzccQ/4bFslrYc24tq0JPJS3bUb4oUTzZ/9yseHQUDgiGIUKMRTzBDuCc8xeNWDCVovK9hm+R7MZPgc/O13surktdOnh/FJ7b7PCVysMrxA1TYf6w0uVHZXAjq2F3tDjd4YuqzMqB+7M/4yWewoECk/WpB5zihNQupxAfkcxx8A+AK2Dzr8Oaeo62ISdfbYVHVbD1R7C/gnFPAioGAFJEQAAAABJRU5ErkJggg==" vertex="1" parent="1">
          <mxGeometry x="890" y="587.5" width="42" height="42" as="geometry" />
        </mxCell>
        <mxCell id="kVk3VaA8d4-bThML82Me-15" value="" style="sketch=0;aspect=fixed;html=1;points=[];align=center;image;fontSize=12;image=img/lib/mscae/Docker.svg;" vertex="1" parent="1">
          <mxGeometry x="960.52" y="587.5" width="46.34" height="38" as="geometry" />
        </mxCell>
        <mxCell id="kVk3VaA8d4-bThML82Me-16" value="" style="shape=image;verticalLabelPosition=bottom;labelBackgroundColor=default;verticalAlign=top;aspect=fixed;imageAspect=0;image=data:image/png,iVBORw0KGgoAAAANSUhEUgAAACAAAAAgCAYAAABzenr0AAANA3pUWHRSYXcgcHJvZmlsZSB0eXBlIGV4aWYAAHjarZlpkhy5DYX/8xQ+AjdwOQ7XCN/Ax/cHMiunpdaMR+FRRVVm50KCeMDDA2XWf/69zb/4F1L0JkouqaZk+RdrrL5xUuz9186vs/H8nn/+ucXfP1w37w3PpcAx3D9Lep7/XHfvAPfQOJMvA5Xx3Og/3qjxGb/8NNAzc1CL9Hw+A9VnoODvDfcM0O6ybKolf11CX/c4Pysp92v0J5Yfzf72d8Z7U5gneL+CC5ZfH+I1IOjXmdA4yfy6EHnQcbGFGMq5Up/BcMiv/GS/WGV+RuU9c39y/SdQQrrXDRd+dGZ6j7+87uSn68+A5rj4y8xhvDP/cH1nO35ezue79yxm73VX12LCpelZ1Gcp54wHOy4P57XEJ/MVzvP5VD7FEL0DyCfzdT7DVeeBZbvopmtuu3WOww1MjH75zNH7AVB6rYTsqx/BGkVLP277HGqY4OXDAN7AVf/a4s689Uw3XGHi6XjSOwZTpL3Rn3/i86cD7a2+dc6W11fY5TUpMEOR01+eAhC3P3Ekx8Gfz8//FNcAgnLcXFhgs/0O0cU9saVxFA7QgQeF4801l+czAC5ibsEYF0DAJhfEJWez99k5/FjApzFQIWl8BwIn4idW+hhCApzidW7eye4868Xfy3AWQEhIpFYBoAZWEWIjfnIsxFCTIFFEkmQpUqUlqC9JSiknJb+WQ45Zcso5l1xzK6HEIiWVXIoptbTqa4Acpaaaa6m1tsakjZEbbzceaK37Hnrs0lPPvfTa2yB8Rhwy0sijmFFHm36GCU/MNPMss8623CKUVlyy0sqrrLraJtR22HHLTjvvsutuL2rOXFi/ff4+au6Dmj9I6YP5RY1Xc/4M4ZRORDEDMR8diGdFgID2ipktLlJFFDrFzFZPVojHSlFwplPEQDAu52W7F7s/kPsBNxPj/4Wb/yBnFLp/Ajmj0P0Jct9x+wVqU6vNsMEchDQN1ak2kH48sErzpWlR+37sc6/eup0l6YBMnELZzuTSd+sTi+dglMZc+hIT30dJOh4PRJ0szxAuYXuy7YzZyvL3FIY8J8J0sXkcRGV9bn05vjP0ml04pqRjSodoryVmf0y5Ng/r+xgDzPssgl+5mZ6nh/CwlLvOJaF/XbL5XV98dcV9fOe4a4X8WVDv0kZrIit2cjkKUbrwTZttsBaZTnKLMzXJdUpwoJ973wUkpxu9V7/N2nnBmDaCdpfVNWRWyJL2tDvCVWvOOLaG0RTSYwyZpXVIMJXpohBJyWKsmTnNyEWe683ZVYWXFhk1tuS+Z4o8IaA2215rU47qlu7XUqPmLnkPF4Y0w/xj9TIA3NcZub8IfpFWMoF8QliY2EmrY+UC58piAVaWq3xnHn5315PhybpjLUT55nx3fbnWeGNyxdDL34LC/DUWts1M9mAuKUMsKewKR2OAobapi20CUbPU8FyDr3iFeOz2rsTLPYGe/udRvW02LwnLLZAEPmhQCE7GkJrVmBhwO2mMGNCY9hh0fOzGvBPOlavPRcyUeKL/ZAGPCzjAQifBVqXYscq0xySL3hSrdi1717/baiMk181kfFKhrHCzktemRwzdV+YMCzXeCSPGgkDw1MDk11PwkexKAJpB+niNrFyAvpxli4rb3zyazwm+jVvPWLLkQLZooIcpaySX+mbiGDSMSWc4NHM/yXzdFM0bY7IYbcH32c41/GyT6J0sP7i8pfRFStoT7Gp+o/EYIaPNlkbiCib5fR9M50E/sSeRw1NDuSaUXCO0N1F68r+RyOP4uW6KBVNFLwoCKeJh+ONbDlYOKOR8m1V838TTKDtmLntSNXWf4KUnhMoNcmKwiSE6cgqaEYuMhcl2tzsgItNeMTOhZJZM6sG6eIXRqARwivoDy5O/N4KBMOYhDIYu1L97PZLb24dOkNCVdFGCoLx41wD7IdTu4BvyarUsocJHSFfClynfbFcAjlepcsf3fJTj0izUsA2Su4HahT7DUbCOWRMkE/dgSapYSDpnjso3wCyOa5jCepq/YK/sVitvnmUv2DszlZYxWU3NgRAPpDspDPgw6E0mZh42nXxzsgMmdP6ovcyWt13QxWrNwZCDKnqJww/iB8pwZF8SMq+f8uYc4ZgHCAaKMuyWlpwi6p+Z4HdPZK/OctYED0DuSAhUFuGEtEAPYd/Am4gPSl5dHv89JufGii3Nm3pipWxa1SKSnykTlQ13nQpHXFLUZ+RmqpPiP0Yq2Ob1/j79QLtLIbnoaT8ESvHDMF4GudZZQOvUSK1IEXZ62MAHOWe8ZUNVd1TNAdxkNvnCGFSmVpmu4Jc11dlFEDm5tToz/Y1Y7roZBGUk1JFM1CWwRfKQ4Vw2oZ/yVwXq9nVVUofpEaO9Y0IdPg89MP3GZelgFohGXVyPYWud1HODtBmDcfSPzI8eC2/jfgiN4qrxvhZVOFQN3iJSNemzdPpvVV1UCSjZDOUBqk7D51PLdmOB++tcTNXO/P787k9RrDg9av0FQiIbwrg+WUUbPKrlViaC8rmfRQuub/CADP6A5XJ9ygzpmUc9Ie4nS8tKNNgrpCaBKz6s4b6UJCYTBKHWl5zgyicDSqby7Fm3Jyc6jGNuJKQBg3OrUayxOKSuK40Px2fQVopfKNw7RXEUKvCA2jypTsk1bVp4BVmlwyy8d1Paujk+xI5smOfbMFCPuJnEyBTUsNfY46AWbYOZPaGh6iVMt3R9gpomDsaoO/m3UkhlskwhRDpHiNOOG6YEzTb8+UjFMKdikLIqn0y0vN5CdxGc0FEd3KlTZbRVOuCGDEoyMsGUAZnA7X+IVXIOPk3BlkgYEkLqCvTTwEJAxcxMKns3WrZb4WDYMRBaWXFE4UkktsupIxCmq2h20gj5kTpr2XBEzJXerAULdA+wdAhuUYWW0Z+ivLe15LmsGTdPIPaAzp8W90Umh0hDGNQTUoR1Ov3ZwdMlXLY0SpdaGzqRjzM8vF/qfEIOZPKHVYnVQI2RAaYJFUARJviGljt6sm6gqrq4FZAQWebZOBqqPipjrIEFYYnKig4nhvSEHX2G6i7R9CbgCDqDOkeNkj+H7zFrOmUy1JsWxwvv6KzWkSWi0lUqlhF220/eRdSgVLI38wZgrmj+qYYxLvBzkhBTSasKJnVY6WFo4F+/CFHzPUZ/K0ShG/Q90WAotPgfwDABoMFSro0TTvTpTRNq4OqPZIEoCQqYZ/ajb7QEasmmr0szaA3MYT/VkrExoS8758lW3JbgbirECQn1XEYfL/QhVICSNV4lOsTrtF6eBbGaI3FbK3Rp16TosK1qRmMc6U0RoyqsSOl36kRQq0gcBKifp5w0FbKDhrvb1t0NxIqnaO9PyOoX4lqH4665JGumuplP2XQwL9QeaYVg5wzfk+Ua5bDYTIuapH0yy4SG3h6Akuy0HPM1ruqJRSFpFILe0EKofTDcNx8Ur8KlZAfVM9ocagmtCJVSTwfhp9F2kg4ing5CG0ZKTUD48O48MZS7ViEqijY5h1dvUzM20llr6XC72G1a2mWoYKK979ry4e9gI9HYrp9TSt9Fs6Dtmu41+KwbU5CBwXUeMe6iNqnVN/fI+2a7014YZU+C0Yf1GkuNxIpzWg3k1M129iZcTNUoBX2YBVGrRUrz2pU5aLa0E+Wd0ysSojOQBZcRVah0Gov+9Mvm+g71tpRb5DRas9NWx9NWa3fx9t/kPTL1ONhlZYQA+aLN8ZUzt3+fz+bD7dLIFoQIU8BTYH7aD601uklCHzii7m2o1GEedQK9KzTCsPP7lsFvHymQxBHyjlq6tORm5AlB6+hpvajac7QfdMT9KNRHyKJH5Yrf0w3R7A0TtZPV9sHRbqJ+8ZQ85f++RMtc3oZYd6lIM+RlQZCH6yjKdy9G93CGZqCiNT/9rNVc0JQQbQcpd+G2tPJ6KtFM+7nJNlxGLw9q9jCCgk2t6brb8ETS06L8TR/RDtfLGItkF+U3ODppbipzZ6QVd5RpCuUFM5Sw1Yxnr4XOs6vVBroIqmkGrWjyQfNNQ2y3ONwiWopWgtznZ5PmVxsB5PMyK6gLtaWgNUMhupuYI5Q2XD67KVO3FNxx9/V/L0iDcmoY8oukgHGMEj/ciF5LyP1PvK6ebsgjtnWHRYsRfdAeVHv9L6tAF7Fz3g4haJl9OqMSL2EKBAWyAKIYITqRuk6LL6yGrk1Vd2kAgMldzJ4Fu1bjibqCQvDN0Hq3lMmFRD9H0ebySrqfIBPVY4Nul+iGgTKyyt80dc8m6Dp1c0S3OHVHLpkKPR1QdIcGh8Snub07NE47t4JuScqMYURW/BUPv+zGW3suw3TjrxD5dvyDCs4exOEMyFrbrPChgi9M8Nnnu9uIH2JOdxuRh3XDIr0bFq0s438r03X8JT+Q14LmoVuDIfljyLX42T/k0bOhhDPO/uEpD1veDaaf9g/N02OhvZG4/wU+fY2HmQRY+wAAAYVpQ0NQSUNDIHByb2ZpbGUAAHicfZE9SMNAHMVfU6VSqg52EHHIUAXBgqhIR61CESqEWqFVB5NLv6BJQ5Li4ii4Fhz8WKw6uDjr6uAqCIIfIG5uToouUuL/0kKLGA+O+/Hu3uPuHSDUy0yzuiYATbfNVCIuZrKrYuAVAfQhiDHEZGYZc5KUhOf4uoePr3dRnuV97s/Rq+YsBvhE4llmmDbxBvHMpm1w3icOs6KsEp8Tj5t0QeJHritNfuNccFngmWEznZonDhOLhQ5WOpgVTY14mjiiajrlC5kmq5y3OGvlKmvdk78wlNNXlrlOcxgJLGIJEkQoqKKEMmxEadVJsZCi/biHf8j1S+RSyFUCI8cCKtAgu37wP/jdrZWfmmwmheJA94vjfIwAgV2gUXOc72PHaZwA/mfgSm/7K3Ug9kl6ra1FjoD+beDiuq0pe8DlDjD4ZMim7Ep+mkI+D7yf0TdlgYFbILjW7K21j9MHIE1dJW+Ag0NgtEDZ6x7v7uns7d8zrf5+AKwscr4u8yrhAAANGmlUWHRYTUw6Y29tLmFkb2JlLnhtcAAAAAAAPD94cGFja2V0IGJlZ2luPSLvu78iIGlkPSJXNU0wTXBDZWhpSHpyZVN6TlRjemtjOWQiPz4KPHg6eG1wbWV0YSB4bWxuczp4PSJhZG9iZTpuczptZXRhLyIgeDp4bXB0az0iWE1QIENvcmUgNC40LjAtRXhpdjIiPgogPHJkZjpSREYgeG1sbnM6cmRmPSJodHRwOi8vd3d3LnczLm9yZy8xOTk5LzAyLzIyLXJkZi1zeW50YXgtbnMjIj4KICA8cmRmOkRlc2NyaXB0aW9uIHJkZjphYm91dD0iIgogICAgeG1sbnM6eG1wTU09Imh0dHA6Ly9ucy5hZG9iZS5jb20veGFwLzEuMC9tbS8iCiAgICB4bWxuczpzdEV2dD0iaHR0cDovL25zLmFkb2JlLmNvbS94YXAvMS4wL3NUeXBlL1Jlc291cmNlRXZlbnQjIgogICAgeG1sbnM6ZGM9Imh0dHA6Ly9wdXJsLm9yZy9kYy9lbGVtZW50cy8xLjEvIgogICAgeG1sbnM6R0lNUD0iaHR0cDovL3d3dy5naW1wLm9yZy94bXAvIgogICAgeG1sbnM6dGlmZj0iaHR0cDovL25zLmFkb2JlLmNvbS90aWZmLzEuMC8iCiAgICB4bWxuczp4bXA9Imh0dHA6Ly9ucy5hZG9iZS5jb20veGFwLzEuMC8iCiAgIHhtcE1NOkRvY3VtZW50SUQ9ImdpbXA6ZG9jaWQ6Z2ltcDo2NjJmMmMwYi1mYzkxLTQ0NDctOTc5OC1lNzQ0OWFkMDZhZWIiCiAgIHhtcE1NOkluc3RhbmNlSUQ9InhtcC5paWQ6YzBmOTk3MWYtNzMzZS00NDAwLTk3N2QtOThiODA0NjIwOWJlIgogICB4bXBNTTpPcmlnaW5hbERvY3VtZW50SUQ9InhtcC5kaWQ6YmY1N2JiNDctMjUxZS00NmIyLTgyODQtMjc2Mjg3OWY3MmU0IgogICBkYzpGb3JtYXQ9ImltYWdlL3BuZyIKICAgR0lNUDpBUEk9IjIuMCIKICAgR0lNUDpQbGF0Zm9ybT0iTGludXgiCiAgIEdJTVA6VGltZVN0YW1wPSIxNjI2MjU5NzAxMDgwNTA1IgogICBHSU1QOlZlcnNpb249IjIuMTAuMjQiCiAgIHRpZmY6T3JpZW50YXRpb249IjEiCiAgIHhtcDpDcmVhdG9yVG9vbD0iR0lNUCAyLjEwIj4KICAgPHhtcE1NOkhpc3Rvcnk+CiAgICA8cmRmOlNlcT4KICAgICA8cmRmOmxpCiAgICAgIHN0RXZ0OmFjdGlvbj0ic2F2ZWQiCiAgICAgIHN0RXZ0OmNoYW5nZWQ9Ii8iCiAgICAgIHN0RXZ0Omluc3RhbmNlSUQ9InhtcC5paWQ6NWZkMGNhZjQtOTlhYS00ODk0LTgzOGYtNDI1MTE1NDUzYTE3IgogICAgICBzdEV2dDpzb2Z0d2FyZUFnZW50PSJHaW1wIDIuMTAgKExpbnV4KSIKICAgICAgc3RFdnQ6d2hlbj0iMjAyMS0wNy0xNFQxMjo0ODoyMSswMjowMCIvPgogICAgPC9yZGY6U2VxPgogICA8L3htcE1NOkhpc3Rvcnk+CiAgPC9yZGY6RGVzY3JpcHRpb24+CiA8L3JkZjpSREY+CjwveDp4bXBtZXRhPgogICAgICAgICAgICAgICAgICAgICAgICAgICAgICAgICAgICAgICAgICAgICAgICAgICAgICAgICAgICAgICAgICAgICAgICAgICAgICAgICAgICAgICAgICAgICAgICAgICAgCiAgICAgICAgICAgICAgICAgICAgICAgICAgICAgICAgICAgICAgICAgICAgICAgICAgICAgICAgICAgICAgICAgICAgICAgICAgICAgICAgICAgICAgICAgICAgICAgICAgICAKICAgICAgICAgICAgICAgICAgICAgICAgICAgICAgICAgICAgICAgICAgICAgICAgICAgICAgICAgICAgICAgICAgICAgICAgICAgICAgICAgICAgICAgICAgICAgICAgICAgIAogICAgICAgICAgICAgICAgICAgICAgICAgICAgICAgICAgICAgICAgICAgICAgICAgICAgICAgICAgICAgICAgICAgICAgICAgICAgICAgICAgICAgICAgICAgICAgICAgICAgCiAgICAgICAgICAgICAgICAgICAgICAgICAgICAgICAgICAgICAgICAgICAgICAgICAgICAgICAgICAgICAgICAgICAgICAgICAgICAgICAgICAgICAgICAgICAgICAgICAgICAKICAgICAgICAgICAgICAgICAgICAgICAgICAgICAgICAgICAgICAgICAgICAgICAgICAgICAgICAgICAgICAgICAgICAgICAgICAgICAgICAgICAgICAgICAgICAgICAgICAgIAogICAgICAgICAgICAgICAgICAgICAgICAgICAgICAgICAgICAgICAgICAgICAgICAgICAgICAgICAgICAgICAgICAgICAgICAgICAgICAgICAgICAgICAgICAgICAgICAgICAgCiAgICAgICAgICAgICAgICAgICAgICAgICAgICAgICAgICAgICAgICAgICAgICAgICAgICAgICAgICAgICAgICAgICAgICAgICAgICAgICAgICAgICAgICAgICAgICAgICAgICAKICAgICAgICAgICAgICAgICAgICAgICAgICAgICAgICAgICAgICAgICAgICAgICAgICAgICAgICAgICAgICAgICAgICAgICAgICAgICAgICAgICAgICAgICAgICAgICAgICAgIAogICAgICAgICAgICAgICAgICAgICAgICAgICAgICAgICAgICAgICAgICAgICAgICAgICAgICAgICAgICAgICAgICAgICAgICAgICAgICAgICAgICAgICAgICAgICAgICAgICAgCiAgICAgICAgICAgICAgICAgICAgICAgICAgICAgICAgICAgICAgICAgICAgICAgICAgICAgICAgICAgICAgICAgICAgICAgICAgICAgICAgICAgICAgICAgICAgICAgICAgICAKICAgICAgICAgICAgICAgICAgICAgICAgICAgICAgICAgICAgICAgICAgICAgICAgICAgICAgICAgICAgICAgICAgICAgICAgICAgICAgICAgICAgICAgICAgICAgICAgICAgIAogICAgICAgICAgICAgICAgICAgICAgICAgICAgICAgICAgICAgICAgICAgICAgICAgICAgICAgICAgICAgICAgICAgICAgICAgICAgICAgICAgICAgICAgICAgICAgICAgICAgCiAgICAgICAgICAgICAgICAgICAgICAgICAgICAgICAgICAgICAgICAgICAgICAgICAgICAgICAgICAgICAgICAgICAgICAgICAgICAgICAgICAgICAgICAgICAgICAgICAgICAKICAgICAgICAgICAgICAgICAgICAgICAgICAgICAgICAgICAgICAgICAgICAgICAgICAgICAgICAgICAgICAgICAgICAgICAgICAgICAgICAgICAgICAgICAgICAgICAgICAgIAogICAgICAgICAgICAgICAgICAgICAgICAgICAgICAgICAgICAgICAgICAgICAgICAgICAgICAgICAgICAgICAgICAgICAgICAgICAgICAgICAgICAgICAgICAgICAgICAgICAgCiAgICAgICAgICAgICAgICAgICAgICAgICAgICAgICAgICAgICAgICAgICAgICAgICAgICAgICAgICAgICAgICAgICAgICAgICAgICAgICAgICAgICAgICAgICAgICAgICAgICAKICAgICAgICAgICAgICAgICAgICAgICAgICAgICAgICAgICAgICAgICAgICAgICAgICAgICAgICAgICAgICAgICAgICAgICAgICAgICAgICAgICAgICAgICAgICAgICAgICAgIAogICAgICAgICAgICAgICAgICAgICAgICAgICAgICAgICAgICAgICAgICAgICAgICAgICAgICAgICAgICAgICAgICAgICAgICAgICAgICAgICAgICAgICAgICAgICAgICAgICAgCiAgICAgICAgICAgICAgICAgICAgICAgICAgICAgICAgICAgICAgICAgICAgICAgICAgICAgICAgICAgICAgICAgICAgICAgICAgICAgICAgICAgICAgICAgICAgICAgICAgICAKICAgICAgICAgICAgICAgICAgICAgICAgICAgCjw/eHBhY2tldCBlbmQ9InciPz4yydesAAAABmJLR0QA/wD/AP+gvaeTAAAACXBIWXMAAAsTAAALEwEAmpwYAAAAB3RJTUUH5QcOCjAVZ67cfAAABftJREFUWMOtl1tsFGUUx38z09nZ2d22a7ftFlraLi1EaVLaZhAEjWgBL/FCjMYHiEYfzD7AC1GiPHiJogaCMcYLoi9ioomXGKLGQJMC8UbMIgutqMi23VKg9L7dbrd7HR92dralqy2Fk2yy5/u+Oed/zvnO5ROYJzXt9zmBe4G7gWagGnAa22NAD3AKaAcO+71aaD5yhXkoXg7sBB4HHNl1HZCMr1P6LEFh4DNgr9+rBRYEoGm/zwa8AmwHFAHYUK6y3uNkaZmdEoeC1SIBEI0nGQnHCQxGONo9RvtgNCtmCngLeNXv1abmDaBpv28Z8BXQKAnwdL2TB1dWUFViR5jDZ7oOvUMRDp2+zCeBEOnM8kngMb9X654TQNN+XzPwA+BuLrLw/Poali8qYiH018UQu48F6ZxIAFwC7vF7tc7/BGBY/iPg3lxpZ0drHYWqzPXQ+GScPW0Bvu+fBLgI3O73aj2zABgx/xVo3Fxp5/l7lqHIEjeCovEUu384lwXhA+7I3glx2rmXgcbmIgs7WutumHIA1SLx3MY6GuwygAbsmuEBI9XOSALKZw8uW3DM56KzfWNs/T6ADlFghd+r9RQYezsB5al6Z17luq7jO3OBvv5x1rbU4C4rnLF/aWSSX84Pk0rroOsI4xGEVIp0oR3kjIpql43V9S62eor4tHtcBZ4FtglGhbsggOPQozezxGWfBcDX0ceOd34DoN6t8sFLm8wQxRIptnzeSSCaBMAyOI4SHAUgrcpEGhabcj7aWIvLofDIN39nq+cS0Sivjg3lKlUls5XHk2kOHAuafNfgFH9ejJj8VCJFz1TS5KVowvwvTiUQ0rrJD0/EqS1zcHuJFaOMt4rAXQDrPc68RebXfwY5SQGImc1bbi7nj+EUU4lMiSm2WXhRq8BZIGITBSRRACH3U0UBmyiwqVzltnoXggCtnuKs+LsLjMaCp8yeN33e8/WTthSQcBdiHQjT0FhLPKVz9vIULdU2AB5qqeS+lYtIpXW+ONHL2x1DmXCIAm1PNGIpELEUSKaBdeWmriYRqNEBl0OZBeDY2Sv8M5lxb8xdROPKKuyFKgB/DMSIxNLmWVkSscoSsiSiGz8kEUWWUGRphnddDgUjMLUi4JQEzMZitrNogndPXTH5UlXm0Q3LTT6Z1um4FF1wXTCoWDSybBYd7ujnUjxn4famctYsLcIu52rX30MxQtHUNQOYpk4XgbG00VLN2xqO8e6ZQZP3WCVaG9zIkkBzpdVcT+twum9yQaXZoJAIBAVgOBw3D3x3+jKhVA7nNq0Cm5IpKEtLFYqVnBe6RhMMTySvCcBwOJZtQj0i8HsmvycA6B+N8v7ZEfNwY6HMuuVluTwXBVqq1Bnu/P0avXB+wKwjp0RjhqO9K4Sug69nhPi0S+FdtWhWY6ouUSi15db6xpO5jJhjYEnrOm3dY1m2XQSOAOGjQ1F6hyaodOasu9NlZdXS0llCRAG0aV6wyyJKgWCAs5nr61xWZEmc8W33lQlOjMYARoB2qf+7A7GKB56pATRrPMnDLZWsLVdZ57ax5dYqM/ZXU6FVwm2XKFEltGobqiWjqMplo7nYwpoyla2rl0xPOXQdPv45SGcoDvCh36t9m5W+B3jyYCBk3XRLiMbqm+YVy8VOC4udV3tHYM2y0rznOy6M8nkwDBAB9pkDid+rdQH70sDrx4KEJuM3fBYYjcTZfbw3y77p92p9V09ErwEnOycS7G0LzKgL10uRWJI3jpznXKas/2J4PO9QWgv8BFTeX2Fj58Y6im2W67b8jSPnaRuIAgSNobTv/8byBuAwULnCLrNrfTUrqpxzP6HyvA86Loyy+3hv1vIgsMnv1c7N52FSA3wJrBKArZ4iNq+swFPuQJjjZZLWdbqvTPC1/3L2wmXd/vh0y+fzNLMCLwDPASrAuhKFVo+TujI7rkLFTLFoPMVQOEZgIEJb1xgnxmJm+IE3gT1+rxZf6OO0xhggtwA35elo+YSMAAeBffmsviYA04A4gFZjhGsGaoDsbBUCuqc9z9v9Xm1eDeJfGoshrXk14zIAAAAASUVORK5CYII=;" vertex="1" parent="1">
          <mxGeometry x="490.52" y="640" width="45" height="45" as="geometry" />
        </mxCell>
        <mxCell id="kVk3VaA8d4-bThML82Me-17" value="" style="shape=image;verticalLabelPosition=bottom;labelBackgroundColor=default;verticalAlign=top;aspect=fixed;imageAspect=0;image=data:image/png,iVBORw0KGgoAAAANSUhEUgAAACAAAAAgCAYAAABzenr0AAANA3pUWHRSYXcgcHJvZmlsZSB0eXBlIGV4aWYAAHjarZlpkhy5DYX/8xQ+AjdwOQ7XCN/Ax/cHMiunpdaMR+FRRVVm50KCeMDDA2XWf/69zb/4F1L0JkouqaZk+RdrrL5xUuz9186vs/H8nn/+ucXfP1w37w3PpcAx3D9Lep7/XHfvAPfQOJMvA5Xx3Og/3qjxGb/8NNAzc1CL9Hw+A9VnoODvDfcM0O6ybKolf11CX/c4Pysp92v0J5Yfzf72d8Z7U5gneL+CC5ZfH+I1IOjXmdA4yfy6EHnQcbGFGMq5Up/BcMiv/GS/WGV+RuU9c39y/SdQQrrXDRd+dGZ6j7+87uSn68+A5rj4y8xhvDP/cH1nO35ezue79yxm73VX12LCpelZ1Gcp54wHOy4P57XEJ/MVzvP5VD7FEL0DyCfzdT7DVeeBZbvopmtuu3WOww1MjH75zNH7AVB6rYTsqx/BGkVLP277HGqY4OXDAN7AVf/a4s689Uw3XGHi6XjSOwZTpL3Rn3/i86cD7a2+dc6W11fY5TUpMEOR01+eAhC3P3Ekx8Gfz8//FNcAgnLcXFhgs/0O0cU9saVxFA7QgQeF4801l+czAC5ibsEYF0DAJhfEJWez99k5/FjApzFQIWl8BwIn4idW+hhCApzidW7eye4868Xfy3AWQEhIpFYBoAZWEWIjfnIsxFCTIFFEkmQpUqUlqC9JSiknJb+WQ45Zcso5l1xzK6HEIiWVXIoptbTqa4Acpaaaa6m1tsakjZEbbzceaK37Hnrs0lPPvfTa2yB8Rhwy0sijmFFHm36GCU/MNPMss8623CKUVlyy0sqrrLraJtR22HHLTjvvsutuL2rOXFi/ff4+au6Dmj9I6YP5RY1Xc/4M4ZRORDEDMR8diGdFgID2ipktLlJFFDrFzFZPVojHSlFwplPEQDAu52W7F7s/kPsBNxPj/4Wb/yBnFLp/Ajmj0P0Jct9x+wVqU6vNsMEchDQN1ak2kH48sErzpWlR+37sc6/eup0l6YBMnELZzuTSd+sTi+dglMZc+hIT30dJOh4PRJ0szxAuYXuy7YzZyvL3FIY8J8J0sXkcRGV9bn05vjP0ml04pqRjSodoryVmf0y5Ng/r+xgDzPssgl+5mZ6nh/CwlLvOJaF/XbL5XV98dcV9fOe4a4X8WVDv0kZrIit2cjkKUbrwTZttsBaZTnKLMzXJdUpwoJ973wUkpxu9V7/N2nnBmDaCdpfVNWRWyJL2tDvCVWvOOLaG0RTSYwyZpXVIMJXpohBJyWKsmTnNyEWe683ZVYWXFhk1tuS+Z4o8IaA2215rU47qlu7XUqPmLnkPF4Y0w/xj9TIA3NcZub8IfpFWMoF8QliY2EmrY+UC58piAVaWq3xnHn5315PhybpjLUT55nx3fbnWeGNyxdDL34LC/DUWts1M9mAuKUMsKewKR2OAobapi20CUbPU8FyDr3iFeOz2rsTLPYGe/udRvW02LwnLLZAEPmhQCE7GkJrVmBhwO2mMGNCY9hh0fOzGvBPOlavPRcyUeKL/ZAGPCzjAQifBVqXYscq0xySL3hSrdi1717/baiMk181kfFKhrHCzktemRwzdV+YMCzXeCSPGgkDw1MDk11PwkexKAJpB+niNrFyAvpxli4rb3zyazwm+jVvPWLLkQLZooIcpaySX+mbiGDSMSWc4NHM/yXzdFM0bY7IYbcH32c41/GyT6J0sP7i8pfRFStoT7Gp+o/EYIaPNlkbiCib5fR9M50E/sSeRw1NDuSaUXCO0N1F68r+RyOP4uW6KBVNFLwoCKeJh+ONbDlYOKOR8m1V838TTKDtmLntSNXWf4KUnhMoNcmKwiSE6cgqaEYuMhcl2tzsgItNeMTOhZJZM6sG6eIXRqARwivoDy5O/N4KBMOYhDIYu1L97PZLb24dOkNCVdFGCoLx41wD7IdTu4BvyarUsocJHSFfClynfbFcAjlepcsf3fJTj0izUsA2Su4HahT7DUbCOWRMkE/dgSapYSDpnjso3wCyOa5jCepq/YK/sVitvnmUv2DszlZYxWU3NgRAPpDspDPgw6E0mZh42nXxzsgMmdP6ovcyWt13QxWrNwZCDKnqJww/iB8pwZF8SMq+f8uYc4ZgHCAaKMuyWlpwi6p+Z4HdPZK/OctYED0DuSAhUFuGEtEAPYd/Am4gPSl5dHv89JufGii3Nm3pipWxa1SKSnykTlQ13nQpHXFLUZ+RmqpPiP0Yq2Ob1/j79QLtLIbnoaT8ESvHDMF4GudZZQOvUSK1IEXZ62MAHOWe8ZUNVd1TNAdxkNvnCGFSmVpmu4Jc11dlFEDm5tToz/Y1Y7roZBGUk1JFM1CWwRfKQ4Vw2oZ/yVwXq9nVVUofpEaO9Y0IdPg89MP3GZelgFohGXVyPYWud1HODtBmDcfSPzI8eC2/jfgiN4qrxvhZVOFQN3iJSNemzdPpvVV1UCSjZDOUBqk7D51PLdmOB++tcTNXO/P787k9RrDg9av0FQiIbwrg+WUUbPKrlViaC8rmfRQuub/CADP6A5XJ9ygzpmUc9Ie4nS8tKNNgrpCaBKz6s4b6UJCYTBKHWl5zgyicDSqby7Fm3Jyc6jGNuJKQBg3OrUayxOKSuK40Px2fQVopfKNw7RXEUKvCA2jypTsk1bVp4BVmlwyy8d1Paujk+xI5smOfbMFCPuJnEyBTUsNfY46AWbYOZPaGh6iVMt3R9gpomDsaoO/m3UkhlskwhRDpHiNOOG6YEzTb8+UjFMKdikLIqn0y0vN5CdxGc0FEd3KlTZbRVOuCGDEoyMsGUAZnA7X+IVXIOPk3BlkgYEkLqCvTTwEJAxcxMKns3WrZb4WDYMRBaWXFE4UkktsupIxCmq2h20gj5kTpr2XBEzJXerAULdA+wdAhuUYWW0Z+ivLe15LmsGTdPIPaAzp8W90Umh0hDGNQTUoR1Ov3ZwdMlXLY0SpdaGzqRjzM8vF/qfEIOZPKHVYnVQI2RAaYJFUARJviGljt6sm6gqrq4FZAQWebZOBqqPipjrIEFYYnKig4nhvSEHX2G6i7R9CbgCDqDOkeNkj+H7zFrOmUy1JsWxwvv6KzWkSWi0lUqlhF220/eRdSgVLI38wZgrmj+qYYxLvBzkhBTSasKJnVY6WFo4F+/CFHzPUZ/K0ShG/Q90WAotPgfwDABoMFSro0TTvTpTRNq4OqPZIEoCQqYZ/ajb7QEasmmr0szaA3MYT/VkrExoS8758lW3JbgbirECQn1XEYfL/QhVICSNV4lOsTrtF6eBbGaI3FbK3Rp16TosK1qRmMc6U0RoyqsSOl36kRQq0gcBKifp5w0FbKDhrvb1t0NxIqnaO9PyOoX4lqH4665JGumuplP2XQwL9QeaYVg5wzfk+Ua5bDYTIuapH0yy4SG3h6Akuy0HPM1ruqJRSFpFILe0EKofTDcNx8Ur8KlZAfVM9ocagmtCJVSTwfhp9F2kg4ing5CG0ZKTUD48O48MZS7ViEqijY5h1dvUzM20llr6XC72G1a2mWoYKK979ry4e9gI9HYrp9TSt9Fs6Dtmu41+KwbU5CBwXUeMe6iNqnVN/fI+2a7014YZU+C0Yf1GkuNxIpzWg3k1M129iZcTNUoBX2YBVGrRUrz2pU5aLa0E+Wd0ysSojOQBZcRVah0Gov+9Mvm+g71tpRb5DRas9NWx9NWa3fx9t/kPTL1ONhlZYQA+aLN8ZUzt3+fz+bD7dLIFoQIU8BTYH7aD601uklCHzii7m2o1GEedQK9KzTCsPP7lsFvHymQxBHyjlq6tORm5AlB6+hpvajac7QfdMT9KNRHyKJH5Yrf0w3R7A0TtZPV9sHRbqJ+8ZQ85f++RMtc3oZYd6lIM+RlQZCH6yjKdy9G93CGZqCiNT/9rNVc0JQQbQcpd+G2tPJ6KtFM+7nJNlxGLw9q9jCCgk2t6brb8ETS06L8TR/RDtfLGItkF+U3ODppbipzZ6QVd5RpCuUFM5Sw1Yxnr4XOs6vVBroIqmkGrWjyQfNNQ2y3ONwiWopWgtznZ5PmVxsB5PMyK6gLtaWgNUMhupuYI5Q2XD67KVO3FNxx9/V/L0iDcmoY8oukgHGMEj/ciF5LyP1PvK6ebsgjtnWHRYsRfdAeVHv9L6tAF7Fz3g4haJl9OqMSL2EKBAWyAKIYITqRuk6LL6yGrk1Vd2kAgMldzJ4Fu1bjibqCQvDN0Hq3lMmFRD9H0ebySrqfIBPVY4Nul+iGgTKyyt80dc8m6Dp1c0S3OHVHLpkKPR1QdIcGh8Snub07NE47t4JuScqMYURW/BUPv+zGW3suw3TjrxD5dvyDCs4exOEMyFrbrPChgi9M8Nnnu9uIH2JOdxuRh3XDIr0bFq0s438r03X8JT+Q14LmoVuDIfljyLX42T/k0bOhhDPO/uEpD1veDaaf9g/N02OhvZG4/wU+fY2HmQRY+wAAAYVpQ0NQSUNDIHByb2ZpbGUAAHicfZE9SMNAHMVfU6VSqg52EHHIUAXBgqhIR61CESqEWqFVB5NLv6BJQ5Li4ii4Fhz8WKw6uDjr6uAqCIIfIG5uToouUuL/0kKLGA+O+/Hu3uPuHSDUy0yzuiYATbfNVCIuZrKrYuAVAfQhiDHEZGYZc5KUhOf4uoePr3dRnuV97s/Rq+YsBvhE4llmmDbxBvHMpm1w3icOs6KsEp8Tj5t0QeJHritNfuNccFngmWEznZonDhOLhQ5WOpgVTY14mjiiajrlC5kmq5y3OGvlKmvdk78wlNNXlrlOcxgJLGIJEkQoqKKEMmxEadVJsZCi/biHf8j1S+RSyFUCI8cCKtAgu37wP/jdrZWfmmwmheJA94vjfIwAgV2gUXOc72PHaZwA/mfgSm/7K3Ug9kl6ra1FjoD+beDiuq0pe8DlDjD4ZMim7Ep+mkI+D7yf0TdlgYFbILjW7K21j9MHIE1dJW+Ag0NgtEDZ6x7v7uns7d8zrf5+AKwscr4u8yrhAAANGmlUWHRYTUw6Y29tLmFkb2JlLnhtcAAAAAAAPD94cGFja2V0IGJlZ2luPSLvu78iIGlkPSJXNU0wTXBDZWhpSHpyZVN6TlRjemtjOWQiPz4KPHg6eG1wbWV0YSB4bWxuczp4PSJhZG9iZTpuczptZXRhLyIgeDp4bXB0az0iWE1QIENvcmUgNC40LjAtRXhpdjIiPgogPHJkZjpSREYgeG1sbnM6cmRmPSJodHRwOi8vd3d3LnczLm9yZy8xOTk5LzAyLzIyLXJkZi1zeW50YXgtbnMjIj4KICA8cmRmOkRlc2NyaXB0aW9uIHJkZjphYm91dD0iIgogICAgeG1sbnM6eG1wTU09Imh0dHA6Ly9ucy5hZG9iZS5jb20veGFwLzEuMC9tbS8iCiAgICB4bWxuczpzdEV2dD0iaHR0cDovL25zLmFkb2JlLmNvbS94YXAvMS4wL3NUeXBlL1Jlc291cmNlRXZlbnQjIgogICAgeG1sbnM6ZGM9Imh0dHA6Ly9wdXJsLm9yZy9kYy9lbGVtZW50cy8xLjEvIgogICAgeG1sbnM6R0lNUD0iaHR0cDovL3d3dy5naW1wLm9yZy94bXAvIgogICAgeG1sbnM6dGlmZj0iaHR0cDovL25zLmFkb2JlLmNvbS90aWZmLzEuMC8iCiAgICB4bWxuczp4bXA9Imh0dHA6Ly9ucy5hZG9iZS5jb20veGFwLzEuMC8iCiAgIHhtcE1NOkRvY3VtZW50SUQ9ImdpbXA6ZG9jaWQ6Z2ltcDo2NjJmMmMwYi1mYzkxLTQ0NDctOTc5OC1lNzQ0OWFkMDZhZWIiCiAgIHhtcE1NOkluc3RhbmNlSUQ9InhtcC5paWQ6YzBmOTk3MWYtNzMzZS00NDAwLTk3N2QtOThiODA0NjIwOWJlIgogICB4bXBNTTpPcmlnaW5hbERvY3VtZW50SUQ9InhtcC5kaWQ6YmY1N2JiNDctMjUxZS00NmIyLTgyODQtMjc2Mjg3OWY3MmU0IgogICBkYzpGb3JtYXQ9ImltYWdlL3BuZyIKICAgR0lNUDpBUEk9IjIuMCIKICAgR0lNUDpQbGF0Zm9ybT0iTGludXgiCiAgIEdJTVA6VGltZVN0YW1wPSIxNjI2MjU5NzAxMDgwNTA1IgogICBHSU1QOlZlcnNpb249IjIuMTAuMjQiCiAgIHRpZmY6T3JpZW50YXRpb249IjEiCiAgIHhtcDpDcmVhdG9yVG9vbD0iR0lNUCAyLjEwIj4KICAgPHhtcE1NOkhpc3Rvcnk+CiAgICA8cmRmOlNlcT4KICAgICA8cmRmOmxpCiAgICAgIHN0RXZ0OmFjdGlvbj0ic2F2ZWQiCiAgICAgIHN0RXZ0OmNoYW5nZWQ9Ii8iCiAgICAgIHN0RXZ0Omluc3RhbmNlSUQ9InhtcC5paWQ6NWZkMGNhZjQtOTlhYS00ODk0LTgzOGYtNDI1MTE1NDUzYTE3IgogICAgICBzdEV2dDpzb2Z0d2FyZUFnZW50PSJHaW1wIDIuMTAgKExpbnV4KSIKICAgICAgc3RFdnQ6d2hlbj0iMjAyMS0wNy0xNFQxMjo0ODoyMSswMjowMCIvPgogICAgPC9yZGY6U2VxPgogICA8L3htcE1NOkhpc3Rvcnk+CiAgPC9yZGY6RGVzY3JpcHRpb24+CiA8L3JkZjpSREY+CjwveDp4bXBtZXRhPgogICAgICAgICAgICAgICAgICAgICAgICAgICAgICAgICAgICAgICAgICAgICAgICAgICAgICAgICAgICAgICAgICAgICAgICAgICAgICAgICAgICAgICAgICAgICAgICAgICAgCiAgICAgICAgICAgICAgICAgICAgICAgICAgICAgICAgICAgICAgICAgICAgICAgICAgICAgICAgICAgICAgICAgICAgICAgICAgICAgICAgICAgICAgICAgICAgICAgICAgICAKICAgICAgICAgICAgICAgICAgICAgICAgICAgICAgICAgICAgICAgICAgICAgICAgICAgICAgICAgICAgICAgICAgICAgICAgICAgICAgICAgICAgICAgICAgICAgICAgICAgIAogICAgICAgICAgICAgICAgICAgICAgICAgICAgICAgICAgICAgICAgICAgICAgICAgICAgICAgICAgICAgICAgICAgICAgICAgICAgICAgICAgICAgICAgICAgICAgICAgICAgCiAgICAgICAgICAgICAgICAgICAgICAgICAgICAgICAgICAgICAgICAgICAgICAgICAgICAgICAgICAgICAgICAgICAgICAgICAgICAgICAgICAgICAgICAgICAgICAgICAgICAKICAgICAgICAgICAgICAgICAgICAgICAgICAgICAgICAgICAgICAgICAgICAgICAgICAgICAgICAgICAgICAgICAgICAgICAgICAgICAgICAgICAgICAgICAgICAgICAgICAgIAogICAgICAgICAgICAgICAgICAgICAgICAgICAgICAgICAgICAgICAgICAgICAgICAgICAgICAgICAgICAgICAgICAgICAgICAgICAgICAgICAgICAgICAgICAgICAgICAgICAgCiAgICAgICAgICAgICAgICAgICAgICAgICAgICAgICAgICAgICAgICAgICAgICAgICAgICAgICAgICAgICAgICAgICAgICAgICAgICAgICAgICAgICAgICAgICAgICAgICAgICAKICAgICAgICAgICAgICAgICAgICAgICAgICAgICAgICAgICAgICAgICAgICAgICAgICAgICAgICAgICAgICAgICAgICAgICAgICAgICAgICAgICAgICAgICAgICAgICAgICAgIAogICAgICAgICAgICAgICAgICAgICAgICAgICAgICAgICAgICAgICAgICAgICAgICAgICAgICAgICAgICAgICAgICAgICAgICAgICAgICAgICAgICAgICAgICAgICAgICAgICAgCiAgICAgICAgICAgICAgICAgICAgICAgICAgICAgICAgICAgICAgICAgICAgICAgICAgICAgICAgICAgICAgICAgICAgICAgICAgICAgICAgICAgICAgICAgICAgICAgICAgICAKICAgICAgICAgICAgICAgICAgICAgICAgICAgICAgICAgICAgICAgICAgICAgICAgICAgICAgICAgICAgICAgICAgICAgICAgICAgICAgICAgICAgICAgICAgICAgICAgICAgIAogICAgICAgICAgICAgICAgICAgICAgICAgICAgICAgICAgICAgICAgICAgICAgICAgICAgICAgICAgICAgICAgICAgICAgICAgICAgICAgICAgICAgICAgICAgICAgICAgICAgCiAgICAgICAgICAgICAgICAgICAgICAgICAgICAgICAgICAgICAgICAgICAgICAgICAgICAgICAgICAgICAgICAgICAgICAgICAgICAgICAgICAgICAgICAgICAgICAgICAgICAKICAgICAgICAgICAgICAgICAgICAgICAgICAgICAgICAgICAgICAgICAgICAgICAgICAgICAgICAgICAgICAgICAgICAgICAgICAgICAgICAgICAgICAgICAgICAgICAgICAgIAogICAgICAgICAgICAgICAgICAgICAgICAgICAgICAgICAgICAgICAgICAgICAgICAgICAgICAgICAgICAgICAgICAgICAgICAgICAgICAgICAgICAgICAgICAgICAgICAgICAgCiAgICAgICAgICAgICAgICAgICAgICAgICAgICAgICAgICAgICAgICAgICAgICAgICAgICAgICAgICAgICAgICAgICAgICAgICAgICAgICAgICAgICAgICAgICAgICAgICAgICAKICAgICAgICAgICAgICAgICAgICAgICAgICAgICAgICAgICAgICAgICAgICAgICAgICAgICAgICAgICAgICAgICAgICAgICAgICAgICAgICAgICAgICAgICAgICAgICAgICAgIAogICAgICAgICAgICAgICAgICAgICAgICAgICAgICAgICAgICAgICAgICAgICAgICAgICAgICAgICAgICAgICAgICAgICAgICAgICAgICAgICAgICAgICAgICAgICAgICAgICAgCiAgICAgICAgICAgICAgICAgICAgICAgICAgICAgICAgICAgICAgICAgICAgICAgICAgICAgICAgICAgICAgICAgICAgICAgICAgICAgICAgICAgICAgICAgICAgICAgICAgICAKICAgICAgICAgICAgICAgICAgICAgICAgICAgCjw/eHBhY2tldCBlbmQ9InciPz4yydesAAAABmJLR0QA/wD/AP+gvaeTAAAACXBIWXMAAAsTAAALEwEAmpwYAAAAB3RJTUUH5QcOCjAVZ67cfAAABftJREFUWMOtl1tsFGUUx38z09nZ2d22a7ftFlraLi1EaVLaZhAEjWgBL/FCjMYHiEYfzD7AC1GiPHiJogaCMcYLoi9ioomXGKLGQJMC8UbMIgutqMi23VKg9L7dbrd7HR92dralqy2Fk2yy5/u+Oed/zvnO5ROYJzXt9zmBe4G7gWagGnAa22NAD3AKaAcO+71aaD5yhXkoXg7sBB4HHNl1HZCMr1P6LEFh4DNgr9+rBRYEoGm/zwa8AmwHFAHYUK6y3uNkaZmdEoeC1SIBEI0nGQnHCQxGONo9RvtgNCtmCngLeNXv1abmDaBpv28Z8BXQKAnwdL2TB1dWUFViR5jDZ7oOvUMRDp2+zCeBEOnM8kngMb9X654TQNN+XzPwA+BuLrLw/Poali8qYiH018UQu48F6ZxIAFwC7vF7tc7/BGBY/iPg3lxpZ0drHYWqzPXQ+GScPW0Bvu+fBLgI3O73aj2zABgx/xVo3Fxp5/l7lqHIEjeCovEUu384lwXhA+7I3glx2rmXgcbmIgs7WutumHIA1SLx3MY6GuwygAbsmuEBI9XOSALKZw8uW3DM56KzfWNs/T6ADlFghd+r9RQYezsB5al6Z17luq7jO3OBvv5x1rbU4C4rnLF/aWSSX84Pk0rroOsI4xGEVIp0oR3kjIpql43V9S62eor4tHtcBZ4FtglGhbsggOPQozezxGWfBcDX0ceOd34DoN6t8sFLm8wQxRIptnzeSSCaBMAyOI4SHAUgrcpEGhabcj7aWIvLofDIN39nq+cS0Sivjg3lKlUls5XHk2kOHAuafNfgFH9ejJj8VCJFz1TS5KVowvwvTiUQ0rrJD0/EqS1zcHuJFaOMt4rAXQDrPc68RebXfwY5SQGImc1bbi7nj+EUU4lMiSm2WXhRq8BZIGITBSRRACH3U0UBmyiwqVzltnoXggCtnuKs+LsLjMaCp8yeN33e8/WTthSQcBdiHQjT0FhLPKVz9vIULdU2AB5qqeS+lYtIpXW+ONHL2x1DmXCIAm1PNGIpELEUSKaBdeWmriYRqNEBl0OZBeDY2Sv8M5lxb8xdROPKKuyFKgB/DMSIxNLmWVkSscoSsiSiGz8kEUWWUGRphnddDgUjMLUi4JQEzMZitrNogndPXTH5UlXm0Q3LTT6Z1um4FF1wXTCoWDSybBYd7ujnUjxn4famctYsLcIu52rX30MxQtHUNQOYpk4XgbG00VLN2xqO8e6ZQZP3WCVaG9zIkkBzpdVcT+twum9yQaXZoJAIBAVgOBw3D3x3+jKhVA7nNq0Cm5IpKEtLFYqVnBe6RhMMTySvCcBwOJZtQj0i8HsmvycA6B+N8v7ZEfNwY6HMuuVluTwXBVqq1Bnu/P0avXB+wKwjp0RjhqO9K4Sug69nhPi0S+FdtWhWY6ouUSi15db6xpO5jJhjYEnrOm3dY1m2XQSOAOGjQ1F6hyaodOasu9NlZdXS0llCRAG0aV6wyyJKgWCAs5nr61xWZEmc8W33lQlOjMYARoB2qf+7A7GKB56pATRrPMnDLZWsLVdZ57ax5dYqM/ZXU6FVwm2XKFEltGobqiWjqMplo7nYwpoyla2rl0xPOXQdPv45SGcoDvCh36t9m5W+B3jyYCBk3XRLiMbqm+YVy8VOC4udV3tHYM2y0rznOy6M8nkwDBAB9pkDid+rdQH70sDrx4KEJuM3fBYYjcTZfbw3y77p92p9V09ErwEnOycS7G0LzKgL10uRWJI3jpznXKas/2J4PO9QWgv8BFTeX2Fj58Y6im2W67b8jSPnaRuIAgSNobTv/8byBuAwULnCLrNrfTUrqpxzP6HyvA86Loyy+3hv1vIgsMnv1c7N52FSA3wJrBKArZ4iNq+swFPuQJjjZZLWdbqvTPC1/3L2wmXd/vh0y+fzNLMCLwDPASrAuhKFVo+TujI7rkLFTLFoPMVQOEZgIEJb1xgnxmJm+IE3gT1+rxZf6OO0xhggtwA35elo+YSMAAeBffmsviYA04A4gFZjhGsGaoDsbBUCuqc9z9v9Xm1eDeJfGoshrXk14zIAAAAASUVORK5CYII=;" vertex="1" parent="1">
          <mxGeometry x="730" y="640" width="45" height="45" as="geometry" />
        </mxCell>
        <mxCell id="kVk3VaA8d4-bThML82Me-18" value="" style="shape=image;verticalLabelPosition=bottom;labelBackgroundColor=default;verticalAlign=top;aspect=fixed;imageAspect=0;image=data:image/png,iVBORw0KGgoAAAANSUhEUgAAACAAAAAgCAYAAABzenr0AAANA3pUWHRSYXcgcHJvZmlsZSB0eXBlIGV4aWYAAHjarZlpkhy5DYX/8xQ+AjdwOQ7XCN/Ax/cHMiunpdaMR+FRRVVm50KCeMDDA2XWf/69zb/4F1L0JkouqaZk+RdrrL5xUuz9186vs/H8nn/+ucXfP1w37w3PpcAx3D9Lep7/XHfvAPfQOJMvA5Xx3Og/3qjxGb/8NNAzc1CL9Hw+A9VnoODvDfcM0O6ybKolf11CX/c4Pysp92v0J5Yfzf72d8Z7U5gneL+CC5ZfH+I1IOjXmdA4yfy6EHnQcbGFGMq5Up/BcMiv/GS/WGV+RuU9c39y/SdQQrrXDRd+dGZ6j7+87uSn68+A5rj4y8xhvDP/cH1nO35ezue79yxm73VX12LCpelZ1Gcp54wHOy4P57XEJ/MVzvP5VD7FEL0DyCfzdT7DVeeBZbvopmtuu3WOww1MjH75zNH7AVB6rYTsqx/BGkVLP277HGqY4OXDAN7AVf/a4s689Uw3XGHi6XjSOwZTpL3Rn3/i86cD7a2+dc6W11fY5TUpMEOR01+eAhC3P3Ekx8Gfz8//FNcAgnLcXFhgs/0O0cU9saVxFA7QgQeF4801l+czAC5ibsEYF0DAJhfEJWez99k5/FjApzFQIWl8BwIn4idW+hhCApzidW7eye4868Xfy3AWQEhIpFYBoAZWEWIjfnIsxFCTIFFEkmQpUqUlqC9JSiknJb+WQ45Zcso5l1xzK6HEIiWVXIoptbTqa4Acpaaaa6m1tsakjZEbbzceaK37Hnrs0lPPvfTa2yB8Rhwy0sijmFFHm36GCU/MNPMss8623CKUVlyy0sqrrLraJtR22HHLTjvvsutuL2rOXFi/ff4+au6Dmj9I6YP5RY1Xc/4M4ZRORDEDMR8diGdFgID2ipktLlJFFDrFzFZPVojHSlFwplPEQDAu52W7F7s/kPsBNxPj/4Wb/yBnFLp/Ajmj0P0Jct9x+wVqU6vNsMEchDQN1ak2kH48sErzpWlR+37sc6/eup0l6YBMnELZzuTSd+sTi+dglMZc+hIT30dJOh4PRJ0szxAuYXuy7YzZyvL3FIY8J8J0sXkcRGV9bn05vjP0ml04pqRjSodoryVmf0y5Ng/r+xgDzPssgl+5mZ6nh/CwlLvOJaF/XbL5XV98dcV9fOe4a4X8WVDv0kZrIit2cjkKUbrwTZttsBaZTnKLMzXJdUpwoJ973wUkpxu9V7/N2nnBmDaCdpfVNWRWyJL2tDvCVWvOOLaG0RTSYwyZpXVIMJXpohBJyWKsmTnNyEWe683ZVYWXFhk1tuS+Z4o8IaA2215rU47qlu7XUqPmLnkPF4Y0w/xj9TIA3NcZub8IfpFWMoF8QliY2EmrY+UC58piAVaWq3xnHn5315PhybpjLUT55nx3fbnWeGNyxdDL34LC/DUWts1M9mAuKUMsKewKR2OAobapi20CUbPU8FyDr3iFeOz2rsTLPYGe/udRvW02LwnLLZAEPmhQCE7GkJrVmBhwO2mMGNCY9hh0fOzGvBPOlavPRcyUeKL/ZAGPCzjAQifBVqXYscq0xySL3hSrdi1717/baiMk181kfFKhrHCzktemRwzdV+YMCzXeCSPGgkDw1MDk11PwkexKAJpB+niNrFyAvpxli4rb3zyazwm+jVvPWLLkQLZooIcpaySX+mbiGDSMSWc4NHM/yXzdFM0bY7IYbcH32c41/GyT6J0sP7i8pfRFStoT7Gp+o/EYIaPNlkbiCib5fR9M50E/sSeRw1NDuSaUXCO0N1F68r+RyOP4uW6KBVNFLwoCKeJh+ONbDlYOKOR8m1V838TTKDtmLntSNXWf4KUnhMoNcmKwiSE6cgqaEYuMhcl2tzsgItNeMTOhZJZM6sG6eIXRqARwivoDy5O/N4KBMOYhDIYu1L97PZLb24dOkNCVdFGCoLx41wD7IdTu4BvyarUsocJHSFfClynfbFcAjlepcsf3fJTj0izUsA2Su4HahT7DUbCOWRMkE/dgSapYSDpnjso3wCyOa5jCepq/YK/sVitvnmUv2DszlZYxWU3NgRAPpDspDPgw6E0mZh42nXxzsgMmdP6ovcyWt13QxWrNwZCDKnqJww/iB8pwZF8SMq+f8uYc4ZgHCAaKMuyWlpwi6p+Z4HdPZK/OctYED0DuSAhUFuGEtEAPYd/Am4gPSl5dHv89JufGii3Nm3pipWxa1SKSnykTlQ13nQpHXFLUZ+RmqpPiP0Yq2Ob1/j79QLtLIbnoaT8ESvHDMF4GudZZQOvUSK1IEXZ62MAHOWe8ZUNVd1TNAdxkNvnCGFSmVpmu4Jc11dlFEDm5tToz/Y1Y7roZBGUk1JFM1CWwRfKQ4Vw2oZ/yVwXq9nVVUofpEaO9Y0IdPg89MP3GZelgFohGXVyPYWud1HODtBmDcfSPzI8eC2/jfgiN4qrxvhZVOFQN3iJSNemzdPpvVV1UCSjZDOUBqk7D51PLdmOB++tcTNXO/P787k9RrDg9av0FQiIbwrg+WUUbPKrlViaC8rmfRQuub/CADP6A5XJ9ygzpmUc9Ie4nS8tKNNgrpCaBKz6s4b6UJCYTBKHWl5zgyicDSqby7Fm3Jyc6jGNuJKQBg3OrUayxOKSuK40Px2fQVopfKNw7RXEUKvCA2jypTsk1bVp4BVmlwyy8d1Paujk+xI5smOfbMFCPuJnEyBTUsNfY46AWbYOZPaGh6iVMt3R9gpomDsaoO/m3UkhlskwhRDpHiNOOG6YEzTb8+UjFMKdikLIqn0y0vN5CdxGc0FEd3KlTZbRVOuCGDEoyMsGUAZnA7X+IVXIOPk3BlkgYEkLqCvTTwEJAxcxMKns3WrZb4WDYMRBaWXFE4UkktsupIxCmq2h20gj5kTpr2XBEzJXerAULdA+wdAhuUYWW0Z+ivLe15LmsGTdPIPaAzp8W90Umh0hDGNQTUoR1Ov3ZwdMlXLY0SpdaGzqRjzM8vF/qfEIOZPKHVYnVQI2RAaYJFUARJviGljt6sm6gqrq4FZAQWebZOBqqPipjrIEFYYnKig4nhvSEHX2G6i7R9CbgCDqDOkeNkj+H7zFrOmUy1JsWxwvv6KzWkSWi0lUqlhF220/eRdSgVLI38wZgrmj+qYYxLvBzkhBTSasKJnVY6WFo4F+/CFHzPUZ/K0ShG/Q90WAotPgfwDABoMFSro0TTvTpTRNq4OqPZIEoCQqYZ/ajb7QEasmmr0szaA3MYT/VkrExoS8758lW3JbgbirECQn1XEYfL/QhVICSNV4lOsTrtF6eBbGaI3FbK3Rp16TosK1qRmMc6U0RoyqsSOl36kRQq0gcBKifp5w0FbKDhrvb1t0NxIqnaO9PyOoX4lqH4665JGumuplP2XQwL9QeaYVg5wzfk+Ua5bDYTIuapH0yy4SG3h6Akuy0HPM1ruqJRSFpFILe0EKofTDcNx8Ur8KlZAfVM9ocagmtCJVSTwfhp9F2kg4ing5CG0ZKTUD48O48MZS7ViEqijY5h1dvUzM20llr6XC72G1a2mWoYKK979ry4e9gI9HYrp9TSt9Fs6Dtmu41+KwbU5CBwXUeMe6iNqnVN/fI+2a7014YZU+C0Yf1GkuNxIpzWg3k1M129iZcTNUoBX2YBVGrRUrz2pU5aLa0E+Wd0ysSojOQBZcRVah0Gov+9Mvm+g71tpRb5DRas9NWx9NWa3fx9t/kPTL1ONhlZYQA+aLN8ZUzt3+fz+bD7dLIFoQIU8BTYH7aD601uklCHzii7m2o1GEedQK9KzTCsPP7lsFvHymQxBHyjlq6tORm5AlB6+hpvajac7QfdMT9KNRHyKJH5Yrf0w3R7A0TtZPV9sHRbqJ+8ZQ85f++RMtc3oZYd6lIM+RlQZCH6yjKdy9G93CGZqCiNT/9rNVc0JQQbQcpd+G2tPJ6KtFM+7nJNlxGLw9q9jCCgk2t6brb8ETS06L8TR/RDtfLGItkF+U3ODppbipzZ6QVd5RpCuUFM5Sw1Yxnr4XOs6vVBroIqmkGrWjyQfNNQ2y3ONwiWopWgtznZ5PmVxsB5PMyK6gLtaWgNUMhupuYI5Q2XD67KVO3FNxx9/V/L0iDcmoY8oukgHGMEj/ciF5LyP1PvK6ebsgjtnWHRYsRfdAeVHv9L6tAF7Fz3g4haJl9OqMSL2EKBAWyAKIYITqRuk6LL6yGrk1Vd2kAgMldzJ4Fu1bjibqCQvDN0Hq3lMmFRD9H0ebySrqfIBPVY4Nul+iGgTKyyt80dc8m6Dp1c0S3OHVHLpkKPR1QdIcGh8Snub07NE47t4JuScqMYURW/BUPv+zGW3suw3TjrxD5dvyDCs4exOEMyFrbrPChgi9M8Nnnu9uIH2JOdxuRh3XDIr0bFq0s438r03X8JT+Q14LmoVuDIfljyLX42T/k0bOhhDPO/uEpD1veDaaf9g/N02OhvZG4/wU+fY2HmQRY+wAAAYVpQ0NQSUNDIHByb2ZpbGUAAHicfZE9SMNAHMVfU6VSqg52EHHIUAXBgqhIR61CESqEWqFVB5NLv6BJQ5Li4ii4Fhz8WKw6uDjr6uAqCIIfIG5uToouUuL/0kKLGA+O+/Hu3uPuHSDUy0yzuiYATbfNVCIuZrKrYuAVAfQhiDHEZGYZc5KUhOf4uoePr3dRnuV97s/Rq+YsBvhE4llmmDbxBvHMpm1w3icOs6KsEp8Tj5t0QeJHritNfuNccFngmWEznZonDhOLhQ5WOpgVTY14mjiiajrlC5kmq5y3OGvlKmvdk78wlNNXlrlOcxgJLGIJEkQoqKKEMmxEadVJsZCi/biHf8j1S+RSyFUCI8cCKtAgu37wP/jdrZWfmmwmheJA94vjfIwAgV2gUXOc72PHaZwA/mfgSm/7K3Ug9kl6ra1FjoD+beDiuq0pe8DlDjD4ZMim7Ep+mkI+D7yf0TdlgYFbILjW7K21j9MHIE1dJW+Ag0NgtEDZ6x7v7uns7d8zrf5+AKwscr4u8yrhAAANGmlUWHRYTUw6Y29tLmFkb2JlLnhtcAAAAAAAPD94cGFja2V0IGJlZ2luPSLvu78iIGlkPSJXNU0wTXBDZWhpSHpyZVN6TlRjemtjOWQiPz4KPHg6eG1wbWV0YSB4bWxuczp4PSJhZG9iZTpuczptZXRhLyIgeDp4bXB0az0iWE1QIENvcmUgNC40LjAtRXhpdjIiPgogPHJkZjpSREYgeG1sbnM6cmRmPSJodHRwOi8vd3d3LnczLm9yZy8xOTk5LzAyLzIyLXJkZi1zeW50YXgtbnMjIj4KICA8cmRmOkRlc2NyaXB0aW9uIHJkZjphYm91dD0iIgogICAgeG1sbnM6eG1wTU09Imh0dHA6Ly9ucy5hZG9iZS5jb20veGFwLzEuMC9tbS8iCiAgICB4bWxuczpzdEV2dD0iaHR0cDovL25zLmFkb2JlLmNvbS94YXAvMS4wL3NUeXBlL1Jlc291cmNlRXZlbnQjIgogICAgeG1sbnM6ZGM9Imh0dHA6Ly9wdXJsLm9yZy9kYy9lbGVtZW50cy8xLjEvIgogICAgeG1sbnM6R0lNUD0iaHR0cDovL3d3dy5naW1wLm9yZy94bXAvIgogICAgeG1sbnM6dGlmZj0iaHR0cDovL25zLmFkb2JlLmNvbS90aWZmLzEuMC8iCiAgICB4bWxuczp4bXA9Imh0dHA6Ly9ucy5hZG9iZS5jb20veGFwLzEuMC8iCiAgIHhtcE1NOkRvY3VtZW50SUQ9ImdpbXA6ZG9jaWQ6Z2ltcDo2NjJmMmMwYi1mYzkxLTQ0NDctOTc5OC1lNzQ0OWFkMDZhZWIiCiAgIHhtcE1NOkluc3RhbmNlSUQ9InhtcC5paWQ6YzBmOTk3MWYtNzMzZS00NDAwLTk3N2QtOThiODA0NjIwOWJlIgogICB4bXBNTTpPcmlnaW5hbERvY3VtZW50SUQ9InhtcC5kaWQ6YmY1N2JiNDctMjUxZS00NmIyLTgyODQtMjc2Mjg3OWY3MmU0IgogICBkYzpGb3JtYXQ9ImltYWdlL3BuZyIKICAgR0lNUDpBUEk9IjIuMCIKICAgR0lNUDpQbGF0Zm9ybT0iTGludXgiCiAgIEdJTVA6VGltZVN0YW1wPSIxNjI2MjU5NzAxMDgwNTA1IgogICBHSU1QOlZlcnNpb249IjIuMTAuMjQiCiAgIHRpZmY6T3JpZW50YXRpb249IjEiCiAgIHhtcDpDcmVhdG9yVG9vbD0iR0lNUCAyLjEwIj4KICAgPHhtcE1NOkhpc3Rvcnk+CiAgICA8cmRmOlNlcT4KICAgICA8cmRmOmxpCiAgICAgIHN0RXZ0OmFjdGlvbj0ic2F2ZWQiCiAgICAgIHN0RXZ0OmNoYW5nZWQ9Ii8iCiAgICAgIHN0RXZ0Omluc3RhbmNlSUQ9InhtcC5paWQ6NWZkMGNhZjQtOTlhYS00ODk0LTgzOGYtNDI1MTE1NDUzYTE3IgogICAgICBzdEV2dDpzb2Z0d2FyZUFnZW50PSJHaW1wIDIuMTAgKExpbnV4KSIKICAgICAgc3RFdnQ6d2hlbj0iMjAyMS0wNy0xNFQxMjo0ODoyMSswMjowMCIvPgogICAgPC9yZGY6U2VxPgogICA8L3htcE1NOkhpc3Rvcnk+CiAgPC9yZGY6RGVzY3JpcHRpb24+CiA8L3JkZjpSREY+CjwveDp4bXBtZXRhPgogICAgICAgICAgICAgICAgICAgICAgICAgICAgICAgICAgICAgICAgICAgICAgICAgICAgICAgICAgICAgICAgICAgICAgICAgICAgICAgICAgICAgICAgICAgICAgICAgICAgCiAgICAgICAgICAgICAgICAgICAgICAgICAgICAgICAgICAgICAgICAgICAgICAgICAgICAgICAgICAgICAgICAgICAgICAgICAgICAgICAgICAgICAgICAgICAgICAgICAgICAKICAgICAgICAgICAgICAgICAgICAgICAgICAgICAgICAgICAgICAgICAgICAgICAgICAgICAgICAgICAgICAgICAgICAgICAgICAgICAgICAgICAgICAgICAgICAgICAgICAgIAogICAgICAgICAgICAgICAgICAgICAgICAgICAgICAgICAgICAgICAgICAgICAgICAgICAgICAgICAgICAgICAgICAgICAgICAgICAgICAgICAgICAgICAgICAgICAgICAgICAgCiAgICAgICAgICAgICAgICAgICAgICAgICAgICAgICAgICAgICAgICAgICAgICAgICAgICAgICAgICAgICAgICAgICAgICAgICAgICAgICAgICAgICAgICAgICAgICAgICAgICAKICAgICAgICAgICAgICAgICAgICAgICAgICAgICAgICAgICAgICAgICAgICAgICAgICAgICAgICAgICAgICAgICAgICAgICAgICAgICAgICAgICAgICAgICAgICAgICAgICAgIAogICAgICAgICAgICAgICAgICAgICAgICAgICAgICAgICAgICAgICAgICAgICAgICAgICAgICAgICAgICAgICAgICAgICAgICAgICAgICAgICAgICAgICAgICAgICAgICAgICAgCiAgICAgICAgICAgICAgICAgICAgICAgICAgICAgICAgICAgICAgICAgICAgICAgICAgICAgICAgICAgICAgICAgICAgICAgICAgICAgICAgICAgICAgICAgICAgICAgICAgICAKICAgICAgICAgICAgICAgICAgICAgICAgICAgICAgICAgICAgICAgICAgICAgICAgICAgICAgICAgICAgICAgICAgICAgICAgICAgICAgICAgICAgICAgICAgICAgICAgICAgIAogICAgICAgICAgICAgICAgICAgICAgICAgICAgICAgICAgICAgICAgICAgICAgICAgICAgICAgICAgICAgICAgICAgICAgICAgICAgICAgICAgICAgICAgICAgICAgICAgICAgCiAgICAgICAgICAgICAgICAgICAgICAgICAgICAgICAgICAgICAgICAgICAgICAgICAgICAgICAgICAgICAgICAgICAgICAgICAgICAgICAgICAgICAgICAgICAgICAgICAgICAKICAgICAgICAgICAgICAgICAgICAgICAgICAgICAgICAgICAgICAgICAgICAgICAgICAgICAgICAgICAgICAgICAgICAgICAgICAgICAgICAgICAgICAgICAgICAgICAgICAgIAogICAgICAgICAgICAgICAgICAgICAgICAgICAgICAgICAgICAgICAgICAgICAgICAgICAgICAgICAgICAgICAgICAgICAgICAgICAgICAgICAgICAgICAgICAgICAgICAgICAgCiAgICAgICAgICAgICAgICAgICAgICAgICAgICAgICAgICAgICAgICAgICAgICAgICAgICAgICAgICAgICAgICAgICAgICAgICAgICAgICAgICAgICAgICAgICAgICAgICAgICAKICAgICAgICAgICAgICAgICAgICAgICAgICAgICAgICAgICAgICAgICAgICAgICAgICAgICAgICAgICAgICAgICAgICAgICAgICAgICAgICAgICAgICAgICAgICAgICAgICAgIAogICAgICAgICAgICAgICAgICAgICAgICAgICAgICAgICAgICAgICAgICAgICAgICAgICAgICAgICAgICAgICAgICAgICAgICAgICAgICAgICAgICAgICAgICAgICAgICAgICAgCiAgICAgICAgICAgICAgICAgICAgICAgICAgICAgICAgICAgICAgICAgICAgICAgICAgICAgICAgICAgICAgICAgICAgICAgICAgICAgICAgICAgICAgICAgICAgICAgICAgICAKICAgICAgICAgICAgICAgICAgICAgICAgICAgICAgICAgICAgICAgICAgICAgICAgICAgICAgICAgICAgICAgICAgICAgICAgICAgICAgICAgICAgICAgICAgICAgICAgICAgIAogICAgICAgICAgICAgICAgICAgICAgICAgICAgICAgICAgICAgICAgICAgICAgICAgICAgICAgICAgICAgICAgICAgICAgICAgICAgICAgICAgICAgICAgICAgICAgICAgICAgCiAgICAgICAgICAgICAgICAgICAgICAgICAgICAgICAgICAgICAgICAgICAgICAgICAgICAgICAgICAgICAgICAgICAgICAgICAgICAgICAgICAgICAgICAgICAgICAgICAgICAKICAgICAgICAgICAgICAgICAgICAgICAgICAgCjw/eHBhY2tldCBlbmQ9InciPz4yydesAAAABmJLR0QA/wD/AP+gvaeTAAAACXBIWXMAAAsTAAALEwEAmpwYAAAAB3RJTUUH5QcOCjAVZ67cfAAABftJREFUWMOtl1tsFGUUx38z09nZ2d22a7ftFlraLi1EaVLaZhAEjWgBL/FCjMYHiEYfzD7AC1GiPHiJogaCMcYLoi9ioomXGKLGQJMC8UbMIgutqMi23VKg9L7dbrd7HR92dralqy2Fk2yy5/u+Oed/zvnO5ROYJzXt9zmBe4G7gWagGnAa22NAD3AKaAcO+71aaD5yhXkoXg7sBB4HHNl1HZCMr1P6LEFh4DNgr9+rBRYEoGm/zwa8AmwHFAHYUK6y3uNkaZmdEoeC1SIBEI0nGQnHCQxGONo9RvtgNCtmCngLeNXv1abmDaBpv28Z8BXQKAnwdL2TB1dWUFViR5jDZ7oOvUMRDp2+zCeBEOnM8kngMb9X654TQNN+XzPwA+BuLrLw/Poali8qYiH018UQu48F6ZxIAFwC7vF7tc7/BGBY/iPg3lxpZ0drHYWqzPXQ+GScPW0Bvu+fBLgI3O73aj2zABgx/xVo3Fxp5/l7lqHIEjeCovEUu384lwXhA+7I3glx2rmXgcbmIgs7WutumHIA1SLx3MY6GuwygAbsmuEBI9XOSALKZw8uW3DM56KzfWNs/T6ADlFghd+r9RQYezsB5al6Z17luq7jO3OBvv5x1rbU4C4rnLF/aWSSX84Pk0rroOsI4xGEVIp0oR3kjIpql43V9S62eor4tHtcBZ4FtglGhbsggOPQozezxGWfBcDX0ceOd34DoN6t8sFLm8wQxRIptnzeSSCaBMAyOI4SHAUgrcpEGhabcj7aWIvLofDIN39nq+cS0Sivjg3lKlUls5XHk2kOHAuafNfgFH9ejJj8VCJFz1TS5KVowvwvTiUQ0rrJD0/EqS1zcHuJFaOMt4rAXQDrPc68RebXfwY5SQGImc1bbi7nj+EUU4lMiSm2WXhRq8BZIGITBSRRACH3U0UBmyiwqVzltnoXggCtnuKs+LsLjMaCp8yeN33e8/WTthSQcBdiHQjT0FhLPKVz9vIULdU2AB5qqeS+lYtIpXW+ONHL2x1DmXCIAm1PNGIpELEUSKaBdeWmriYRqNEBl0OZBeDY2Sv8M5lxb8xdROPKKuyFKgB/DMSIxNLmWVkSscoSsiSiGz8kEUWWUGRphnddDgUjMLUi4JQEzMZitrNogndPXTH5UlXm0Q3LTT6Z1um4FF1wXTCoWDSybBYd7ujnUjxn4famctYsLcIu52rX30MxQtHUNQOYpk4XgbG00VLN2xqO8e6ZQZP3WCVaG9zIkkBzpdVcT+twum9yQaXZoJAIBAVgOBw3D3x3+jKhVA7nNq0Cm5IpKEtLFYqVnBe6RhMMTySvCcBwOJZtQj0i8HsmvycA6B+N8v7ZEfNwY6HMuuVluTwXBVqq1Bnu/P0avXB+wKwjp0RjhqO9K4Sug69nhPi0S+FdtWhWY6ouUSi15db6xpO5jJhjYEnrOm3dY1m2XQSOAOGjQ1F6hyaodOasu9NlZdXS0llCRAG0aV6wyyJKgWCAs5nr61xWZEmc8W33lQlOjMYARoB2qf+7A7GKB56pATRrPMnDLZWsLVdZ57ax5dYqM/ZXU6FVwm2XKFEltGobqiWjqMplo7nYwpoyla2rl0xPOXQdPv45SGcoDvCh36t9m5W+B3jyYCBk3XRLiMbqm+YVy8VOC4udV3tHYM2y0rznOy6M8nkwDBAB9pkDid+rdQH70sDrx4KEJuM3fBYYjcTZfbw3y77p92p9V09ErwEnOycS7G0LzKgL10uRWJI3jpznXKas/2J4PO9QWgv8BFTeX2Fj58Y6im2W67b8jSPnaRuIAgSNobTv/8byBuAwULnCLrNrfTUrqpxzP6HyvA86Loyy+3hv1vIgsMnv1c7N52FSA3wJrBKArZ4iNq+swFPuQJjjZZLWdbqvTPC1/3L2wmXd/vh0y+fzNLMCLwDPASrAuhKFVo+TujI7rkLFTLFoPMVQOEZgIEJb1xgnxmJm+IE3gT1+rxZf6OO0xhggtwA35elo+YSMAAeBffmsviYA04A4gFZjhGsGaoDsbBUCuqc9z9v9Xm1eDeJfGoshrXk14zIAAAAASUVORK5CYII=;" vertex="1" parent="1">
          <mxGeometry x="960" y="640" width="45" height="45" as="geometry" />
        </mxCell>
      </root>
    </mxGraphModel>
  </diagram>
</mxfile>
